{"scene":0,"scenes":[{"nodes":[0]}],"asset":{"version":"2.0","generator":"URAI deterministic spatial model forge v1","copyright":"URAI Labs"},"accessors":[{"componentType":5125,"type":"SCALAR","bufferView":0,"count":4608,"max":[767],"min":[0]},{"componentType":5126,"type":"VEC3","byteOffset":0,"bufferView":1,"count":768,"max":[1.7699999809265137,1.7699999809265137,0.11999999731779099],"min":[-1.7699999809265137,-1.7699999809265137,-0.11999999731779099]},{"componentType":5121,"normalized":true,"type":"VEC4","byteOffset":0,"bufferView":2,"count":768,"max":[154,102,255,255],"min":[154,102,255,255]},{"componentType":5126,"count":768,"type":"VEC3","byteOffset":0,"bufferView":3,"max":[1.0,1.0,0.9999672770500183],"min":[-1.0,-1.0,-0.9999672770500183]},{"componentType":5125,"type":"SCALAR","bufferView":4,"count":3072,"max":[511],"min":[0]},{"componentType":5126,"type":"VEC3","byteOffset":0,"bufferView":5,"count":512,"max":[1.4149999618530273,1.4149999618530273,0.03500000014901161],"min":[-1.4149999618530273,-1.4149999618530273,-0.03500000014901161]},{"componentType":5121,"normalized":true,"type":"VEC4","byteOffset":0,"bufferView":6,"count":512,"max":[90,244,255,255],"min":[90,244,255,255]},{"componentType":5126,"count":512,"type":"VEC3","byteOffset":0,"bufferView":7,"max":[1.0,1.0,0.9999285340309143],"min":[-1.0,-1.0,-0.9999285340309143]},{"componentType":5125,"type":"SCALAR","bufferView":8,"count":36,"max":[7],"min":[0]},{"componentType":5126,"type":"VEC3","byteOffset":0,"bufferView":9,"count":8,"max":[1.0499999523162842,0.574999988079071,-0.009999999776482582],"min":[-1.0499999523162842,-0.574999988079071,-0.10999999940395355]},{"componentType":5121,"normalized":true,"type":"VEC4","byteOffset":0,"bufferView":10,"count":8,"max":[9,15,28,255],"min":[9,15,28,255]},{"componentType":5126,"count":8,"type":"VEC3","byteOffset":0,"bufferView":11,"max":[0.5773502588272095,0.5773502588272095,0.5773502588272095],"min":[-0.5773502588272095,-0.5773502588272095,-0.5773502588272095]},{"componentType":5126,"type":"VEC3","byteOffset":0,"bufferView":12,"count":8,"max":[0.949999988079071,0.4749999940395355,-0.10000000149011612],"min":[-0.949999988079071,-0.4749999940395355,-0.1599999964237213]},{"componentType":5121,"normalized":true,"type":"VEC4","byteOffset":0,"bufferView":13,"count":8,"max":[69,178,255,255],"min":[69,178,255,255]},{"componentType":5126,"type":"VEC3","byteOffset":0,"bufferView":14,"count":8,"max":[-0.7599999904632568,-0.3100000023841858,-0.16500000655651093],"min":[-0.8799999952316284,-0.4099999964237213,-0.2150000035762787]},{"componentType":5121,"normalized":true,"type":"VEC4","byteOffset":0,"bufferView":15,"count":8,"max":[230,247,255,255],"min":[230,247,255,255]},{"componentType":5126,"type":"VEC3","byteOffset":0,"bufferView":16,"count":8,"max":[-0.7599999904632568,-0.07000000029802322,-0.16500000655651093],"min":[-0.8799999952316284,-0.17000000178813934,-0.2150000035762787]},{"componentType":5126,"type":"VEC3","byteOffset":0,"bufferView":17,"count":8,"max":[-0.7599999904632568,0.17000000178813934,-0.16500000655651093],"min":[-0.8799999952316284,0.07000000029802322,-0.2150000035762787]},{"componentType":5126,"type":"VEC3","byteOffset":0,"bufferView":18,"count":8,"max":[-0.7599999904632568,0.4099999964237213,-0.16500000655651093],"min":[-0.8799999952316284,0.3100000023841858,-0.2150000035762787]},{"componentType":5126,"type":"VEC3","byteOffset":0,"bufferView":19,"count":8,"max":[0.8799999952316284,-0.3100000023841858,-0.16500000655651093],"min":[0.7599999904632568,-0.4099999964237213,-0.2150000035762787]},{"componentType":5126,"type":"VEC3","byteOffset":0,"bufferView":20,"count":8,"max":[0.8799999952316284,-0.07000000029802322,-0.16500000655651093],"min":[0.7599999904632568,-0.17000000178813934,-0.2150000035762787]},{"componentType":5126,"type":"VEC3","byteOffset":0,"bufferView":21,"count":8,"max":[0.8799999952316284,0.17000000178813934,-0.16500000655651093],"min":[0.7599999904632568,0.07000000029802322,-0.2150000035762787]},{"componentType":5126,"type":"VEC3","byteOffset":0,"bufferView":22,"count":8,"max":[0.8799999952316284,0.4099999964237213,-0.16500000655651093],"min":[0.7599999904632568,0.3100000023841858,-0.2150000035762787]}],"meshes":[{"name":"replay-film-portal-v1-mesh-00","extras":{"shape":"torus","major_radius":1.65,"minor_radius":0.12,"processed":true},"primitives":[{"attributes":{"POSITION":1,"COLOR_0":2,"NORMAL":3},"indices":0,"mode":4}]},{"name":"replay-film-portal-v1-mesh-01","extras":{"shape":"torus","major_radius":1.38,"minor_radius":0.035,"processed":true},"primitives":[{"attributes":{"POSITION":5,"COLOR_0":6,"NORMAL":7},"indices":4,"mode":4}]},{"name":"replay-film-portal-v1-mesh-02","extras":{"shape":"box","extents":[2.1,1.15,0.1]},"primitives":[{"attributes":{"POSITION":9,"COLOR_0":10,"NORMAL":11},"indices":8,"mode":4}]},{"name":"replay-film-portal-v1-mesh-03","extras":{"shape":"box","extents":[1.9,0.95,0.06]},"primitives":[{"attributes":{"POSITION":12,"COLOR_0":13,"NORMAL":11},"indices":8,"mode":4}]},{"name":"replay-film-portal-v1-mesh-04","extras":{"shape":"box","extents":[0.12,0.1,0.05]},"primitives":[{"attributes":{"POSITION":14,"COLOR_0":15,"NORMAL":11},"indices":8,"mode":4}]},{"name":"replay-film-portal-v1-mesh-05","extras":{"shape":"box","extents":[0.12,0.1,0.05]},"primitives":[{"attributes":{"POSITION":16,"COLOR_0":15,"NORMAL":11},"indices":8,"mode":4}]},{"name":"replay-film-portal-v1-mesh-06","extras":{"shape":"box","extents":[0.12,0.1,0.05]},"primitives":[{"attributes":{"POSITION":17,"COLOR_0":15,"NORMAL":11},"indices":8,"mode":4}]},{"name":"replay-film-portal-v1-mesh-07","extras":{"shape":"box","extents":[0.12,0.1,0.05]},"primitives":[{"attributes":{"POSITION":18,"COLOR_0":15,"NORMAL":11},"indices":8,"mode":4}]},{"name":"replay-film-portal-v1-mesh-08","extras":{"shape":"box","extents":[0.12,0.1,0.05]},"primitives":[{"attributes":{"POSITION":19,"COLOR_0":15,"NORMAL":11},"indices":8,"mode":4}]},{"name":"replay-film-portal-v1-mesh-09","extras":{"shape":"box","extents":[0.12,0.1,0.05]},"primitives":[{"attributes":{"POSITION":20,"COLOR_0":15,"NORMAL":11},"indices":8,"mode":4}]},{"name":"replay-film-portal-v1-mesh-10","extras":{"shape":"box","extents":[0.12,0.1,0.05]},"primitives":[{"attributes":{"POSITION":21,"COLOR_0":15,"NORMAL":11},"indices":8,"mode":4}]},{"name":"replay-film-portal-v1-mesh-11","extras":{"shape":"box","extents":[0.12,0.1,0.05]},"primitives":[{"attributes":{"POSITION":22,"COLOR_0":15,"NORMAL":11},"indices":8,"mode":4}]}],"nodes":[{"name":"world","children":[1,2,3,4,5,6,7,8,9,10,11,12]},{"name":"replay-film-portal-v1-00","mesh":0},{"name":"replay-film-portal-v1-01","mesh":1},{"name":"replay-film-portal-v1-02","mesh":2},{"name":"replay-film-portal-v1-03","mesh":3},{"name":"replay-film-portal-v1-04","mesh":4},{"name":"replay-film-portal-v1-05","mesh":5},{"name":"replay-film-portal-v1-06","mesh":6},{"name":"replay-film-portal-v1-07","mesh":7},{"name":"replay-film-portal-v1-08","mesh":8},{"name":"replay-film-portal-v1-09","mesh":9},{"name":"replay-film-portal-v1-10","mesh":10},{"name":"replay-film-portal-v1-11","mesh":11}],"buffers":[{"uri":"data:application/octet-stream;base64,","byteLength":67856}],"bufferViews":[{"buffer":0,"byteOffset":0,"byteLength":18432},{"buffer":0,"byteOffset":18432,"byteLength":9216},{"buffer":0,"byteOffset":27648,"byteLength":3072},{"buffer":0,"byteOffset":30720,"byteLength":9216},{"buffer":0,"byteOffset":39936,"byteLength":12288},{"buffer":0,"byteOffset":52224,"byteLength":6144},{"buffer":0,"byteOffset":58368,"byteLength":2048},{"buffer":0,"byteOffset":60416,"byteLength":6144},{"buffer":0,"byteOffset":66560,"byteLength":144},{"buffer":0,"byteOffset":66704,"byteLength":96},{"buffer":0,"byteOffset":66800,"byteLength":32},{"buffer":0,"byteOffset":66832,"byteLength":96},{"buffer":0,"byteOffset":66928,"byteLength":96},{"buffer":0,"byteOffset":67024,"byteLength":32},{"buffer":0,"byteOffset":67056,"byteLength":96},{"buffer":0,"byteOffset":67152,"byteLength":32},{"buffer":0,"byteOffset":67184,"byteLength":96},{"buffer":0,"byteOffset":67280,"byteLength":96},{"buffer":0,"byteOffset":67376,"byteLength":96},{"buffer":0,"byteOffset":67472,"byteLength":96},{"buffer":0,"byteOffset":67568,"byteLength":96},{"buffer":0,"byteOffset":67664,"byteLength":96},{"buffer":0,"byteOffset":67760,"byteLength":96}],"extras":{"uraiModelId":"replay-film-portal-v1","productionClass":"modular-first-pass","generatedBy":"scripts/generate-real-spatial-models-v1.py","units":"meters"}}
