{"scene":0,"scenes":[{"nodes":[0]}],"asset":{"version":"2.0","generator":"URAI deterministic spatial model forge v1","copyright":"URAI Labs"},"accessors":[{"componentType":5125,"type":"SCALAR","bufferView":0,"count":6144,"max":[1023],"min":[0]},{"componentType":5126,"type":"VEC3","byteOffset":0,"bufferView":1,"count":1024,"max":[1.8300000429153442,1.8300000429153442,0.18000000715255737],"min":[-1.8300000429153442,-1.8300000429153442,-0.18000000715255737]},{"componentType":5121,"normalized":true,"type":"VEC4","byteOffset":0,"bufferView":2,"count":1024,"max":[9,15,28,255],"min":[9,15,28,255]},{"componentType":5126,"count":1024,"type":"VEC3","byteOffset":0,"bufferView":3,"max":[1.0,1.0,0.9999814033508301],"min":[-1.0,-1.0,-0.9999814033508301]},{"componentType":5125,"type":"SCALAR","bufferView":4,"count":4608,"max":[767],"min":[0]},{"componentType":5126,"type":"VEC3","byteOffset":0,"bufferView":5,"count":768,"max":[1.7000000476837158,1.7000000476837158,0.07999999821186066],"min":[-1.7000000476837158,-1.7000000476837158,-0.07999999821186066]},{"componentType":5121,"normalized":true,"type":"VEC4","byteOffset":0,"bufferView":6,"count":768,"max":[90,244,255,255],"min":[90,244,255,255]},{"componentType":5126,"count":768,"type":"VEC3","byteOffset":0,"bufferView":7,"max":[1.0,1.0,0.9999672770500183],"min":[-1.0,-1.0,-0.9999672770500183]},{"componentType":5125,"type":"SCALAR","bufferView":8,"count":3072,"max":[511],"min":[0]},{"componentType":5126,"type":"VEC3","byteOffset":0,"bufferView":9,"count":512,"max":[1.3650000095367432,1.3650000095367432,0.03500000014901161],"min":[-1.3650000095367432,-1.3650000095367432,-0.03500000014901161]},{"componentType":5121,"normalized":true,"type":"VEC4","byteOffset":0,"bufferView":10,"count":512,"max":[154,102,255,255],"min":[154,102,255,255]},{"componentType":5126,"count":512,"type":"VEC3","byteOffset":0,"bufferView":11,"max":[1.0,1.0,0.9999285340309143],"min":[-1.0,-1.0,-0.9999285340309143]},{"componentType":5125,"type":"SCALAR","bufferView":12,"count":240,"max":[41],"min":[0]},{"componentType":5126,"type":"VEC3","byteOffset":0,"bufferView":13,"count":42,"max":[1.715000033378601,0.0949999988079071,0.0949999988079071],"min":[1.524999976158142,-0.0949999988079071,-0.0949999988079071]},{"componentType":5121,"normalized":true,"type":"VEC4","byteOffset":0,"bufferView":14,"count":42,"max":[230,247,255,255],"min":[230,247,255,255]},{"componentType":5126,"count":42,"type":"VEC3","byteOffset":0,"bufferView":15,"max":[1.0,1.0,1.0],"min":[-1.0,-1.0,-1.0]},{"componentType":5126,"type":"VEC3","byteOffset":0,"bufferView":16,"count":42,"max":[1.2405129671096802,1.2405129671096802,0.0949999988079071],"min":[1.0505130290985107,1.0505130290985107,-0.0949999988079071]},{"componentType":5126,"count":42,"type":"VEC3","byteOffset":0,"bufferView":17,"max":[1.0,1.0,1.0],"min":[-1.0,-1.0,-1.0]},{"componentType":5126,"type":"VEC3","byteOffset":0,"bufferView":18,"count":42,"max":[0.0949999988079071,1.715000033378601,0.0949999988079071],"min":[-0.0949999988079071,1.524999976158142,-0.0949999988079071]},{"componentType":5126,"count":42,"type":"VEC3","byteOffset":0,"bufferView":19,"max":[1.0,1.0,1.0],"min":[-1.0,-1.0,-1.0]},{"componentType":5126,"type":"VEC3","byteOffset":0,"bufferView":20,"count":42,"max":[-1.0505130290985107,1.2405129671096802,0.0949999988079071],"min":[-1.2405129671096802,1.0505130290985107,-0.0949999988079071]},{"componentType":5126,"type":"VEC3","byteOffset":0,"bufferView":21,"count":42,"max":[-1.524999976158142,0.0949999988079071,0.0949999988079071],"min":[-1.715000033378601,-0.0949999988079071,-0.0949999988079071]},{"componentType":5126,"count":42,"type":"VEC3","byteOffset":0,"bufferView":22,"max":[1.0,1.0,1.0],"min":[-1.0,-1.0,-1.0]},{"componentType":5126,"type":"VEC3","byteOffset":0,"bufferView":23,"count":42,"max":[-1.0505130290985107,-1.0505130290985107,0.0949999988079071],"min":[-1.2405129671096802,-1.2405129671096802,-0.0949999988079071]},{"componentType":5126,"count":42,"type":"VEC3","byteOffset":0,"bufferView":24,"max":[1.0,1.0,1.0],"min":[-1.0,-1.0,-1.0]},{"componentType":5126,"type":"VEC3","byteOffset":0,"bufferView":25,"count":42,"max":[0.0949999988079071,-1.524999976158142,0.0949999988079071],"min":[-0.0949999988079071,-1.715000033378601,-0.0949999988079071]},{"componentType":5126,"count":42,"type":"VEC3","byteOffset":0,"bufferView":26,"max":[1.0,1.0,1.0],"min":[-1.0,-1.0,-1.0]},{"componentType":5126,"type":"VEC3","byteOffset":0,"bufferView":27,"count":42,"max":[1.2405129671096802,-1.0505130290985107,0.0949999988079071],"min":[1.0505130290985107,-1.2405129671096802,-0.0949999988079071]},{"componentType":5126,"count":42,"type":"VEC3","byteOffset":0,"bufferView":28,"max":[1.0,1.0,1.0],"min":[-1.0,-1.0,-1.0]},{"componentType":5125,"type":"SCALAR","bufferView":29,"count":36,"max":[7],"min":[0]},{"componentType":5126,"type":"VEC3","byteOffset":0,"bufferView":30,"count":8,"max":[0.6000000238418579,-1.690000057220459,0.3499999940395355],"min":[-0.6000000238418579,-1.8700000047683716,-0.3499999940395355]},{"componentType":5121,"normalized":true,"type":"VEC4","byteOffset":0,"bufferView":31,"count":8,"max":[9,15,28,255],"min":[9,15,28,255]},{"componentType":5126,"count":8,"type":"VEC3","byteOffset":0,"bufferView":32,"max":[0.5773502588272095,0.5773502588272095,0.5773502588272095],"min":[-0.5773502588272095,-0.5773502588272095,-0.5773502588272095]},{"componentType":5126,"type":"VEC3","byteOffset":0,"bufferView":33,"count":8,"max":[0.3499999940395355,-1.590000033378601,0.20000000298023224],"min":[-0.3499999940395355,-1.6699999570846558,-0.20000000298023224]},{"componentType":5121,"normalized":true,"type":"VEC4","byteOffset":0,"bufferView":34,"count":8,"max":[69,178,255,255],"min":[69,178,255,255]}],"meshes":[{"name":"universal-portal-ring-v1-mesh-00","extras":{"shape":"torus","major_radius":1.65,"minor_radius":0.18,"processed":true},"primitives":[{"attributes":{"POSITION":1,"COLOR_0":2,"NORMAL":3},"indices":0,"mode":4}]},{"name":"universal-portal-ring-v1-mesh-01","extras":{"shape":"torus","major_radius":1.62,"minor_radius":0.08,"processed":true},"primitives":[{"attributes":{"POSITION":5,"COLOR_0":6,"NORMAL":7},"indices":4,"mode":4}]},{"name":"universal-portal-ring-v1-mesh-02","extras":{"shape":"torus","major_radius":1.33,"minor_radius":0.035,"processed":true},"primitives":[{"attributes":{"POSITION":9,"COLOR_0":10,"NORMAL":11},"indices":8,"mode":4}]},{"name":"universal-portal-ring-v1-mesh-03","extras":{"shape":"sphere","radius":0.095},"primitives":[{"attributes":{"POSITION":13,"COLOR_0":14,"NORMAL":15},"indices":12,"mode":4}]},{"name":"universal-portal-ring-v1-mesh-04","extras":{"shape":"sphere","radius":0.095},"primitives":[{"attributes":{"POSITION":16,"COLOR_0":14,"NORMAL":17},"indices":12,"mode":4}]},{"name":"universal-portal-ring-v1-mesh-05","extras":{"shape":"sphere","radius":0.095},"primitives":[{"attributes":{"POSITION":18,"COLOR_0":14,"NORMAL":19},"indices":12,"mode":4}]},{"name":"universal-portal-ring-v1-mesh-06","extras":{"shape":"sphere","radius":0.095},"primitives":[{"attributes":{"POSITION":20,"COLOR_0":14,"NORMAL":17},"indices":12,"mode":4}]},{"name":"universal-portal-ring-v1-mesh-07","extras":{"shape":"sphere","radius":0.095},"primitives":[{"attributes":{"POSITION":21,"COLOR_0":14,"NORMAL":22},"indices":12,"mode":4}]},{"name":"universal-portal-ring-v1-mesh-08","extras":{"shape":"sphere","radius":0.095},"primitives":[{"attributes":{"POSITION":23,"COLOR_0":14,"NORMAL":24},"indices":12,"mode":4}]},{"name":"universal-portal-ring-v1-mesh-09","extras":{"shape":"sphere","radius":0.095},"primitives":[{"attributes":{"POSITION":25,"COLOR_0":14,"NORMAL":26},"indices":12,"mode":4}]},{"name":"universal-portal-ring-v1-mesh-10","extras":{"shape":"sphere","radius":0.095},"primitives":[{"attributes":{"POSITION":27,"COLOR_0":14,"NORMAL":28},"indices":12,"mode":4}]},{"name":"universal-portal-ring-v1-mesh-11","extras":{"shape":"box","extents":[1.2,0.18,0.7]},"primitives":[{"attributes":{"POSITION":30,"COLOR_0":31,"NORMAL":32},"indices":29,"mode":4}]},{"name":"universal-portal-ring-v1-mesh-12","extras":{"shape":"box","extents":[0.7,0.08,0.4]},"primitives":[{"attributes":{"POSITION":33,"COLOR_0":34,"NORMAL":32},"indices":29,"mode":4}]}],"nodes":[{"name":"world","children":[1,2,3,4,5,6,7,8,9,10,11,12,13]},{"name":"universal-portal-ring-v1-00","mesh":0},{"name":"universal-portal-ring-v1-01","mesh":1},{"name":"universal-portal-ring-v1-02","mesh":2},{"name":"universal-portal-ring-v1-03","mesh":3},{"name":"universal-portal-ring-v1-04","mesh":4},{"name":"universal-portal-ring-v1-05","mesh":5},{"name":"universal-portal-ring-v1-06","mesh":6},{"name":"universal-portal-ring-v1-07","mesh":7},{"name":"universal-portal-ring-v1-08","mesh":8},{"name":"universal-portal-ring-v1-09","mesh":9},{"name":"universal-portal-ring-v1-10","mesh":10},{"name":"universal-portal-ring-v1-11","mesh":11},{"name":"universal-portal-ring-v1-12","mesh":12}],"buffers":[{"uri":"data:application/octet-stream;base64,","byteLength":128992}],"bufferViews":[{"buffer":0,"byteOffset":0,"byteLength":24576},{"buffer":0,"byteOffset":24576,"byteLength":12288},{"buffer":0,"byteOffset":36864,"byteLength":4096},{"buffer":0,"byteOffset":40960,"byteLength":12288},{"buffer":0,"byteOffset":53248,"byteLength":18432},{"buffer":0,"byteOffset":71680,"byteLength":9216},{"buffer":0,"byteOffset":80896,"byteLength":3072},{"buffer":0,"byteOffset":83968,"byteLength":9216},{"buffer":0,"byteOffset":93184,"byteLength":12288},{"buffer":0,"byteOffset":105472,"byteLength":6144},{"buffer":0,"byteOffset":111616,"byteLength":2048},{"buffer":0,"byteOffset":113664,"byteLength":6144},{"buffer":0,"byteOffset":119808,"byteLength":960},{"buffer":0,"byteOffset":120768,"byteLength":504},{"buffer":0,"byteOffset":121272,"byteLength":168},{"buffer":0,"byteOffset":121440,"byteLength":504},{"buffer":0,"byteOffset":121944,"byteLength":504},{"buffer":0,"byteOffset":122448,"byteLength":504},{"buffer":0,"byteOffset":122952,"byteLength":504},{"buffer":0,"byteOffset":123456,"byteLength":504},{"buffer":0,"byteOffset":123960,"byteLength":504},{"buffer":0,"byteOffset":124464,"byteLength":504},{"buffer":0,"byteOffset":124968,"byteLength":504},{"buffer":0,"byteOffset":125472,"byteLength":504},{"buffer":0,"byteOffset":125976,"byteLength":504},{"buffer":0,"byteOffset":126480,"byteLength":504},{"buffer":0,"byteOffset":126984,"byteLength":504},{"buffer":0,"byteOffset":127488,"byteLength":504},{"buffer":0,"byteOffset":127992,"byteLength":504},{"buffer":0,"byteOffset":128496,"byteLength":144},{"buffer":0,"byteOffset":128640,"byteLength":96},{"buffer":0,"byteOffset":128736,"byteLength":32},{"buffer":0,"byteOffset":128768,"byteLength":96},{"buffer":0,"byteOffset":128864,"byteLength":96},{"buffer":0,"byteOffset":128960,"byteLength":32}],"extras":{"uraiModelId":"universal-portal-ring-v1","productionClass":"modular-first-pass","generatedBy":"scripts/generate-real-spatial-models-v1.py","units":"meters"}}
