{"scene":0,"scenes":[{"nodes":[0]}],"asset":{"version":"2.0","generator":"URAI deterministic spatial model forge v1","copyright":"URAI Labs"},"accessors":[{"componentType":5125,"type":"SCALAR","bufferView":0,"count":36,"max":[7],"min":[0]},{"componentType":5126,"type":"VEC3","byteOffset":0,"bufferView":1,"count":8,"max":[4.5,-0.009999999776482582,3.5],"min":[-4.5,-0.1899999976158142,-3.5]},{"componentType":5121,"normalized":true,"type":"VEC4","byteOffset":0,"bufferView":2,"count":8,"max":[9,15,28,255],"min":[9,15,28,255]},{"componentType":5126,"count":8,"type":"VEC3","byteOffset":0,"bufferView":3,"max":[0.5773502588272095,0.5773502588272095,0.5773502588272095],"min":[-0.5773502588272095,-0.5773502588272095,-0.5773502588272095]},{"componentType":5126,"type":"VEC3","byteOffset":0,"bufferView":4,"count":8,"max":[4.5,3.4000000953674316,-3.309999942779541],"min":[-4.5,0.0,-3.490000009536743]},{"componentType":5121,"normalized":true,"type":"VEC4","byteOffset":0,"bufferView":5,"count":8,"max":[53,72,96,255],"min":[53,72,96,255]},{"componentType":5126,"type":"VEC3","byteOffset":0,"bufferView":6,"count":8,"max":[-4.309999942779541,3.4000000953674316,3.5],"min":[-4.489999771118164,0.0,-3.5]},{"componentType":5126,"type":"VEC3","byteOffset":0,"bufferView":7,"count":8,"max":[4.489999771118164,3.4000000953674316,3.5],"min":[4.309999942779541,0.0,-3.5]},{"componentType":5126,"type":"VEC3","byteOffset":0,"bufferView":8,"count":8,"max":[-2.9700000286102295,2.9000000953674316,-3.240000009536743],"min":[-3.0299999713897705,0.10000000149011612,-3.319999933242798]},{"componentType":5121,"normalized":true,"type":"VEC4","byteOffset":0,"bufferView":9,"count":8,"max":[90,244,255,255],"min":[90,244,255,255]},{"componentType":5126,"type":"VEC3","byteOffset":0,"bufferView":10,"count":8,"max":[-1.4700000286102295,2.9000000953674316,-3.240000009536743],"min":[-1.5299999713897705,0.10000000149011612,-3.319999933242798]},{"componentType":5126,"type":"VEC3","byteOffset":0,"bufferView":11,"count":8,"max":[0.029999999329447746,2.9000000953674316,-3.240000009536743],"min":[-0.029999999329447746,0.10000000149011612,-3.319999933242798]},{"componentType":5126,"type":"VEC3","byteOffset":0,"bufferView":12,"count":8,"max":[1.5299999713897705,2.9000000953674316,-3.240000009536743],"min":[1.4700000286102295,0.10000000149011612,-3.319999933242798]},{"componentType":5126,"type":"VEC3","byteOffset":0,"bufferView":13,"count":8,"max":[3.0299999713897705,2.9000000953674316,-3.240000009536743],"min":[2.9700000286102295,0.10000000149011612,-3.319999933242798]},{"componentType":5126,"type":"VEC3","byteOffset":0,"bufferView":14,"count":8,"max":[4.300000190734863,3.240000009536743,-2.359999895095825],"min":[-4.300000190734863,3.1600000858306885,-2.440000057220459]},{"componentType":5121,"normalized":true,"type":"VEC4","byteOffset":0,"bufferView":15,"count":8,"max":[69,178,255,255],"min":[69,178,255,255]},{"componentType":5126,"type":"VEC3","byteOffset":0,"bufferView":16,"count":8,"max":[4.300000190734863,3.240000009536743,0.03999999910593033],"min":[-4.300000190734863,3.1600000858306885,-0.03999999910593033]},{"componentType":5126,"type":"VEC3","byteOffset":0,"bufferView":17,"count":8,"max":[4.300000190734863,3.240000009536743,2.440000057220459],"min":[-4.300000190734863,3.1600000858306885,2.359999895095825]}],"meshes":[{"name":"ground-room-shell-v1-mesh-00","extras":{"shape":"box","extents":[9.0,0.18,7.0]},"primitives":[{"attributes":{"POSITION":1,"COLOR_0":2,"NORMAL":3},"indices":0,"mode":4}]},{"name":"ground-room-shell-v1-mesh-01","extras":{"shape":"box","extents":[9.0,3.4,0.18]},"primitives":[{"attributes":{"POSITION":4,"COLOR_0":5,"NORMAL":3},"indices":0,"mode":4}]},{"name":"ground-room-shell-v1-mesh-02","extras":{"shape":"box","extents":[0.18,3.4,7.0]},"primitives":[{"attributes":{"POSITION":6,"COLOR_0":5,"NORMAL":3},"indices":0,"mode":4}]},{"name":"ground-room-shell-v1-mesh-03","extras":{"shape":"box","extents":[0.18,3.4,7.0]},"primitives":[{"attributes":{"POSITION":7,"COLOR_0":5,"NORMAL":3},"indices":0,"mode":4}]},{"name":"ground-room-shell-v1-mesh-04","extras":{"shape":"box","extents":[0.06,2.8,0.08]},"primitives":[{"attributes":{"POSITION":8,"COLOR_0":9,"NORMAL":3},"indices":0,"mode":4}]},{"name":"ground-room-shell-v1-mesh-05","extras":{"shape":"box","extents":[0.06,2.8,0.08]},"primitives":[{"attributes":{"POSITION":10,"COLOR_0":9,"NORMAL":3},"indices":0,"mode":4}]},{"name":"ground-room-shell-v1-mesh-06","extras":{"shape":"box","extents":[0.06,2.8,0.08]},"primitives":[{"attributes":{"POSITION":11,"COLOR_0":9,"NORMAL":3},"indices":0,"mode":4}]},{"name":"ground-room-shell-v1-mesh-07","extras":{"shape":"box","extents":[0.06,2.8,0.08]},"primitives":[{"attributes":{"POSITION":12,"COLOR_0":9,"NORMAL":3},"indices":0,"mode":4}]},{"name":"ground-room-shell-v1-mesh-08","extras":{"shape":"box","extents":[0.06,2.8,0.08]},"primitives":[{"attributes":{"POSITION":13,"COLOR_0":9,"NORMAL":3},"indices":0,"mode":4}]},{"name":"ground-room-shell-v1-mesh-09","extras":{"shape":"box","extents":[8.6,0.08,0.08]},"primitives":[{"attributes":{"POSITION":14,"COLOR_0":15,"NORMAL":3},"indices":0,"mode":4}]},{"name":"ground-room-shell-v1-mesh-10","extras":{"shape":"box","extents":[8.6,0.08,0.08]},"primitives":[{"attributes":{"POSITION":16,"COLOR_0":15,"NORMAL":3},"indices":0,"mode":4}]},{"name":"ground-room-shell-v1-mesh-11","extras":{"shape":"box","extents":[8.6,0.08,0.08]},"primitives":[{"attributes":{"POSITION":17,"COLOR_0":15,"NORMAL":3},"indices":0,"mode":4}]}],"nodes":[{"name":"world","children":[1,2,3,4,5,6,7,8,9,10,11,12]},{"name":"ground-room-shell-v1-00","mesh":0},{"name":"ground-room-shell-v1-01","mesh":1},{"name":"ground-room-shell-v1-02","mesh":2},{"name":"ground-room-shell-v1-03","mesh":3},{"name":"ground-room-shell-v1-04","mesh":4},{"name":"ground-room-shell-v1-05","mesh":5},{"name":"ground-room-shell-v1-06","mesh":6},{"name":"ground-room-shell-v1-07","mesh":7},{"name":"ground-room-shell-v1-08","mesh":8},{"name":"ground-room-shell-v1-09","mesh":9},{"name":"ground-room-shell-v1-10","mesh":10},{"name":"ground-room-shell-v1-11","mesh":11}],"buffers":[{"uri":"data:application/octet-stream;base64,","byteLength":1520}],"bufferViews":[{"buffer":0,"byteOffset":0,"byteLength":144},{"buffer":0,"byteOffset":144,"byteLength":96},{"buffer":0,"byteOffset":240,"byteLength":32},{"buffer":0,"byteOffset":272,"byteLength":96},{"buffer":0,"byteOffset":368,"byteLength":96},{"buffer":0,"byteOffset":464,"byteLength":32},{"buffer":0,"byteOffset":496,"byteLength":96},{"buffer":0,"byteOffset":592,"byteLength":96},{"buffer":0,"byteOffset":688,"byteLength":96},{"buffer":0,"byteOffset":784,"byteLength":32},{"buffer":0,"byteOffset":816,"byteLength":96},{"buffer":0,"byteOffset":912,"byteLength":96},{"buffer":0,"byteOffset":1008,"byteLength":96},{"buffer":0,"byteOffset":1104,"byteLength":96},{"buffer":0,"byteOffset":1200,"byteLength":96},{"buffer":0,"byteOffset":1296,"byteLength":32},{"buffer":0,"byteOffset":1328,"byteLength":96},{"buffer":0,"byteOffset":1424,"byteLength":96}],"extras":{"uraiModelId":"ground-room-shell-v1","productionClass":"modular-first-pass","generatedBy":"scripts/generate-real-spatial-models-v1.py","units":"meters"}}
