{"scene":0,"scenes":[{"nodes":[0]}],"asset":{"version":"2.0","generator":"URAI deterministic spatial model forge v1","copyright":"URAI Labs"},"accessors":[{"componentType":5125,"type":"SCALAR","bufferView":0,"count":36,"max":[7],"min":[0]},{"componentType":5126,"type":"VEC3","byteOffset":0,"bufferView":1,"count":8,"max":[0.574999988079071,1.100000023841858,0.375],"min":[-0.574999988079071,0.0,-0.375]},{"componentType":5121,"normalized":true,"type":"VEC4","byteOffset":0,"bufferView":2,"count":8,"max":[9,15,28,255],"min":[9,15,28,255]},{"componentType":5126,"count":8,"type":"VEC3","byteOffset":0,"bufferView":3,"max":[0.5773502588272095,0.5773502588272095,0.5773502588272095],"min":[-0.5773502588272095,-0.5773502588272095,-0.5773502588272095]},{"componentType":5126,"type":"VEC3","byteOffset":0,"bufferView":4,"count":8,"max":[0.675000011920929,1.7599999904632568,-0.1899999976158142],"min":[-0.675000011920929,0.9399999976158142,-0.3100000023841858]},{"componentType":5121,"normalized":true,"type":"VEC4","byteOffset":0,"bufferView":5,"count":8,"max":[69,178,255,255],"min":[69,178,255,255]},{"componentType":5126,"type":"VEC3","byteOffset":0,"bufferView":6,"count":8,"max":[0.5699999928474426,1.659999966621399,-0.28999999165534973],"min":[-0.5699999928474426,1.0399999618530273,-0.3700000047683716]},{"componentType":5121,"normalized":true,"type":"VEC4","byteOffset":0,"bufferView":7,"count":8,"max":[90,244,255,255],"min":[90,244,255,255]},{"componentType":5126,"type":"VEC3","byteOffset":0,"bufferView":8,"count":8,"max":[0.44999998807907104,0.8949999809265137,0.6899999976158142],"min":[-0.44999998807907104,0.8050000071525574,0.20999999344348907]},{"componentType":5121,"normalized":true,"type":"VEC4","byteOffset":0,"bufferView":9,"count":8,"max":[53,72,96,255],"min":[53,72,96,255]},{"componentType":5125,"type":"SCALAR","bufferView":10,"count":240,"max":[41],"min":[0]},{"componentType":5126,"type":"VEC3","byteOffset":0,"bufferView":11,"count":42,"max":[-0.23999999463558197,0.9700000286102295,0.2800000011920929],"min":[-0.36000001430511475,0.8500000238418579,0.1599999964237213]},{"componentType":5121,"normalized":true,"type":"VEC4","byteOffset":0,"bufferView":12,"count":42,"max":[230,247,255,255],"min":[230,247,255,255]},{"componentType":5126,"count":42,"type":"VEC3","byteOffset":0,"bufferView":13,"max":[1.0,1.0,1.0],"min":[-1.0,-1.0,-1.0]},{"componentType":5126,"type":"VEC3","byteOffset":0,"bufferView":14,"count":42,"max":[0.05999999865889549,0.9700000286102295,0.2800000011920929],"min":[-0.05999999865889549,0.8500000238418579,0.1599999964237213]},{"componentType":5126,"type":"VEC3","byteOffset":0,"bufferView":15,"count":42,"max":[0.36000001430511475,0.9700000286102295,0.2800000011920929],"min":[0.23999999463558197,0.8500000238418579,0.1599999964237213]}],"meshes":[{"name":"ground-terminal-v1-mesh-00","extras":{"shape":"box","extents":[1.15,1.1,0.75]},"primitives":[{"attributes":{"POSITION":1,"COLOR_0":2,"NORMAL":3},"indices":0,"mode":4}]},{"name":"ground-terminal-v1-mesh-01","extras":{"shape":"box","extents":[1.35,0.82,0.12]},"primitives":[{"attributes":{"POSITION":4,"COLOR_0":5,"NORMAL":3},"indices":0,"mode":4}]},{"name":"ground-terminal-v1-mesh-02","extras":{"shape":"box","extents":[1.14,0.62,0.08]},"primitives":[{"attributes":{"POSITION":6,"COLOR_0":7,"NORMAL":3},"indices":0,"mode":4}]},{"name":"ground-terminal-v1-mesh-03","extras":{"shape":"box","extents":[0.9,0.09,0.48]},"primitives":[{"attributes":{"POSITION":8,"COLOR_0":9,"NORMAL":3},"indices":0,"mode":4}]},{"name":"ground-terminal-v1-mesh-04","extras":{"shape":"sphere","radius":0.06},"primitives":[{"attributes":{"POSITION":11,"COLOR_0":12,"NORMAL":13},"indices":10,"mode":4}]},{"name":"ground-terminal-v1-mesh-05","extras":{"shape":"sphere","radius":0.06},"primitives":[{"attributes":{"POSITION":14,"COLOR_0":12,"NORMAL":13},"indices":10,"mode":4}]},{"name":"ground-terminal-v1-mesh-06","extras":{"shape":"sphere","radius":0.06},"primitives":[{"attributes":{"POSITION":15,"COLOR_0":12,"NORMAL":13},"indices":10,"mode":4}]}],"nodes":[{"name":"world","children":[1,2,3,4,5,6,7]},{"name":"ground-terminal-v1-00","mesh":0},{"name":"ground-terminal-v1-01","mesh":1},{"name":"ground-terminal-v1-02","mesh":2},{"name":"ground-terminal-v1-03","mesh":3},{"name":"ground-terminal-v1-04","mesh":4},{"name":"ground-terminal-v1-05","mesh":5},{"name":"ground-terminal-v1-06","mesh":6}],"buffers":[{"uri":"data:application/octet-stream;base64,","byteLength":3896}],"bufferViews":[{"buffer":0,"byteOffset":0,"byteLength":144},{"buffer":0,"byteOffset":144,"byteLength":96},{"buffer":0,"byteOffset":240,"byteLength":32},{"buffer":0,"byteOffset":272,"byteLength":96},{"buffer":0,"byteOffset":368,"byteLength":96},{"buffer":0,"byteOffset":464,"byteLength":32},{"buffer":0,"byteOffset":496,"byteLength":96},{"buffer":0,"byteOffset":592,"byteLength":32},{"buffer":0,"byteOffset":624,"byteLength":96},{"buffer":0,"byteOffset":720,"byteLength":32},{"buffer":0,"byteOffset":752,"byteLength":960},{"buffer":0,"byteOffset":1712,"byteLength":504},{"buffer":0,"byteOffset":2216,"byteLength":168},{"buffer":0,"byteOffset":2384,"byteLength":504},{"buffer":0,"byteOffset":2888,"byteLength":504},{"buffer":0,"byteOffset":3392,"byteLength":504}],"extras":{"uraiModelId":"ground-terminal-v1","productionClass":"modular-first-pass","generatedBy":"scripts/generate-real-spatial-models-v1.py","units":"meters"}}
