<?xml version="1.0" encoding="UTF-8"?>
<svg width="1920" height="1080" viewBox="0 0 1920 1080" fill="none" xmlns="http://www.w3.org/2000/svg" role="img" aria-label="Passport Vault / passport-vault-mobile">
  <defs>
    <radialGradient id="core" cx="50%" cy="46%" r="64%">
      <stop offset="0%" stop-color="hsl(322, 88%, 76%)" stop-opacity="0.84"/>
      <stop offset="28%" stop-color="hsl(280, 74%, 46%)" stop-opacity="0.42"/>
      <stop offset="67%" stop-color="hsl(130, 68%, 18%)" stop-opacity="0.88"/>
      <stop offset="100%" stop-color="#03050A"/>
    </radialGradient>
    <linearGradient id="floor" x1="0" y1="0" x2="1" y2="1">
      <stop offset="0%" stop-color="rgba(255,255,255,0.28)"/>
      <stop offset="50%" stop-color="rgba(120,170,255,0.14)"/>
      <stop offset="100%" stop-color="rgba(255,255,255,0.04)"/>
    </linearGradient>
    <filter id="blur">
      <feGaussianBlur stdDeviation="18"/>
    </filter>
    <filter id="soft">
      <feGaussianBlur stdDeviation="2"/>
    </filter>
  </defs>

  <rect width="1920" height="1080" fill="url(#core)"/>
  <rect width="1920" height="1080" fill="#03050A" opacity="0.30"/>

  <g opacity="0.50" filter="url(#blur)">
    <ellipse cx="960" cy="540" rx="520" ry="220" fill="hsl(322, 90%, 70%)" opacity="0.24"/>
    <ellipse cx="820" cy="610" rx="620" ry="180" fill="hsl(130, 90%, 55%)" opacity="0.16"/>
    <ellipse cx="1120" cy="430" rx="380" ry="160" fill="hsl(280, 100%, 68%)" opacity="0.22"/>
  </g>

  <g opacity="0.55">
    <path d="M0 850 C330 740 520 915 825 804 C1100 704 1390 785 1920 642 L1920 1080 L0 1080 Z" fill="url(#floor)" opacity="0.30"/>
    <path d="M0 910 C420 790 680 1010 1000 870 C1300 738 1540 888 1920 760" stroke="rgba(255,255,255,0.30)" stroke-width="2"/>
  </g>

  <g opacity="0.78">
    <circle cx="1133" cy="342" r="5.2" fill="white" opacity="0.22"/>
<circle cx="176" cy="710" r="2.8" fill="white" opacity="0.34"/>
<circle cx="176" cy="166" r="5.2" fill="white" opacity="0.46"/>
<circle cx="1232" cy="646" r="1.4" fill="white" opacity="0.74"/>
<circle cx="1040" cy="358" r="3.8" fill="white" opacity="0.38"/>
<circle cx="112" cy="150" r="1.8" fill="white" opacity="0.30"/>
<circle cx="688" cy="70" r="3.6" fill="white" opacity="0.54"/>
<circle cx="1328" cy="326" r="5.0" fill="white" opacity="0.26"/>
<circle cx="880" cy="166" r="2.0" fill="white" opacity="0.26"/>
<circle cx="1392" cy="710" r="4.2" fill="white" opacity="0.66"/>
<circle cx="240" cy="406" r="2.2" fill="white" opacity="0.58"/>
<circle cx="272" cy="566" r="3.0" fill="white" opacity="0.66"/>
<circle cx="1616" cy="614" r="5.2" fill="white" opacity="0.70"/>
<circle cx="1616" cy="774" r="4.2" fill="white" opacity="0.66"/>
<circle cx="1392" cy="518" r="2.8" fill="white" opacity="0.58"/>
<circle cx="1488" cy="566" r="3.8" fill="white" opacity="0.74"/>
<circle cx="144" cy="326" r="4.6" fill="white" opacity="0.34"/>
<circle cx="336" cy="326" r="1.4" fill="white" opacity="0.38"/>
<circle cx="1616" cy="358" r="3.4" fill="white" opacity="0.34"/>
<circle cx="688" cy="406" r="2.4" fill="white" opacity="0.42"/>
<circle cx="1104" cy="470" r="4.4" fill="white" opacity="0.26"/>
<circle cx="1488" cy="118" r="3.6" fill="white" opacity="0.18"/>
<circle cx="432" cy="454" r="1.2" fill="white" opacity="0.54"/>
<circle cx="1808" cy="118" r="4.6" fill="white" opacity="0.22"/>
<circle cx="528" cy="230" r="1.2" fill="white" opacity="0.18"/>
<circle cx="432" cy="630" r="4.2" fill="white" opacity="0.30"/>
<circle cx="560" cy="438" r="4.8" fill="white" opacity="0.54"/>
<circle cx="624" cy="278" r="3.0" fill="white" opacity="0.66"/>
<circle cx="432" cy="150" r="1.4" fill="white" opacity="0.74"/>
<circle cx="432" cy="134" r="3.4" fill="white" opacity="0.22"/>
<circle cx="272" cy="438" r="4.2" fill="white" opacity="0.42"/>
<circle cx="1776" cy="414" r="4.8" fill="white" opacity="0.42"/>
<circle cx="1392" cy="646" r="5.2" fill="white" opacity="0.46"/>
<circle cx="688" cy="758" r="3.4" fill="white" opacity="0.46"/>
<circle cx="752" cy="214" r="3.6" fill="white" opacity="0.54"/>
<circle cx="240" cy="86" r="4.4" fill="white" opacity="0.26"/>
<circle cx="688" cy="774" r="2.2" fill="white" opacity="0.46"/>
<circle cx="1680" cy="390" r="1.4" fill="white" opacity="0.38"/>
<circle cx="912" cy="710" r="1.4" fill="white" opacity="0.62"/>
<circle cx="240" cy="166" r="3.0" fill="white" opacity="0.42"/>
<circle cx="1712" cy="358" r="5.2" fill="white" opacity="0.70"/>
<circle cx="464" cy="710" r="2.4" fill="white" opacity="0.42"/>
<circle cx="272" cy="406" r="3.6" fill="white" opacity="0.18"/>
<circle cx="1584" cy="662" r="5.0" fill="white" opacity="0.62"/>
<circle cx="1552" cy="294" r="4.0" fill="white" opacity="0.34"/>
<circle cx="1264" cy="342" r="5.0" fill="white" opacity="0.62"/>
<circle cx="1744" cy="358" r="4.4" fill="white" opacity="0.26"/>
<circle cx="1072" cy="582" r="3.0" fill="white" opacity="0.42"/>
<circle cx="1200" cy="358" r="4.8" fill="white" opacity="0.18"/>
<circle cx="464" cy="294" r="3.4" fill="white" opacity="0.46"/>
<circle cx="1680" cy="678" r="2.0" fill="white" opacity="0.26"/>
<circle cx="1360" cy="358" r="2.2" fill="white" opacity="0.46"/>

  </g>

  <g transform="translate(960 500)">
    <circle r="132" fill="rgba(255,255,255,0.06)" stroke="rgba(255,255,255,0.28)" stroke-width="1.5"/>
    <circle r="82" fill="rgba(255,255,255,0.10)" stroke="rgba(255,255,255,0.36)" stroke-width="1"/>
    <circle r="34" fill="hsl(322, 100%, 78%)" opacity="0.82"/>
    <circle r="168" fill="none" stroke="rgba(255,255,255,0.12)" stroke-width="1"/>
    <path d="M-260 120 C-120 20 120 20 260 120" stroke="rgba(255,255,255,0.23)" stroke-width="2" fill="none"/>
  </g>

  <g transform="translate(120 805)">
    <rect x="0" y="0" width="820" height="150" rx="28" fill="rgba(3,8,18,0.58)" stroke="rgba(255,255,255,0.18)"/>
    <text x="36" y="55" fill="rgba(255,255,255,0.92)" font-family="Inter, Arial, sans-serif" font-size="31" font-weight="700">Passport Vault</text>
    <text x="36" y="96" fill="rgba(255,255,255,0.70)" font-family="Inter, Arial, sans-serif" font-size="21">passport-vault-mobile</text>
    <text x="36" y="126" fill="rgba(255,255,255,0.50)" font-family="Inter, Arial, sans-serif" font-size="17">tier2 • passport • identity, consent, ownership, provenance, private-by-default</text>
  </g>

  <text x="1780" y="1012" text-anchor="end" fill="rgba(255,255,255,0.38)" font-family="Inter, Arial, sans-serif" font-size="18">URAI final asset spine fallback</text>
</svg>