<svg width="1080" height="1920" viewBox="0 0 1080 1920" xmlns="http://www.w3.org/2000/svg" role="img" aria-labelledby="title desc"><title id="title">URAI Life Map mobile final</title><desc id="desc">Mobile Life Map galaxy with depth rings, image stars, Focus door, and Replay door.</desc><defs><radialGradient id="bg" cx="50%" cy="34%" r="74%"><stop offset="0%" stop-color="#173b66"/><stop offset="48%" stop-color="#071126"/><stop offset="100%" stop-color="#000104"/></radialGradient><radialGradient id="s" cx="35%" cy="25%" r="70%"><stop offset="0%" stop-color="#fff"/><stop offset="38%" stop-color="#ffe8b5"/><stop offset="70%" stop-color="#7df7ff"/><stop offset="100%" stop-color="#7c3aed" stop-opacity=".28"/></radialGradient><linearGradient id="p" x1="0" y1="0" x2="1" y2="1"><stop offset="0%" stop-color="#fff0c2"/><stop offset="54%" stop-color="#8ff6ff"/><stop offset="100%" stop-color="#c4b5fd"/></linearGradient></defs><rect width="1080" height="1920" fill="url(#bg)"/><g fill="none" opacity=".55"><ellipse cx="540" cy="850" rx="465" ry="160" stroke="#8ff6ff" stroke-width="2" opacity=".24"/><ellipse cx="540" cy="850" rx="365" ry="120" stroke="#c4b5fd" stroke-width="2" opacity=".26"/><ellipse cx="540" cy="850" rx="255" ry="82" stroke="#ffe8b5" stroke-width="2" opacity=".2"/></g><g fill="#fff" opacity=".75"><circle cx="120" cy="155" r="2"/><circle cx="820" cy="120" r="2.5"/><circle cx="940" cy="385" r="2"/><circle cx="170" cy="1450" r="2"/><circle cx="900" cy="1370" r="2.5"/></g><g font-family="Inter,Arial,sans-serif" font-weight="900"><text x="72" y="142" font-size="28" letter-spacing="6" fill="#8ff6ff">URAI LIFE MAP</text><text x="72" y="218" font-size="68" fill="#fff">34 stars awake.</text><text x="72" y="276" font-size="24" fill="#ffe8b5">image stars · depth rings · camera orbit</text><g transform="translate(540 725)"><circle r="92" fill="url(#s)"/><circle r="58" fill="url(#p)" opacity=".86"/><text y="164" text-anchor="middle" font-size="22" letter-spacing="4" fill="#8ff6ff">QUIET RESET</text></g><g transform="translate(760 1030)"><circle r="58" fill="url(#s)"/><circle r="38" fill="url(#p)" opacity=".82"/></g><g transform="translate(300 1050)"><circle r="52" fill="url(#s)"/><circle r="34" fill="url(#p)" opacity=".82"/></g><path d="M210 890 L540 725 L760 1030 L300 1050 L210 890" stroke="#8ff6ff" stroke-width="2" opacity=".3" fill="none"/><rect x="90" y="1345" width="900" height="180" rx="54" fill="#07121e" stroke="#8ff6ff" stroke-width="3" opacity=".88"/><text x="138" y="1416" font-size="22" letter-spacing="5" fill="#8ff6ff">FOCUS DOOR</text><text x="138" y="1478" font-size="48" fill="#fff">Enter chamber</text><rect x="90" y="1580" width="900" height="180" rx="54" fill="#07121e" stroke="#ffe8b5" stroke-width="3" opacity=".88"/><text x="138" y="1651" font-size="22" letter-spacing="5" fill="#ffe8b5">REPLAY DOOR</text><text x="138" y="1713" font-size="48" fill="#fff">Play memory</text></g></svg>