{"scene":0,"scenes":[{"nodes":[0]}],"asset":{"version":"2.0","generator":"URAI deterministic spatial model forge v1","copyright":"URAI Labs"},"accessors":[{"componentType":5125,"type":"SCALAR","bufferView":0,"count":36,"max":[7],"min":[0]},{"componentType":5126,"type":"VEC3","byteOffset":0,"bufferView":1,"count":8,"max":[1.399999976158142,1.9249999523162842,0.09000000357627869],"min":[-1.399999976158142,0.2750000059604645,-0.09000000357627869]},{"componentType":5121,"normalized":true,"type":"VEC4","byteOffset":0,"bufferView":2,"count":8,"max":[9,15,28,255],"min":[9,15,28,255]},{"componentType":5126,"count":8,"type":"VEC3","byteOffset":0,"bufferView":3,"max":[0.5773502588272095,0.5773502588272095,0.5773502588272095],"min":[-0.5773502588272095,-0.5773502588272095,-0.5773502588272095]},{"componentType":5126,"type":"VEC3","byteOffset":0,"bufferView":4,"count":8,"max":[1.274999976158142,1.7999999523162842,-0.09000000357627869],"min":[-1.274999976158142,0.4000000059604645,-0.17000000178813934]},{"componentType":5121,"normalized":true,"type":"VEC4","byteOffset":0,"bufferView":5,"count":8,"max":[69,178,255,255],"min":[69,178,255,255]},{"componentType":5126,"type":"VEC3","byteOffset":0,"bufferView":6,"count":8,"max":[0.44999998807907104,0.3100000023841858,0.42500001192092896],"min":[-0.44999998807907104,0.09000000357627869,-0.125]},{"componentType":5121,"normalized":true,"type":"VEC4","byteOffset":0,"bufferView":7,"count":8,"max":[53,72,96,255],"min":[53,72,96,255]},{"componentType":5125,"type":"SCALAR","bufferView":8,"count":240,"max":[41],"min":[0]},{"componentType":5126,"type":"VEC3","byteOffset":0,"bufferView":9,"count":42,"max":[-0.875,0.7250000238418579,-0.125],"min":[-1.024999976158142,0.574999988079071,-0.2750000059604645]},{"componentType":5121,"normalized":true,"type":"VEC4","byteOffset":0,"bufferView":10,"count":42,"max":[230,247,255,255],"min":[230,247,255,255]},{"componentType":5126,"count":42,"type":"VEC3","byteOffset":0,"bufferView":11,"max":[1.0,1.0,1.0],"min":[-1.0,-1.0,-1.0]},{"componentType":5126,"type":"VEC3","byteOffset":0,"bufferView":12,"count":42,"max":[-0.39500001072883606,0.7250000238418579,-0.125],"min":[-0.5450000166893005,0.574999988079071,-0.2750000059604645]},{"componentType":5121,"normalized":true,"type":"VEC4","byteOffset":0,"bufferView":13,"count":42,"max":[90,244,255,255],"min":[90,244,255,255]},{"componentType":5126,"count":42,"type":"VEC3","byteOffset":0,"bufferView":14,"max":[1.0,1.0,1.0],"min":[-1.0,-1.0,-1.0]},{"componentType":5126,"type":"VEC3","byteOffset":0,"bufferView":15,"count":42,"max":[0.08500000089406967,0.7250000238418579,-0.125],"min":[-0.06499999761581421,0.574999988079071,-0.2750000059604645]},{"componentType":5126,"count":42,"type":"VEC3","byteOffset":0,"bufferView":16,"max":[1.0,1.0,1.0],"min":[-1.0,-1.0,-1.0]},{"componentType":5126,"type":"VEC3","byteOffset":0,"bufferView":17,"count":42,"max":[0.5649999976158142,0.7250000238418579,-0.125],"min":[0.41499999165534973,0.574999988079071,-0.2750000059604645]},{"componentType":5126,"count":42,"type":"VEC3","byteOffset":0,"bufferView":18,"max":[1.0,1.0,1.0],"min":[-1.0,-1.0,-1.0]},{"componentType":5126,"type":"VEC3","byteOffset":0,"bufferView":19,"count":42,"max":[1.0449999570846558,0.7250000238418579,-0.125],"min":[0.8949999809265137,0.574999988079071,-0.2750000059604645]},{"componentType":5126,"count":42,"type":"VEC3","byteOffset":0,"bufferView":20,"max":[1.0,1.0,1.0],"min":[-1.0,-1.0,-1.0]},{"componentType":5126,"type":"VEC3","byteOffset":0,"bufferView":21,"count":42,"max":[-0.875,1.1050000190734863,-0.125],"min":[-1.024999976158142,0.9549999833106995,-0.2750000059604645]},{"componentType":5126,"count":42,"type":"VEC3","byteOffset":0,"bufferView":22,"max":[1.0,1.0,1.0],"min":[-1.0,-1.0,-1.0]},{"componentType":5126,"type":"VEC3","byteOffset":0,"bufferView":23,"count":42,"max":[-0.39500001072883606,1.1050000190734863,-0.125],"min":[-0.5450000166893005,0.9549999833106995,-0.2750000059604645]},{"componentType":5126,"count":42,"type":"VEC3","byteOffset":0,"bufferView":24,"max":[1.0,1.0,1.0],"min":[-1.0,-1.0,-1.0]},{"componentType":5126,"type":"VEC3","byteOffset":0,"bufferView":25,"count":42,"max":[0.08500000089406967,1.1050000190734863,-0.125],"min":[-0.06499999761581421,0.9549999833106995,-0.2750000059604645]},{"componentType":5126,"count":42,"type":"VEC3","byteOffset":0,"bufferView":26,"max":[1.0,1.0,1.0],"min":[-1.0,-1.0,-1.0]},{"componentType":5126,"type":"VEC3","byteOffset":0,"bufferView":27,"count":42,"max":[0.5649999976158142,1.1050000190734863,-0.125],"min":[0.41499999165534973,0.9549999833106995,-0.2750000059604645]},{"componentType":5126,"count":42,"type":"VEC3","byteOffset":0,"bufferView":28,"max":[1.0,1.0,1.0],"min":[-1.0,-1.0,-1.0]},{"componentType":5126,"type":"VEC3","byteOffset":0,"bufferView":29,"count":42,"max":[1.0449999570846558,1.1050000190734863,-0.125],"min":[0.8949999809265137,0.9549999833106995,-0.2750000059604645]},{"componentType":5126,"count":42,"type":"VEC3","byteOffset":0,"bufferView":30,"max":[1.0,1.0,1.0],"min":[-1.0,-1.0,-1.0]},{"componentType":5126,"type":"VEC3","byteOffset":0,"bufferView":31,"count":42,"max":[-0.875,1.4850000143051147,-0.125],"min":[-1.024999976158142,1.3350000381469727,-0.2750000059604645]},{"componentType":5126,"count":42,"type":"VEC3","byteOffset":0,"bufferView":32,"max":[1.0,1.0,1.0],"min":[-1.0,-1.0,-1.0]},{"componentType":5126,"type":"VEC3","byteOffset":0,"bufferView":33,"count":42,"max":[-0.39500001072883606,1.4850000143051147,-0.125],"min":[-0.5450000166893005,1.3350000381469727,-0.2750000059604645]},{"componentType":5126,"count":42,"type":"VEC3","byteOffset":0,"bufferView":34,"max":[1.0,1.0,1.0],"min":[-1.0,-1.0,-1.0]},{"componentType":5126,"type":"VEC3","byteOffset":0,"bufferView":35,"count":42,"max":[0.08500000089406967,1.4850000143051147,-0.125],"min":[-0.06499999761581421,1.3350000381469727,-0.2750000059604645]},{"componentType":5126,"count":42,"type":"VEC3","byteOffset":0,"bufferView":36,"max":[1.0,1.0,1.0],"min":[-1.0,-1.0,-1.0]},{"componentType":5126,"type":"VEC3","byteOffset":0,"bufferView":37,"count":42,"max":[0.5649999976158142,1.4850000143051147,-0.125],"min":[0.41499999165534973,1.3350000381469727,-0.2750000059604645]},{"componentType":5126,"count":42,"type":"VEC3","byteOffset":0,"bufferView":38,"max":[1.0,1.0,1.0],"min":[-1.0,-1.0,-1.0]},{"componentType":5126,"type":"VEC3","byteOffset":0,"bufferView":39,"count":42,"max":[1.0449999570846558,1.4850000143051147,-0.125],"min":[0.8949999809265137,1.3350000381469727,-0.2750000059604645]},{"componentType":5126,"count":42,"type":"VEC3","byteOffset":0,"bufferView":40,"max":[1.0,1.0,1.0],"min":[-1.0,-1.0,-1.0]},{"componentType":5126,"type":"VEC3","byteOffset":0,"bufferView":41,"count":8,"max":[1.2100000381469727,1.5499999523162842,-0.12999999523162842],"min":[1.090000033378601,0.6499999761581421,-0.25]},{"componentType":5121,"normalized":true,"type":"VEC4","byteOffset":0,"bufferView":42,"count":8,"max":[154,102,255,255],"min":[154,102,255,255]},{"componentType":5126,"type":"VEC3","byteOffset":0,"bufferView":43,"count":42,"max":[1.2699999809265137,1.7400000095367432,-0.07000000029802322],"min":[1.0299999713897705,1.5,-0.3100000023841858]},{"componentType":5121,"normalized":true,"type":"VEC4","byteOffset":0,"bufferView":44,"count":42,"max":[255,199,84,255],"min":[255,199,84,255]},{"componentType":5126,"count":42,"type":"VEC3","byteOffset":0,"bufferView":45,"max":[1.0,1.0,1.0],"min":[-1.0,-1.0,-1.0]}],"meshes":[{"name":"status-control-board-v1-mesh-00","extras":{"shape":"box","extents":[2.8,1.65,0.18]},"primitives":[{"attributes":{"POSITION":1,"COLOR_0":2,"NORMAL":3},"indices":0,"mode":4}]},{"name":"status-control-board-v1-mesh-01","extras":{"shape":"box","extents":[2.55,1.4,0.08]},"primitives":[{"attributes":{"POSITION":4,"COLOR_0":5,"NORMAL":3},"indices":0,"mode":4}]},{"name":"status-control-board-v1-mesh-02","extras":{"shape":"box","extents":[0.9,0.22,0.55]},"primitives":[{"attributes":{"POSITION":6,"COLOR_0":7,"NORMAL":3},"indices":0,"mode":4}]},{"name":"status-control-board-v1-mesh-03","extras":{"shape":"sphere","radius":0.075},"primitives":[{"attributes":{"POSITION":9,"COLOR_0":10,"NORMAL":11},"indices":8,"mode":4}]},{"name":"status-control-board-v1-mesh-04","extras":{"shape":"sphere","radius":0.075},"primitives":[{"attributes":{"POSITION":12,"COLOR_0":13,"NORMAL":14},"indices":8,"mode":4}]},{"name":"status-control-board-v1-mesh-05","extras":{"shape":"sphere","radius":0.075},"primitives":[{"attributes":{"POSITION":15,"COLOR_0":10,"NORMAL":16},"indices":8,"mode":4}]},{"name":"status-control-board-v1-mesh-06","extras":{"shape":"sphere","radius":0.075},"primitives":[{"attributes":{"POSITION":17,"COLOR_0":13,"NORMAL":18},"indices":8,"mode":4}]},{"name":"status-control-board-v1-mesh-07","extras":{"shape":"sphere","radius":0.075},"primitives":[{"attributes":{"POSITION":19,"COLOR_0":10,"NORMAL":20},"indices":8,"mode":4}]},{"name":"status-control-board-v1-mesh-08","extras":{"shape":"sphere","radius":0.075},"primitives":[{"attributes":{"POSITION":21,"COLOR_0":13,"NORMAL":22},"indices":8,"mode":4}]},{"name":"status-control-board-v1-mesh-09","extras":{"shape":"sphere","radius":0.075},"primitives":[{"attributes":{"POSITION":23,"COLOR_0":10,"NORMAL":24},"indices":8,"mode":4}]},{"name":"status-control-board-v1-mesh-10","extras":{"shape":"sphere","radius":0.075},"primitives":[{"attributes":{"POSITION":25,"COLOR_0":13,"NORMAL":26},"indices":8,"mode":4}]},{"name":"status-control-board-v1-mesh-11","extras":{"shape":"sphere","radius":0.075},"primitives":[{"attributes":{"POSITION":27,"COLOR_0":10,"NORMAL":28},"indices":8,"mode":4}]},{"name":"status-control-board-v1-mesh-12","extras":{"shape":"sphere","radius":0.075},"primitives":[{"attributes":{"POSITION":29,"COLOR_0":13,"NORMAL":30},"indices":8,"mode":4}]},{"name":"status-control-board-v1-mesh-13","extras":{"shape":"sphere","radius":0.075},"primitives":[{"attributes":{"POSITION":31,"COLOR_0":10,"NORMAL":32},"indices":8,"mode":4}]},{"name":"status-control-board-v1-mesh-14","extras":{"shape":"sphere","radius":0.075},"primitives":[{"attributes":{"POSITION":33,"COLOR_0":13,"NORMAL":34},"indices":8,"mode":4}]},{"name":"status-control-board-v1-mesh-15","extras":{"shape":"sphere","radius":0.075},"primitives":[{"attributes":{"POSITION":35,"COLOR_0":10,"NORMAL":36},"indices":8,"mode":4}]},{"name":"status-control-board-v1-mesh-16","extras":{"shape":"sphere","radius":0.075},"primitives":[{"attributes":{"POSITION":37,"COLOR_0":13,"NORMAL":38},"indices":8,"mode":4}]},{"name":"status-control-board-v1-mesh-17","extras":{"shape":"sphere","radius":0.075},"primitives":[{"attributes":{"POSITION":39,"COLOR_0":10,"NORMAL":40},"indices":8,"mode":4}]},{"name":"status-control-board-v1-mesh-18","extras":{"shape":"box","extents":[0.12,0.9,0.12]},"primitives":[{"attributes":{"POSITION":41,"COLOR_0":42,"NORMAL":3},"indices":0,"mode":4}]},{"name":"status-control-board-v1-mesh-19","extras":{"shape":"sphere","radius":0.12},"primitives":[{"attributes":{"POSITION":43,"COLOR_0":44,"NORMAL":45},"indices":8,"mode":4}]}],"nodes":[{"name":"world","children":[1,2,3,4,5,6,7,8,9,10,11,12,13,14,15,16,17,18,19,20]},{"name":"status-control-board-v1-00","mesh":0},{"name":"status-control-board-v1-01","mesh":1},{"name":"status-control-board-v1-02","mesh":2},{"name":"status-control-board-v1-03","mesh":3},{"name":"status-control-board-v1-04","mesh":4},{"name":"status-control-board-v1-05","mesh":5},{"name":"status-control-board-v1-06","mesh":6},{"name":"status-control-board-v1-07","mesh":7},{"name":"status-control-board-v1-08","mesh":8},{"name":"status-control-board-v1-09","mesh":9},{"name":"status-control-board-v1-10","mesh":10},{"name":"status-control-board-v1-11","mesh":11},{"name":"status-control-board-v1-12","mesh":12},{"name":"status-control-board-v1-13","mesh":13},{"name":"status-control-board-v1-14","mesh":14},{"name":"status-control-board-v1-15","mesh":15},{"name":"status-control-board-v1-16","mesh":16},{"name":"status-control-board-v1-17","mesh":17},{"name":"status-control-board-v1-18","mesh":18},{"name":"status-control-board-v1-19","mesh":19}],"buffers":[{"uri":"data:application/octet-stream;base64,","byteLength":18344}],"bufferViews":[{"buffer":0,"byteOffset":0,"byteLength":144},{"buffer":0,"byteOffset":144,"byteLength":96},{"buffer":0,"byteOffset":240,"byteLength":32},{"buffer":0,"byteOffset":272,"byteLength":96},{"buffer":0,"byteOffset":368,"byteLength":96},{"buffer":0,"byteOffset":464,"byteLength":32},{"buffer":0,"byteOffset":496,"byteLength":96},{"buffer":0,"byteOffset":592,"byteLength":32},{"buffer":0,"byteOffset":624,"byteLength":960},{"buffer":0,"byteOffset":1584,"byteLength":504},{"buffer":0,"byteOffset":2088,"byteLength":168},{"buffer":0,"byteOffset":2256,"byteLength":504},{"buffer":0,"byteOffset":2760,"byteLength":504},{"buffer":0,"byteOffset":3264,"byteLength":168},{"buffer":0,"byteOffset":3432,"byteLength":504},{"buffer":0,"byteOffset":3936,"byteLength":504},{"buffer":0,"byteOffset":4440,"byteLength":504},{"buffer":0,"byteOffset":4944,"byteLength":504},{"buffer":0,"byteOffset":5448,"byteLength":504},{"buffer":0,"byteOffset":5952,"byteLength":504},{"buffer":0,"byteOffset":6456,"byteLength":504},{"buffer":0,"byteOffset":6960,"byteLength":504},{"buffer":0,"byteOffset":7464,"byteLength":504},{"buffer":0,"byteOffset":7968,"byteLength":504},{"buffer":0,"byteOffset":8472,"byteLength":504},{"buffer":0,"byteOffset":8976,"byteLength":504},{"buffer":0,"byteOffset":9480,"byteLength":504},{"buffer":0,"byteOffset":9984,"byteLength":504},{"buffer":0,"byteOffset":10488,"byteLength":504},{"buffer":0,"byteOffset":10992,"byteLength":504},{"buffer":0,"byteOffset":11496,"byteLength":504},{"buffer":0,"byteOffset":12000,"byteLength":504},{"buffer":0,"byteOffset":12504,"byteLength":504},{"buffer":0,"byteOffset":13008,"byteLength":504},{"buffer":0,"byteOffset":13512,"byteLength":504},{"buffer":0,"byteOffset":14016,"byteLength":504},{"buffer":0,"byteOffset":14520,"byteLength":504},{"buffer":0,"byteOffset":15024,"byteLength":504},{"buffer":0,"byteOffset":15528,"byteLength":504},{"buffer":0,"byteOffset":16032,"byteLength":504},{"buffer":0,"byteOffset":16536,"byteLength":504},{"buffer":0,"byteOffset":17040,"byteLength":96},{"buffer":0,"byteOffset":17136,"byteLength":32},{"buffer":0,"byteOffset":17168,"byteLength":504},{"buffer":0,"byteOffset":17672,"byteLength":168},{"buffer":0,"byteOffset":17840,"byteLength":504}],"extras":{"uraiModelId":"status-control-board-v1","productionClass":"modular-first-pass","generatedBy":"scripts/generate-real-spatial-models-v1.py","units":"meters"}}
