{"scene":0,"scenes":[{"nodes":[0]}],"asset":{"version":"2.0","generator":"URAI deterministic spatial model forge v1","copyright":"URAI Labs"},"accessors":[{"componentType":5125,"type":"SCALAR","bufferView":0,"count":3840,"max":[641],"min":[0]},{"componentType":5126,"type":"VEC3","byteOffset":0,"bufferView":1,"count":642,"max":[0.7200000286102295,0.7200000286102295,0.7200000286102295],"min":[-0.7200000286102295,-0.7200000286102295,-0.7200000286102295]},{"componentType":5121,"normalized":true,"type":"VEC4","byteOffset":0,"bufferView":2,"count":642,"max":[110,210,255,170],"min":[110,210,255,170]},{"componentType":5126,"count":642,"type":"VEC3","byteOffset":0,"bufferView":3,"max":[1.0,1.0,1.0],"min":[-1.0,-1.0,-1.0]},{"componentType":5125,"type":"SCALAR","bufferView":4,"count":960,"max":[161],"min":[0]},{"componentType":5126,"type":"VEC3","byteOffset":0,"bufferView":5,"count":162,"max":[0.3100000023841858,0.3100000023841858,0.3100000023841858],"min":[-0.3100000023841858,-0.3100000023841858,-0.3100000023841858]},{"componentType":5121,"normalized":true,"type":"VEC4","byteOffset":0,"bufferView":6,"count":162,"max":[230,247,255,255],"min":[230,247,255,255]},{"componentType":5126,"count":162,"type":"VEC3","byteOffset":0,"bufferView":7,"max":[1.0,1.0,1.0],"min":[-1.0,-1.0,-1.0]},{"componentType":5125,"type":"SCALAR","bufferView":8,"count":3840,"max":[639],"min":[0]},{"componentType":5126,"type":"VEC3","byteOffset":0,"bufferView":9,"count":640,"max":[0.8149999976158142,0.8149999976158142,0.03328697755932808],"min":[-0.8149999976158142,-0.8149999976158142,-0.03328697755932808]},{"componentType":5121,"normalized":true,"type":"VEC4","byteOffset":0,"bufferView":10,"count":640,"max":[90,244,255,255],"min":[90,244,255,255]},{"componentType":5126,"count":640,"type":"VEC3","byteOffset":0,"bufferView":11,"max":[1.0,1.0,0.9538663029670715],"min":[-1.0,-1.0,-0.9538663029670715]},{"componentType":5125,"type":"SCALAR","bufferView":12,"count":3072,"max":[511],"min":[0]},{"componentType":5126,"type":"VEC3","byteOffset":0,"bufferView":13,"count":512,"max":[0.6449999809265137,0.02500000037252903,0.6449999809265137],"min":[-0.6449999809265137,-0.02500000037252903,-0.6449999809265137]},{"componentType":5121,"normalized":true,"type":"VEC4","byteOffset":0,"bufferView":14,"count":512,"max":[154,102,255,255],"min":[154,102,255,255]},{"componentType":5126,"count":512,"type":"VEC3","byteOffset":0,"bufferView":15,"max":[1.0,0.9999285340309143,1.0],"min":[-1.0,-0.9999285340309143,-1.0]},{"componentType":5126,"type":"VEC3","byteOffset":0,"bufferView":16,"count":512,"max":[0.550000011920929,0.550000011920929,0.019999999552965164],"min":[-0.550000011920929,-0.550000011920929,-0.019999999552965164]},{"componentType":5121,"normalized":true,"type":"VEC4","byteOffset":0,"bufferView":17,"count":512,"max":[69,178,255,255],"min":[69,178,255,255]},{"componentType":5126,"count":512,"type":"VEC3","byteOffset":0,"bufferView":18,"max":[1.0,1.0,0.9999285340309143],"min":[-1.0,-1.0,-0.9999285340309143]},{"componentType":5125,"type":"SCALAR","bufferView":19,"count":240,"max":[41],"min":[0]},{"componentType":5126,"type":"VEC3","byteOffset":0,"bufferView":20,"count":42,"max":[0.054999999701976776,-0.32499998807907104,0.054999999701976776],"min":[-0.054999999701976776,-0.4350000023841858,-0.054999999701976776]},{"componentType":5121,"normalized":true,"type":"VEC4","byteOffset":0,"bufferView":21,"count":42,"max":[255,199,84,255],"min":[255,199,84,255]},{"componentType":5126,"count":42,"type":"VEC3","byteOffset":0,"bufferView":22,"max":[1.0,1.0,1.0],"min":[-1.0,-1.0,-1.0]},{"componentType":5126,"type":"VEC3","byteOffset":0,"bufferView":23,"count":42,"max":[0.054999999701976776,0.4350000023841858,0.054999999701976776],"min":[-0.054999999701976776,0.32499998807907104,-0.054999999701976776]}],"meshes":[{"name":"central-orb-v1-mesh-00","extras":{"shape":"sphere","radius":0.72},"primitives":[{"attributes":{"POSITION":1,"COLOR_0":2,"NORMAL":3},"indices":0,"mode":4}]},{"name":"central-orb-v1-mesh-01","extras":{"shape":"sphere","radius":0.31},"primitives":[{"attributes":{"POSITION":5,"COLOR_0":6,"NORMAL":7},"indices":4,"mode":4}]},{"name":"central-orb-v1-mesh-02","extras":{"shape":"torus","major_radius":0.78,"minor_radius":0.035,"processed":true},"primitives":[{"attributes":{"POSITION":9,"COLOR_0":10,"NORMAL":11},"indices":8,"mode":4}]},{"name":"central-orb-v1-mesh-03","extras":{"shape":"torus","major_radius":0.62,"minor_radius":0.025,"processed":true},"primitives":[{"attributes":{"POSITION":13,"COLOR_0":14,"NORMAL":15},"indices":12,"mode":4}]},{"name":"central-orb-v1-mesh-04","extras":{"shape":"torus","major_radius":0.53,"minor_radius":0.02,"processed":true},"primitives":[{"attributes":{"POSITION":16,"COLOR_0":17,"NORMAL":18},"indices":12,"mode":4}]},{"name":"central-orb-v1-mesh-05","extras":{"shape":"sphere","radius":0.055},"primitives":[{"attributes":{"POSITION":20,"COLOR_0":21,"NORMAL":22},"indices":19,"mode":4}]},{"name":"central-orb-v1-mesh-06","extras":{"shape":"sphere","radius":0.055},"primitives":[{"attributes":{"POSITION":23,"COLOR_0":21,"NORMAL":22},"indices":19,"mode":4}]}],"nodes":[{"name":"world","children":[1,2,3,4,5,6,7]},{"name":"central-orb-v1-00","mesh":0},{"name":"central-orb-v1-01","mesh":1},{"name":"central-orb-v1-02","mesh":2},{"name":"central-orb-v1-03","mesh":3},{"name":"central-orb-v1-04","mesh":4},{"name":"central-orb-v1-05","mesh":5},{"name":"central-orb-v1-06","mesh":6}],"buffers":[{"uri":"data:application/octet-stream;base64,","byteLength":118592}],"bufferViews":[{"buffer":0,"byteOffset":0,"byteLength":15360},{"buffer":0,"byteOffset":15360,"byteLength":7704},{"buffer":0,"byteOffset":23064,"byteLength":2568},{"buffer":0,"byteOffset":25632,"byteLength":7704},{"buffer":0,"byteOffset":33336,"byteLength":3840},{"buffer":0,"byteOffset":37176,"byteLength":1944},{"buffer":0,"byteOffset":39120,"byteLength":648},{"buffer":0,"byteOffset":39768,"byteLength":1944},{"buffer":0,"byteOffset":41712,"byteLength":15360},{"buffer":0,"byteOffset":57072,"byteLength":7680},{"buffer":0,"byteOffset":64752,"byteLength":2560},{"buffer":0,"byteOffset":67312,"byteLength":7680},{"buffer":0,"byteOffset":74992,"byteLength":12288},{"buffer":0,"byteOffset":87280,"byteLength":6144},{"buffer":0,"byteOffset":93424,"byteLength":2048},{"buffer":0,"byteOffset":95472,"byteLength":6144},{"buffer":0,"byteOffset":101616,"byteLength":6144},{"buffer":0,"byteOffset":107760,"byteLength":2048},{"buffer":0,"byteOffset":109808,"byteLength":6144},{"buffer":0,"byteOffset":115952,"byteLength":960},{"buffer":0,"byteOffset":116912,"byteLength":504},{"buffer":0,"byteOffset":117416,"byteLength":168},{"buffer":0,"byteOffset":117584,"byteLength":504},{"buffer":0,"byteOffset":118088,"byteLength":504}],"extras":{"uraiModelId":"central-orb-v1","productionClass":"modular-first-pass","generatedBy":"scripts/generate-real-spatial-models-v1.py","units":"meters"}}
