{"scene":0,"scenes":[{"nodes":[0]}],"asset":{"version":"2.0","generator":"URAI deterministic spatial model forge v1","copyright":"URAI Labs"},"accessors":[{"componentType":5125,"type":"SCALAR","bufferView":0,"count":768,"max":[129],"min":[0]},{"componentType":5126,"type":"VEC3","byteOffset":0,"bufferView":1,"count":130,"max":[4.599999904632568,4.480000019073486,0.09000000357627869],"min":[-4.599999904632568,-4.71999979019165,-0.09000000357627869]},{"componentType":5121,"normalized":true,"type":"VEC4","byteOffset":0,"bufferView":2,"count":130,"max":[9,15,28,255],"min":[9,15,28,255]},{"componentType":5126,"count":130,"type":"VEC3","byteOffset":0,"bufferView":3,"max":[0.7178210020065308,0.7178210020065308,1.0],"min":[-0.7178210020065308,-0.7178210020065308,-1.0]},{"componentType":5125,"type":"SCALAR","bufferView":4,"count":4608,"max":[767],"min":[0]},{"componentType":5126,"type":"VEC3","byteOffset":0,"bufferView":5,"count":768,"max":[4.360000133514404,4.380000114440918,0.10999999940395355],"min":[-4.360000133514404,-4.340000152587891,-0.10999999940395355]},{"componentType":5121,"normalized":true,"type":"VEC4","byteOffset":0,"bufferView":6,"count":768,"max":[69,178,255,255],"min":[69,178,255,255]},{"componentType":5126,"count":768,"type":"VEC3","byteOffset":0,"bufferView":7,"max":[1.0,1.0,0.9999672770500183],"min":[-1.0,-1.0,-0.9999672770500183]},{"componentType":5125,"type":"SCALAR","bufferView":8,"count":3840,"max":[639],"min":[0]},{"componentType":5126,"type":"VEC3","byteOffset":0,"bufferView":9,"count":640,"max":[3.609999895095825,3.6500000953674316,0.05706338956952095],"min":[-3.609999895095825,-3.569999933242798,-0.05706338956952095]},{"componentType":5121,"normalized":true,"type":"VEC4","byteOffset":0,"bufferView":10,"count":640,"max":[154,102,255,255],"min":[154,102,255,255]},{"componentType":5126,"count":640,"type":"VEC3","byteOffset":0,"bufferView":11,"max":[1.0,1.0,0.9538663029670715],"min":[-1.0,-1.0,-0.9538663029670715]},{"componentType":5125,"type":"SCALAR","bufferView":12,"count":36,"max":[7],"min":[0]},{"componentType":5126,"type":"VEC3","byteOffset":0,"bufferView":13,"count":8,"max":[4.010000228881836,2.5999999046325684,0.10999999940395355],"min":[3.7899999618530273,0.0,-0.10999999940395355]},{"componentType":5121,"normalized":true,"type":"VEC4","byteOffset":0,"bufferView":14,"count":8,"max":[53,72,96,255],"min":[53,72,96,255]},{"componentType":5126,"count":8,"type":"VEC3","byteOffset":0,"bufferView":15,"max":[0.5773502588272095,0.5773502588272095,0.5773502588272095],"min":[-0.5773502588272095,-0.5773502588272095,-0.5773502588272095]},{"componentType":5125,"type":"SCALAR","bufferView":16,"count":240,"max":[41],"min":[0]},{"componentType":5126,"type":"VEC3","byteOffset":0,"bufferView":17,"count":42,"max":[4.059999942779541,2.7799999713897705,0.1599999964237213],"min":[3.740000009536743,2.4600000381469727,-0.1599999964237213]},{"componentType":5121,"normalized":true,"type":"VEC4","byteOffset":0,"bufferView":18,"count":42,"max":[90,244,255,255],"min":[90,244,255,255]},{"componentType":5126,"count":42,"type":"VEC3","byteOffset":0,"bufferView":19,"max":[1.0,1.0,1.0],"min":[-1.0,-1.0,-1.0]},{"componentType":5126,"type":"VEC3","byteOffset":0,"bufferView":20,"count":8,"max":[3.2651662826538086,2.5999999046325684,2.402362585067749],"min":[3.045166254043579,0.0,2.1823625564575195]},{"componentType":5126,"type":"VEC3","byteOffset":0,"bufferView":21,"count":42,"max":[3.3151662349700928,2.7799999713897705,2.452362537384033],"min":[2.995166301727295,2.4600000381469727,2.1323623657226562]},{"componentType":5126,"count":42,"type":"VEC3","byteOffset":0,"bufferView":22,"max":[1.0,1.0,1.0],"min":[-1.0,-1.0,-1.0]},{"componentType":5126,"type":"VEC3","byteOffset":0,"bufferView":23,"count":8,"max":[1.3151662349700928,2.5999999046325684,3.819120407104492],"min":[1.0951663255691528,0.0,3.5991203784942627]},{"componentType":5126,"type":"VEC3","byteOffset":0,"bufferView":24,"count":42,"max":[1.3651663064956665,2.7799999713897705,3.8691203594207764],"min":[1.045166254043579,2.4600000381469727,3.5491204261779785]},{"componentType":5126,"count":42,"type":"VEC3","byteOffset":0,"bufferView":25,"max":[1.0,1.0,1.0],"min":[-1.0,-1.0,-1.0]},{"componentType":5126,"type":"VEC3","byteOffset":0,"bufferView":26,"count":8,"max":[-1.0951663255691528,2.5999999046325684,3.819120407104492],"min":[-1.3151662349700928,0.0,3.5991203784942627]},{"componentType":5126,"type":"VEC3","byteOffset":0,"bufferView":27,"count":42,"max":[-1.045166254043579,2.7799999713897705,3.8691203594207764],"min":[-1.3651663064956665,2.4600000381469727,3.5491204261779785]},{"componentType":5126,"count":42,"type":"VEC3","byteOffset":0,"bufferView":28,"max":[1.0,1.0,1.0],"min":[-1.0,-1.0,-1.0]},{"componentType":5126,"type":"VEC3","byteOffset":0,"bufferView":29,"count":8,"max":[-3.045166254043579,2.5999999046325684,2.402362585067749],"min":[-3.2651662826538086,0.0,2.1823625564575195]},{"componentType":5126,"type":"VEC3","byteOffset":0,"bufferView":30,"count":42,"max":[-2.995166301727295,2.7799999713897705,2.452362537384033],"min":[-3.3151662349700928,2.4600000381469727,2.1323623657226562]},{"componentType":5126,"count":42,"type":"VEC3","byteOffset":0,"bufferView":31,"max":[1.0,1.0,1.0],"min":[-1.0,-1.0,-1.0]},{"componentType":5126,"type":"VEC3","byteOffset":0,"bufferView":32,"count":8,"max":[-3.7899999618530273,2.5999999046325684,0.10999999940395355],"min":[-4.010000228881836,0.0,-0.10999999940395355]},{"componentType":5126,"type":"VEC3","byteOffset":0,"bufferView":33,"count":42,"max":[-3.740000009536743,2.7799999713897705,0.1599999964237213],"min":[-4.059999942779541,2.4600000381469727,-0.1599999964237213]},{"componentType":5126,"count":42,"type":"VEC3","byteOffset":0,"bufferView":34,"max":[1.0,1.0,1.0],"min":[-1.0,-1.0,-1.0]},{"componentType":5126,"type":"VEC3","byteOffset":0,"bufferView":35,"count":8,"max":[-3.045166254043579,2.5999999046325684,-2.1823625564575195],"min":[-3.2651662826538086,0.0,-2.402362585067749]},{"componentType":5126,"type":"VEC3","byteOffset":0,"bufferView":36,"count":42,"max":[-2.995166301727295,2.7799999713897705,-2.1323623657226562],"min":[-3.3151662349700928,2.4600000381469727,-2.452362537384033]},{"componentType":5126,"type":"VEC3","byteOffset":0,"bufferView":37,"count":8,"max":[-1.0951663255691528,2.5999999046325684,-3.5991203784942627],"min":[-1.3151662349700928,0.0,-3.819120407104492]},{"componentType":5126,"type":"VEC3","byteOffset":0,"bufferView":38,"count":42,"max":[-1.045166254043579,2.7799999713897705,-3.5491204261779785],"min":[-1.3651663064956665,2.4600000381469727,-3.8691203594207764]},{"componentType":5126,"type":"VEC3","byteOffset":0,"bufferView":39,"count":8,"max":[1.3151662349700928,2.5999999046325684,-3.5991203784942627],"min":[1.0951663255691528,0.0,-3.819120407104492]},{"componentType":5126,"type":"VEC3","byteOffset":0,"bufferView":40,"count":42,"max":[1.3651663064956665,2.7799999713897705,-3.5491204261779785],"min":[1.045166254043579,2.4600000381469727,-3.8691203594207764]},{"componentType":5126,"type":"VEC3","byteOffset":0,"bufferView":41,"count":8,"max":[3.2651662826538086,2.5999999046325684,-2.1823625564575195],"min":[3.045166254043579,0.0,-2.402362585067749]},{"componentType":5126,"type":"VEC3","byteOffset":0,"bufferView":42,"count":42,"max":[3.3151662349700928,2.7799999713897705,-2.1323623657226562],"min":[2.995166301727295,2.4600000381469727,-2.452362537384033]},{"componentType":5126,"count":42,"type":"VEC3","byteOffset":0,"bufferView":43,"max":[1.0,1.0,1.0],"min":[-1.0,-1.0,-1.0]},{"componentType":5126,"type":"VEC3","byteOffset":0,"bufferView":44,"count":768,"max":[4.019999980926514,6.670000076293945,0.11999999731779099],"min":[-4.019999980926514,-1.3700000047683716,-0.11999999731779099]},{"componentType":5126,"count":768,"type":"VEC3","byteOffset":0,"bufferView":45,"max":[1.0,1.0,0.9999672770500183],"min":[-1.0,-1.0,-0.9999672770500183]}],"meshes":[{"name":"entry-chamber-shell-v1-mesh-00","extras":{"shape":"cylinder","height":0.18,"radius":4.6,"processed":true},"primitives":[{"attributes":{"POSITION":1,"COLOR_0":2,"NORMAL":3},"indices":0,"mode":4}]},{"name":"entry-chamber-shell-v1-mesh-01","extras":{"shape":"torus","major_radius":4.25,"minor_radius":0.11,"processed":true},"primitives":[{"attributes":{"POSITION":5,"COLOR_0":6,"NORMAL":7},"indices":4,"mode":4}]},{"name":"entry-chamber-shell-v1-mesh-02","extras":{"shape":"torus","major_radius":3.55,"minor_radius":0.06,"processed":true},"primitives":[{"attributes":{"POSITION":9,"COLOR_0":10,"NORMAL":11},"indices":8,"mode":4}]},{"name":"entry-chamber-shell-v1-mesh-03","extras":{"shape":"box","extents":[0.22,2.6,0.22]},"primitives":[{"attributes":{"POSITION":13,"COLOR_0":14,"NORMAL":15},"indices":12,"mode":4}]},{"name":"entry-chamber-shell-v1-mesh-04","extras":{"shape":"sphere","radius":0.16},"primitives":[{"attributes":{"POSITION":17,"COLOR_0":18,"NORMAL":19},"indices":16,"mode":4}]},{"name":"entry-chamber-shell-v1-mesh-05","extras":{"shape":"box","extents":[0.22,2.6,0.22]},"primitives":[{"attributes":{"POSITION":20,"COLOR_0":14,"NORMAL":15},"indices":12,"mode":4}]},{"name":"entry-chamber-shell-v1-mesh-06","extras":{"shape":"sphere","radius":0.16},"primitives":[{"attributes":{"POSITION":21,"COLOR_0":18,"NORMAL":22},"indices":16,"mode":4}]},{"name":"entry-chamber-shell-v1-mesh-07","extras":{"shape":"box","extents":[0.22,2.6,0.22]},"primitives":[{"attributes":{"POSITION":23,"COLOR_0":14,"NORMAL":15},"indices":12,"mode":4}]},{"name":"entry-chamber-shell-v1-mesh-08","extras":{"shape":"sphere","radius":0.16},"primitives":[{"attributes":{"POSITION":24,"COLOR_0":18,"NORMAL":25},"indices":16,"mode":4}]},{"name":"entry-chamber-shell-v1-mesh-09","extras":{"shape":"box","extents":[0.22,2.6,0.22]},"primitives":[{"attributes":{"POSITION":26,"COLOR_0":14,"NORMAL":15},"indices":12,"mode":4}]},{"name":"entry-chamber-shell-v1-mesh-10","extras":{"shape":"sphere","radius":0.16},"primitives":[{"attributes":{"POSITION":27,"COLOR_0":18,"NORMAL":28},"indices":16,"mode":4}]},{"name":"entry-chamber-shell-v1-mesh-11","extras":{"shape":"box","extents":[0.22,2.6,0.22]},"primitives":[{"attributes":{"POSITION":29,"COLOR_0":14,"NORMAL":15},"indices":12,"mode":4}]},{"name":"entry-chamber-shell-v1-mesh-12","extras":{"shape":"sphere","radius":0.16},"primitives":[{"attributes":{"POSITION":30,"COLOR_0":18,"NORMAL":31},"indices":16,"mode":4}]},{"name":"entry-chamber-shell-v1-mesh-13","extras":{"shape":"box","extents":[0.22,2.6,0.22]},"primitives":[{"attributes":{"POSITION":32,"COLOR_0":14,"NORMAL":15},"indices":12,"mode":4}]},{"name":"entry-chamber-shell-v1-mesh-14","extras":{"shape":"sphere","radius":0.16},"primitives":[{"attributes":{"POSITION":33,"COLOR_0":18,"NORMAL":34},"indices":16,"mode":4}]},{"name":"entry-chamber-shell-v1-mesh-15","extras":{"shape":"box","extents":[0.22,2.6,0.22]},"primitives":[{"attributes":{"POSITION":35,"COLOR_0":14,"NORMAL":15},"indices":12,"mode":4}]},{"name":"entry-chamber-shell-v1-mesh-16","extras":{"shape":"sphere","radius":0.16},"primitives":[{"attributes":{"POSITION":36,"COLOR_0":18,"NORMAL":31},"indices":16,"mode":4}]},{"name":"entry-chamber-shell-v1-mesh-17","extras":{"shape":"box","extents":[0.22,2.6,0.22]},"primitives":[{"attributes":{"POSITION":37,"COLOR_0":14,"NORMAL":15},"indices":12,"mode":4}]},{"name":"entry-chamber-shell-v1-mesh-18","extras":{"shape":"sphere","radius":0.16},"primitives":[{"attributes":{"POSITION":38,"COLOR_0":18,"NORMAL":25},"indices":16,"mode":4}]},{"name":"entry-chamber-shell-v1-mesh-19","extras":{"shape":"box","extents":[0.22,2.6,0.22]},"primitives":[{"attributes":{"POSITION":39,"COLOR_0":14,"NORMAL":15},"indices":12,"mode":4}]},{"name":"entry-chamber-shell-v1-mesh-20","extras":{"shape":"sphere","radius":0.16},"primitives":[{"attributes":{"POSITION":40,"COLOR_0":18,"NORMAL":28},"indices":16,"mode":4}]},{"name":"entry-chamber-shell-v1-mesh-21","extras":{"shape":"box","extents":[0.22,2.6,0.22]},"primitives":[{"attributes":{"POSITION":41,"COLOR_0":14,"NORMAL":15},"indices":12,"mode":4}]},{"name":"entry-chamber-shell-v1-mesh-22","extras":{"shape":"sphere","radius":0.16},"primitives":[{"attributes":{"POSITION":42,"COLOR_0":18,"NORMAL":43},"indices":16,"mode":4}]},{"name":"entry-chamber-shell-v1-mesh-23","extras":{"shape":"torus","major_radius":3.9,"minor_radius":0.12,"processed":true},"primitives":[{"attributes":{"POSITION":44,"COLOR_0":6,"NORMAL":45},"indices":4,"mode":4}]}],"nodes":[{"name":"world","children":[1,2,3,4,5,6,7,8,9,10,11,12,13,14,15,16,17,18,19,20,21,22,23,24]},{"name":"entry-chamber-shell-v1-00","mesh":0},{"name":"entry-chamber-shell-v1-01","mesh":1},{"name":"entry-chamber-shell-v1-02","mesh":2},{"name":"entry-chamber-shell-v1-03","mesh":3},{"name":"entry-chamber-shell-v1-04","mesh":4},{"name":"entry-chamber-shell-v1-05","mesh":5},{"name":"entry-chamber-shell-v1-06","mesh":6},{"name":"entry-chamber-shell-v1-07","mesh":7},{"name":"entry-chamber-shell-v1-08","mesh":8},{"name":"entry-chamber-shell-v1-09","mesh":9},{"name":"entry-chamber-shell-v1-10","mesh":10},{"name":"entry-chamber-shell-v1-11","mesh":11},{"name":"entry-chamber-shell-v1-12","mesh":12},{"name":"entry-chamber-shell-v1-13","mesh":13},{"name":"entry-chamber-shell-v1-14","mesh":14},{"name":"entry-chamber-shell-v1-15","mesh":15},{"name":"entry-chamber-shell-v1-16","mesh":16},{"name":"entry-chamber-shell-v1-17","mesh":17},{"name":"entry-chamber-shell-v1-18","mesh":18},{"name":"entry-chamber-shell-v1-19","mesh":19},{"name":"entry-chamber-shell-v1-20","mesh":20},{"name":"entry-chamber-shell-v1-21","mesh":21},{"name":"entry-chamber-shell-v1-22","mesh":22},{"name":"entry-chamber-shell-v1-23","mesh":23}],"buffers":[{"uri":"data:application/octet-stream;base64,","byteLength":109288}],"bufferViews":[{"buffer":0,"byteOffset":0,"byteLength":3072},{"buffer":0,"byteOffset":3072,"byteLength":1560},{"buffer":0,"byteOffset":4632,"byteLength":520},{"buffer":0,"byteOffset":5152,"byteLength":1560},{"buffer":0,"byteOffset":6712,"byteLength":18432},{"buffer":0,"byteOffset":25144,"byteLength":9216},{"buffer":0,"byteOffset":34360,"byteLength":3072},{"buffer":0,"byteOffset":37432,"byteLength":9216},{"buffer":0,"byteOffset":46648,"byteLength":15360},{"buffer":0,"byteOffset":62008,"byteLength":7680},{"buffer":0,"byteOffset":69688,"byteLength":2560},{"buffer":0,"byteOffset":72248,"byteLength":7680},{"buffer":0,"byteOffset":79928,"byteLength":144},{"buffer":0,"byteOffset":80072,"byteLength":96},{"buffer":0,"byteOffset":80168,"byteLength":32},{"buffer":0,"byteOffset":80200,"byteLength":96},{"buffer":0,"byteOffset":80296,"byteLength":960},{"buffer":0,"byteOffset":81256,"byteLength":504},{"buffer":0,"byteOffset":81760,"byteLength":168},{"buffer":0,"byteOffset":81928,"byteLength":504},{"buffer":0,"byteOffset":82432,"byteLength":96},{"buffer":0,"byteOffset":82528,"byteLength":504},{"buffer":0,"byteOffset":83032,"byteLength":504},{"buffer":0,"byteOffset":83536,"byteLength":96},{"buffer":0,"byteOffset":83632,"byteLength":504},{"buffer":0,"byteOffset":84136,"byteLength":504},{"buffer":0,"byteOffset":84640,"byteLength":96},{"buffer":0,"byteOffset":84736,"byteLength":504},{"buffer":0,"byteOffset":85240,"byteLength":504},{"buffer":0,"byteOffset":85744,"byteLength":96},{"buffer":0,"byteOffset":85840,"byteLength":504},{"buffer":0,"byteOffset":86344,"byteLength":504},{"buffer":0,"byteOffset":86848,"byteLength":96},{"buffer":0,"byteOffset":86944,"byteLength":504},{"buffer":0,"byteOffset":87448,"byteLength":504},{"buffer":0,"byteOffset":87952,"byteLength":96},{"buffer":0,"byteOffset":88048,"byteLength":504},{"buffer":0,"byteOffset":88552,"byteLength":96},{"buffer":0,"byteOffset":88648,"byteLength":504},{"buffer":0,"byteOffset":89152,"byteLength":96},{"buffer":0,"byteOffset":89248,"byteLength":504},{"buffer":0,"byteOffset":89752,"byteLength":96},{"buffer":0,"byteOffset":89848,"byteLength":504},{"buffer":0,"byteOffset":90352,"byteLength":504},{"buffer":0,"byteOffset":90856,"byteLength":9216},{"buffer":0,"byteOffset":100072,"byteLength":9216}],"extras":{"uraiModelId":"entry-chamber-shell-v1","productionClass":"modular-first-pass","generatedBy":"scripts/generate-real-spatial-models-v1.py","units":"meters"}}
