{"scene":0,"scenes":[{"nodes":[0]}],"asset":{"version":"2.0","generator":"URAI deterministic spatial model forge v1","copyright":"URAI Labs"},"accessors":[{"componentType":5125,"type":"SCALAR","bufferView":0,"count":768,"max":[129],"min":[0]},{"componentType":5126,"type":"VEC3","byteOffset":0,"bufferView":1,"count":130,"max":[3.200000047683716,3.200000047683716,0.05999999865889549],"min":[-3.200000047683716,-3.200000047683716,-0.05999999865889549]},{"componentType":5121,"normalized":true,"type":"VEC4","byteOffset":0,"bufferView":2,"count":130,"max":[9,15,28,255],"min":[9,15,28,255]},{"componentType":5126,"count":130,"type":"VEC3","byteOffset":0,"bufferView":3,"max":[0.7178210020065308,0.7178210020065308,1.0],"min":[-0.7178210020065308,-0.7178210020065308,-1.0]},{"componentType":5125,"type":"SCALAR","bufferView":4,"count":4608,"max":[767],"min":[0]},{"componentType":5126,"type":"VEC3","byteOffset":0,"bufferView":5,"count":768,"max":[2.9000000953674316,2.9800000190734863,0.10000000149011612],"min":[-2.9000000953674316,-2.819999933242798,-0.10000000149011612]},{"componentType":5121,"normalized":true,"type":"VEC4","byteOffset":0,"bufferView":6,"count":768,"max":[90,244,255,255],"min":[90,244,255,255]},{"componentType":5126,"count":768,"type":"VEC3","byteOffset":0,"bufferView":7,"max":[1.0,1.0,0.9999672770500183],"min":[-1.0,-1.0,-0.9999672770500183]},{"componentType":5125,"type":"SCALAR","bufferView":8,"count":3840,"max":[639],"min":[0]},{"componentType":5126,"type":"VEC3","byteOffset":0,"bufferView":9,"count":640,"max":[1.8600000143051147,1.9500000476837158,0.05706338956952095],"min":[-1.8600000143051147,-1.7699999809265137,-0.05706338956952095]},{"componentType":5121,"normalized":true,"type":"VEC4","byteOffset":0,"bufferView":10,"count":640,"max":[154,102,255,255],"min":[154,102,255,255]},{"componentType":5126,"count":640,"type":"VEC3","byteOffset":0,"bufferView":11,"max":[1.0,1.0,0.9538663029670715],"min":[-1.0,-1.0,-0.9538663029670715]},{"componentType":5125,"type":"SCALAR","bufferView":12,"count":36,"max":[7],"min":[0]},{"componentType":5126,"type":"VEC3","byteOffset":0,"bufferView":13,"count":8,"max":[2.309999942779541,0.12999999523162842,0.375],"min":[2.190000057220459,0.07000000029802322,-0.375]},{"componentType":5121,"normalized":true,"type":"VEC4","byteOffset":0,"bufferView":14,"count":8,"max":[69,178,255,255],"min":[69,178,255,255]},{"componentType":5126,"count":8,"type":"VEC3","byteOffset":0,"bufferView":15,"max":[0.5773502588272095,0.5773502588272095,0.5773502588272095],"min":[-0.5773502588272095,-0.5773502588272095,-0.5773502588272095]},{"componentType":5126,"type":"VEC3","byteOffset":0,"bufferView":16,"count":8,"max":[1.3644615411758423,0.12999999523162842,2.303316593170166],"min":[0.8855384588241577,0.07000000029802322,1.5937976837158203]},{"componentType":5126,"count":8,"type":"VEC3","byteOffset":0,"bufferView":17,"max":[0.7886751294136047,0.5773502588272095,0.7886751294136047],"min":[-0.7886751294136047,-0.5773502588272095,-0.7886751294136047]},{"componentType":5126,"type":"VEC3","byteOffset":0,"bufferView":18,"count":8,"max":[-0.7702404856681824,0.12999999523162842,2.188018798828125],"min":[-1.4797595739364624,0.07000000029802322,1.7090955972671509]},{"componentType":5126,"count":8,"type":"VEC3","byteOffset":0,"bufferView":19,"max":[0.7886751294136047,0.5773502588272095,0.7886751294136047],"min":[-0.7886751294136047,-0.5773502588272095,-0.7886751294136047]},{"componentType":5126,"type":"VEC3","byteOffset":0,"bufferView":20,"count":8,"max":[-1.875,0.12999999523162842,0.05999999865889549],"min":[-2.625,0.07000000029802322,-0.05999999865889549]},{"componentType":5126,"count":8,"type":"VEC3","byteOffset":0,"bufferView":21,"max":[0.5773502588272095,0.5773502588272095,0.5773502588272095],"min":[-0.5773502588272095,-0.5773502588272095,-0.5773502588272095]},{"componentType":5126,"type":"VEC3","byteOffset":0,"bufferView":22,"count":8,"max":[-0.7702404856681824,0.12999999523162842,-1.7090955972671509],"min":[-1.4797595739364624,0.07000000029802322,-2.188018798828125]},{"componentType":5126,"count":8,"type":"VEC3","byteOffset":0,"bufferView":23,"max":[0.7886751294136047,0.5773502588272095,0.7886751294136047],"min":[-0.7886751294136047,-0.5773502588272095,-0.7886751294136047]},{"componentType":5126,"type":"VEC3","byteOffset":0,"bufferView":24,"count":8,"max":[1.3644615411758423,0.12999999523162842,-1.5937976837158203],"min":[0.8855384588241577,0.07000000029802322,-2.303316593170166]},{"componentType":5126,"count":8,"type":"VEC3","byteOffset":0,"bufferView":25,"max":[0.7886751294136047,0.5773502588272095,0.7886751294136047],"min":[-0.7886751294136047,-0.5773502588272095,-0.7886751294136047]},{"componentType":5126,"type":"VEC3","byteOffset":0,"bufferView":26,"count":8,"max":[2.309999942779541,0.12999999523162842,0.375],"min":[2.190000057220459,0.07000000029802322,-0.375]},{"componentType":5126,"count":8,"type":"VEC3","byteOffset":0,"bufferView":27,"max":[0.5773502588272095,0.5773502588272095,0.5773502588272095],"min":[-0.5773502588272095,-0.5773502588272095,-0.5773502588272095]},{"componentType":5126,"type":"VEC3","byteOffset":0,"bufferView":28,"count":8,"max":[1.3644615411758423,0.12999999523162842,2.303316593170166],"min":[0.8855384588241577,0.07000000029802322,1.5937976837158203]},{"componentType":5126,"count":8,"type":"VEC3","byteOffset":0,"bufferView":29,"max":[0.7886751294136047,0.5773502588272095,0.7886751294136047],"min":[-0.7886751294136047,-0.5773502588272095,-0.7886751294136047]},{"componentType":5126,"type":"VEC3","byteOffset":0,"bufferView":30,"count":8,"max":[-0.7702404856681824,0.12999999523162842,2.188018798828125],"min":[-1.4797595739364624,0.07000000029802322,1.7090955972671509]},{"componentType":5126,"count":8,"type":"VEC3","byteOffset":0,"bufferView":31,"max":[0.7886751294136047,0.5773502588272095,0.7886751294136047],"min":[-0.7886751294136047,-0.5773502588272095,-0.7886751294136047]},{"componentType":5126,"type":"VEC3","byteOffset":0,"bufferView":32,"count":8,"max":[-1.875,0.12999999523162842,0.05999999865889549],"min":[-2.625,0.07000000029802322,-0.05999999865889549]},{"componentType":5126,"count":8,"type":"VEC3","byteOffset":0,"bufferView":33,"max":[0.5773502588272095,0.5773502588272095,0.5773502588272095],"min":[-0.5773502588272095,-0.5773502588272095,-0.5773502588272095]},{"componentType":5126,"type":"VEC3","byteOffset":0,"bufferView":34,"count":8,"max":[-0.7702404856681824,0.12999999523162842,-1.7090955972671509],"min":[-1.4797595739364624,0.07000000029802322,-2.188018798828125]},{"componentType":5126,"count":8,"type":"VEC3","byteOffset":0,"bufferView":35,"max":[0.7886751294136047,0.5773502588272095,0.7886751294136047],"min":[-0.7886751294136047,-0.5773502588272095,-0.7886751294136047]},{"componentType":5126,"type":"VEC3","byteOffset":0,"bufferView":36,"count":8,"max":[1.3644615411758423,0.12999999523162842,-1.5937976837158203],"min":[0.8855384588241577,0.07000000029802322,-2.303316593170166]},{"componentType":5126,"count":8,"type":"VEC3","byteOffset":0,"bufferView":37,"max":[0.7886751294136047,0.5773502588272095,0.7886751294136047],"min":[-0.7886751294136047,-0.5773502588272095,-0.7886751294136047]}],"meshes":[{"name":"entry-floor-ring-v1-mesh-00","extras":{"shape":"cylinder","height":0.12,"radius":3.2,"processed":true},"primitives":[{"attributes":{"POSITION":1,"COLOR_0":2,"NORMAL":3},"indices":0,"mode":4}]},{"name":"entry-floor-ring-v1-mesh-01","extras":{"shape":"torus","major_radius":2.8,"minor_radius":0.1,"processed":true},"primitives":[{"attributes":{"POSITION":5,"COLOR_0":6,"NORMAL":7},"indices":4,"mode":4}]},{"name":"entry-floor-ring-v1-mesh-02","extras":{"shape":"torus","major_radius":1.8,"minor_radius":0.06,"processed":true},"primitives":[{"attributes":{"POSITION":9,"COLOR_0":10,"NORMAL":11},"indices":8,"mode":4}]},{"name":"entry-floor-ring-v1-mesh-03","extras":{"shape":"box","extents":[0.12,0.06,0.75]},"primitives":[{"attributes":{"POSITION":13,"COLOR_0":14,"NORMAL":15},"indices":12,"mode":4}]},{"name":"entry-floor-ring-v1-mesh-04","extras":{"shape":"box","extents":[0.12,0.06,0.75]},"primitives":[{"attributes":{"POSITION":16,"COLOR_0":14,"NORMAL":17},"indices":12,"mode":4}]},{"name":"entry-floor-ring-v1-mesh-05","extras":{"shape":"box","extents":[0.12,0.06,0.75]},"primitives":[{"attributes":{"POSITION":18,"COLOR_0":14,"NORMAL":19},"indices":12,"mode":4}]},{"name":"entry-floor-ring-v1-mesh-06","extras":{"shape":"box","extents":[0.12,0.06,0.75]},"primitives":[{"attributes":{"POSITION":20,"COLOR_0":14,"NORMAL":21},"indices":12,"mode":4}]},{"name":"entry-floor-ring-v1-mesh-07","extras":{"shape":"box","extents":[0.12,0.06,0.75]},"primitives":[{"attributes":{"POSITION":22,"COLOR_0":14,"NORMAL":23},"indices":12,"mode":4}]},{"name":"entry-floor-ring-v1-mesh-08","extras":{"shape":"box","extents":[0.12,0.06,0.75]},"primitives":[{"attributes":{"POSITION":24,"COLOR_0":14,"NORMAL":25},"indices":12,"mode":4}]},{"name":"entry-floor-ring-v1-mesh-09","extras":{"shape":"box","extents":[0.12,0.06,0.75]},"primitives":[{"attributes":{"POSITION":26,"COLOR_0":14,"NORMAL":27},"indices":12,"mode":4}]},{"name":"entry-floor-ring-v1-mesh-10","extras":{"shape":"box","extents":[0.12,0.06,0.75]},"primitives":[{"attributes":{"POSITION":28,"COLOR_0":14,"NORMAL":29},"indices":12,"mode":4}]},{"name":"entry-floor-ring-v1-mesh-11","extras":{"shape":"box","extents":[0.12,0.06,0.75]},"primitives":[{"attributes":{"POSITION":30,"COLOR_0":14,"NORMAL":31},"indices":12,"mode":4}]},{"name":"entry-floor-ring-v1-mesh-12","extras":{"shape":"box","extents":[0.12,0.06,0.75]},"primitives":[{"attributes":{"POSITION":32,"COLOR_0":14,"NORMAL":33},"indices":12,"mode":4}]},{"name":"entry-floor-ring-v1-mesh-13","extras":{"shape":"box","extents":[0.12,0.06,0.75]},"primitives":[{"attributes":{"POSITION":34,"COLOR_0":14,"NORMAL":35},"indices":12,"mode":4}]},{"name":"entry-floor-ring-v1-mesh-14","extras":{"shape":"box","extents":[0.12,0.06,0.75]},"primitives":[{"attributes":{"POSITION":36,"COLOR_0":14,"NORMAL":37},"indices":12,"mode":4}]}],"nodes":[{"name":"world","children":[1,2,3,4,5,6,7,8,9,10,11,12,13,14,15]},{"name":"entry-floor-ring-v1-00","mesh":0},{"name":"entry-floor-ring-v1-01","mesh":1},{"name":"entry-floor-ring-v1-02","mesh":2},{"name":"entry-floor-ring-v1-03","mesh":3},{"name":"entry-floor-ring-v1-04","mesh":4},{"name":"entry-floor-ring-v1-05","mesh":5},{"name":"entry-floor-ring-v1-06","mesh":6},{"name":"entry-floor-ring-v1-07","mesh":7},{"name":"entry-floor-ring-v1-08","mesh":8},{"name":"entry-floor-ring-v1-09","mesh":9},{"name":"entry-floor-ring-v1-10","mesh":10},{"name":"entry-floor-ring-v1-11","mesh":11},{"name":"entry-floor-ring-v1-12","mesh":12},{"name":"entry-floor-ring-v1-13","mesh":13},{"name":"entry-floor-ring-v1-14","mesh":14}],"buffers":[{"uri":"data:application/octet-stream;base64,","byteLength":82408}],"bufferViews":[{"buffer":0,"byteOffset":0,"byteLength":3072},{"buffer":0,"byteOffset":3072,"byteLength":1560},{"buffer":0,"byteOffset":4632,"byteLength":520},{"buffer":0,"byteOffset":5152,"byteLength":1560},{"buffer":0,"byteOffset":6712,"byteLength":18432},{"buffer":0,"byteOffset":25144,"byteLength":9216},{"buffer":0,"byteOffset":34360,"byteLength":3072},{"buffer":0,"byteOffset":37432,"byteLength":9216},{"buffer":0,"byteOffset":46648,"byteLength":15360},{"buffer":0,"byteOffset":62008,"byteLength":7680},{"buffer":0,"byteOffset":69688,"byteLength":2560},{"buffer":0,"byteOffset":72248,"byteLength":7680},{"buffer":0,"byteOffset":79928,"byteLength":144},{"buffer":0,"byteOffset":80072,"byteLength":96},{"buffer":0,"byteOffset":80168,"byteLength":32},{"buffer":0,"byteOffset":80200,"byteLength":96},{"buffer":0,"byteOffset":80296,"byteLength":96},{"buffer":0,"byteOffset":80392,"byteLength":96},{"buffer":0,"byteOffset":80488,"byteLength":96},{"buffer":0,"byteOffset":80584,"byteLength":96},{"buffer":0,"byteOffset":80680,"byteLength":96},{"buffer":0,"byteOffset":80776,"byteLength":96},{"buffer":0,"byteOffset":80872,"byteLength":96},{"buffer":0,"byteOffset":80968,"byteLength":96},{"buffer":0,"byteOffset":81064,"byteLength":96},{"buffer":0,"byteOffset":81160,"byteLength":96},{"buffer":0,"byteOffset":81256,"byteLength":96},{"buffer":0,"byteOffset":81352,"byteLength":96},{"buffer":0,"byteOffset":81448,"byteLength":96},{"buffer":0,"byteOffset":81544,"byteLength":96},{"buffer":0,"byteOffset":81640,"byteLength":96},{"buffer":0,"byteOffset":81736,"byteLength":96},{"buffer":0,"byteOffset":81832,"byteLength":96},{"buffer":0,"byteOffset":81928,"byteLength":96},{"buffer":0,"byteOffset":82024,"byteLength":96},{"buffer":0,"byteOffset":82120,"byteLength":96},{"buffer":0,"byteOffset":82216,"byteLength":96},{"buffer":0,"byteOffset":82312,"byteLength":96}],"extras":{"uraiModelId":"entry-floor-ring-v1","productionClass":"modular-first-pass","generatedBy":"scripts/generate-real-spatial-models-v1.py","units":"meters"}}
