{"scene":0,"scenes":[{"nodes":[0]}],"asset":{"version":"2.0","generator":"URAI deterministic spatial model forge v1","copyright":"URAI Labs"},"accessors":[{"componentType":5125,"type":"SCALAR","bufferView":0,"count":768,"max":[129],"min":[0]},{"componentType":5126,"type":"VEC3","byteOffset":0,"bufferView":1,"count":130,"max":[1.7000000476837158,1.7000000476837158,0.10999999940395355],"min":[-1.7000000476837158,-1.7000000476837158,-0.10999999940395355]},{"componentType":5121,"normalized":true,"type":"VEC4","byteOffset":0,"bufferView":2,"count":130,"max":[9,15,28,255],"min":[9,15,28,255]},{"componentType":5126,"count":130,"type":"VEC3","byteOffset":0,"bufferView":3,"max":[0.7178210020065308,0.7178210020065308,1.0],"min":[-0.7178210020065308,-0.7178210020065308,-1.0]},{"componentType":5125,"type":"SCALAR","bufferView":4,"count":4608,"max":[767],"min":[0]},{"componentType":5126,"type":"VEC3","byteOffset":0,"bufferView":5,"count":768,"max":[1.5499999523162842,1.690000057220459,0.10000000149011612],"min":[-1.5499999523162842,-1.409999966621399,-0.10000000149011612]},{"componentType":5121,"normalized":true,"type":"VEC4","byteOffset":0,"bufferView":6,"count":768,"max":[255,199,84,255],"min":[255,199,84,255]},{"componentType":5126,"count":768,"type":"VEC3","byteOffset":0,"bufferView":7,"max":[1.0,1.0,0.9999672770500183],"min":[-1.0,-1.0,-0.9999672770500183]},{"componentType":5125,"type":"SCALAR","bufferView":8,"count":576,"max":[97],"min":[0]},{"componentType":5126,"type":"VEC3","byteOffset":0,"bufferView":9,"count":98,"max":[1.0499999523162842,1.149999976158142,0.05999999865889549],"min":[-1.0499999523162842,-0.949999988079071,-0.05999999865889549]},{"componentType":5121,"normalized":true,"type":"VEC4","byteOffset":0,"bufferView":10,"count":98,"max":[53,72,96,255],"min":[53,72,96,255]},{"componentType":5126,"count":98,"type":"VEC3","byteOffset":0,"bufferView":11,"max":[0.7212468981742859,0.7212468981742859,1.0],"min":[-0.7212468981742859,-0.7212468981742859,-1.0]},{"componentType":5125,"type":"SCALAR","bufferView":12,"count":36,"max":[7],"min":[0]},{"componentType":5126,"type":"VEC3","byteOffset":0,"bufferView":13,"count":8,"max":[0.05000000074505806,0.23000000417232513,0.9399999976158142],"min":[-0.05000000074505806,0.15000000596046448,0.2199999988079071]},{"componentType":5121,"normalized":true,"type":"VEC4","byteOffset":0,"bufferView":14,"count":8,"max":[69,178,255,255],"min":[69,178,255,255]},{"componentType":5126,"count":8,"type":"VEC3","byteOffset":0,"bufferView":15,"max":[0.5773502588272095,0.5773502588272095,0.5773502588272095],"min":[-0.5773502588272095,-0.5773502588272095,-0.5773502588272095]},{"componentType":5126,"type":"VEC3","byteOffset":0,"bufferView":16,"count":8,"max":[0.7000356912612915,0.23000000417232513,0.7000356912612915],"min":[0.12020815163850784,0.15000000596046448,0.12020815163850784]},{"componentType":5126,"count":8,"type":"VEC3","byteOffset":0,"bufferView":17,"max":[0.8164966106414795,0.5773502588272095,0.8164966106414795],"min":[-0.8164966106414795,-0.5773502588272095,-0.8164966106414795]},{"componentType":5126,"type":"VEC3","byteOffset":0,"bufferView":18,"count":8,"max":[0.9399999976158142,0.23000000417232513,0.05000000074505806],"min":[0.2199999988079071,0.15000000596046448,-0.05000000074505806]},{"componentType":5126,"count":8,"type":"VEC3","byteOffset":0,"bufferView":19,"max":[0.5773502588272095,0.5773502588272095,0.5773502588272095],"min":[-0.5773502588272095,-0.5773502588272095,-0.5773502588272095]},{"componentType":5126,"type":"VEC3","byteOffset":0,"bufferView":20,"count":8,"max":[0.7000356912612915,0.23000000417232513,-0.12020815163850784],"min":[0.12020815163850784,0.15000000596046448,-0.7000356912612915]},{"componentType":5126,"count":8,"type":"VEC3","byteOffset":0,"bufferView":21,"max":[0.8164966106414795,0.5773502588272095,0.8164966106414795],"min":[-0.8164966106414795,-0.5773502588272095,-0.8164966106414795]},{"componentType":5126,"type":"VEC3","byteOffset":0,"bufferView":22,"count":8,"max":[0.05000000074505806,0.23000000417232513,-0.2199999988079071],"min":[-0.05000000074505806,0.15000000596046448,-0.9399999976158142]},{"componentType":5126,"count":8,"type":"VEC3","byteOffset":0,"bufferView":23,"max":[0.5773502588272095,0.5773502588272095,0.5773502588272095],"min":[-0.5773502588272095,-0.5773502588272095,-0.5773502588272095]},{"componentType":5126,"type":"VEC3","byteOffset":0,"bufferView":24,"count":8,"max":[-0.12020815163850784,0.23000000417232513,-0.12020815163850784],"min":[-0.7000356912612915,0.15000000596046448,-0.7000356912612915]},{"componentType":5126,"count":8,"type":"VEC3","byteOffset":0,"bufferView":25,"max":[0.8164966106414795,0.5773502588272095,0.8164966106414795],"min":[-0.8164966106414795,-0.5773502588272095,-0.8164966106414795]},{"componentType":5126,"type":"VEC3","byteOffset":0,"bufferView":26,"count":8,"max":[-0.2199999988079071,0.23000000417232513,0.05000000074505806],"min":[-0.9399999976158142,0.15000000596046448,-0.05000000074505806]},{"componentType":5126,"count":8,"type":"VEC3","byteOffset":0,"bufferView":27,"max":[0.5773502588272095,0.5773502588272095,0.5773502588272095],"min":[-0.5773502588272095,-0.5773502588272095,-0.5773502588272095]},{"componentType":5126,"type":"VEC3","byteOffset":0,"bufferView":28,"count":8,"max":[-0.12020815163850784,0.23000000417232513,0.7000356912612915],"min":[-0.7000356912612915,0.15000000596046448,0.12020815163850784]},{"componentType":5126,"count":8,"type":"VEC3","byteOffset":0,"bufferView":29,"max":[0.8164966106414795,0.5773502588272095,0.8164966106414795],"min":[-0.8164966106414795,-0.5773502588272095,-0.8164966106414795]}],"meshes":[{"name":"ground-descent-hatch-v1-mesh-00","extras":{"shape":"cylinder","height":0.22,"radius":1.7,"processed":true},"primitives":[{"attributes":{"POSITION":1,"COLOR_0":2,"NORMAL":3},"indices":0,"mode":4}]},{"name":"ground-descent-hatch-v1-mesh-01","extras":{"shape":"torus","major_radius":1.45,"minor_radius":0.1,"processed":true},"primitives":[{"attributes":{"POSITION":5,"COLOR_0":6,"NORMAL":7},"indices":4,"mode":4}]},{"name":"ground-descent-hatch-v1-mesh-02","extras":{"shape":"cylinder","height":0.12,"radius":1.05,"processed":true},"primitives":[{"attributes":{"POSITION":9,"COLOR_0":10,"NORMAL":11},"indices":8,"mode":4}]},{"name":"ground-descent-hatch-v1-mesh-03","extras":{"shape":"box","extents":[0.1,0.08,0.72]},"primitives":[{"attributes":{"POSITION":13,"COLOR_0":14,"NORMAL":15},"indices":12,"mode":4}]},{"name":"ground-descent-hatch-v1-mesh-04","extras":{"shape":"box","extents":[0.1,0.08,0.72]},"primitives":[{"attributes":{"POSITION":16,"COLOR_0":14,"NORMAL":17},"indices":12,"mode":4}]},{"name":"ground-descent-hatch-v1-mesh-05","extras":{"shape":"box","extents":[0.1,0.08,0.72]},"primitives":[{"attributes":{"POSITION":18,"COLOR_0":14,"NORMAL":19},"indices":12,"mode":4}]},{"name":"ground-descent-hatch-v1-mesh-06","extras":{"shape":"box","extents":[0.1,0.08,0.72]},"primitives":[{"attributes":{"POSITION":20,"COLOR_0":14,"NORMAL":21},"indices":12,"mode":4}]},{"name":"ground-descent-hatch-v1-mesh-07","extras":{"shape":"box","extents":[0.1,0.08,0.72]},"primitives":[{"attributes":{"POSITION":22,"COLOR_0":14,"NORMAL":23},"indices":12,"mode":4}]},{"name":"ground-descent-hatch-v1-mesh-08","extras":{"shape":"box","extents":[0.1,0.08,0.72]},"primitives":[{"attributes":{"POSITION":24,"COLOR_0":14,"NORMAL":25},"indices":12,"mode":4}]},{"name":"ground-descent-hatch-v1-mesh-09","extras":{"shape":"box","extents":[0.1,0.08,0.72]},"primitives":[{"attributes":{"POSITION":26,"COLOR_0":14,"NORMAL":27},"indices":12,"mode":4}]},{"name":"ground-descent-hatch-v1-mesh-10","extras":{"shape":"box","extents":[0.1,0.08,0.72]},"primitives":[{"attributes":{"POSITION":28,"COLOR_0":14,"NORMAL":29},"indices":12,"mode":4}]}],"nodes":[{"name":"world","children":[1,2,3,4,5,6,7,8,9,10,11]},{"name":"ground-descent-hatch-v1-00","mesh":0},{"name":"ground-descent-hatch-v1-01","mesh":1},{"name":"ground-descent-hatch-v1-02","mesh":2},{"name":"ground-descent-hatch-v1-03","mesh":3},{"name":"ground-descent-hatch-v1-04","mesh":4},{"name":"ground-descent-hatch-v1-05","mesh":5},{"name":"ground-descent-hatch-v1-06","mesh":6},{"name":"ground-descent-hatch-v1-07","mesh":7},{"name":"ground-descent-hatch-v1-08","mesh":8},{"name":"ground-descent-hatch-v1-09","mesh":9},{"name":"ground-descent-hatch-v1-10","mesh":10}],"buffers":[{"uri":"data:application/octet-stream;base64,","byteLength":53408}],"bufferViews":[{"buffer":0,"byteOffset":0,"byteLength":3072},{"buffer":0,"byteOffset":3072,"byteLength":1560},{"buffer":0,"byteOffset":4632,"byteLength":520},{"buffer":0,"byteOffset":5152,"byteLength":1560},{"buffer":0,"byteOffset":6712,"byteLength":18432},{"buffer":0,"byteOffset":25144,"byteLength":9216},{"buffer":0,"byteOffset":34360,"byteLength":3072},{"buffer":0,"byteOffset":37432,"byteLength":9216},{"buffer":0,"byteOffset":46648,"byteLength":2304},{"buffer":0,"byteOffset":48952,"byteLength":1176},{"buffer":0,"byteOffset":50128,"byteLength":392},{"buffer":0,"byteOffset":50520,"byteLength":1176},{"buffer":0,"byteOffset":51696,"byteLength":144},{"buffer":0,"byteOffset":51840,"byteLength":96},{"buffer":0,"byteOffset":51936,"byteLength":32},{"buffer":0,"byteOffset":51968,"byteLength":96},{"buffer":0,"byteOffset":52064,"byteLength":96},{"buffer":0,"byteOffset":52160,"byteLength":96},{"buffer":0,"byteOffset":52256,"byteLength":96},{"buffer":0,"byteOffset":52352,"byteLength":96},{"buffer":0,"byteOffset":52448,"byteLength":96},{"buffer":0,"byteOffset":52544,"byteLength":96},{"buffer":0,"byteOffset":52640,"byteLength":96},{"buffer":0,"byteOffset":52736,"byteLength":96},{"buffer":0,"byteOffset":52832,"byteLength":96},{"buffer":0,"byteOffset":52928,"byteLength":96},{"buffer":0,"byteOffset":53024,"byteLength":96},{"buffer":0,"byteOffset":53120,"byteLength":96},{"buffer":0,"byteOffset":53216,"byteLength":96},{"buffer":0,"byteOffset":53312,"byteLength":96}],"extras":{"uraiModelId":"ground-descent-hatch-v1","productionClass":"modular-first-pass","generatedBy":"scripts/generate-real-spatial-models-v1.py","units":"meters"}}
