{"scene":0,"scenes":[{"nodes":[0]}],"asset":{"version":"2.0","generator":"URAI deterministic spatial model forge v1","copyright":"URAI Labs"},"accessors":[{"componentType":5125,"type":"SCALAR","bufferView":0,"count":2304,"max":[383],"min":[0]},{"componentType":5126,"type":"VEC3","byteOffset":0,"bufferView":1,"count":384,"max":[1.6950000524520874,1.6950000524520874,0.04500000178813934],"min":[-1.6950000524520874,-1.6950000524520874,-0.04500000178813934]},{"componentType":5121,"normalized":true,"type":"VEC4","byteOffset":0,"bufferView":2,"count":384,"max":[90,244,255,255],"min":[90,244,255,255]},{"componentType":5126,"count":384,"type":"VEC3","byteOffset":0,"bufferView":3,"max":[1.0,1.0,0.9998729228973389],"min":[-1.0,-1.0,-0.9998729228973389]},{"componentType":5126,"type":"VEC3","byteOffset":0,"bufferView":4,"count":384,"max":[1.625,1.625,-0.6050000190734863],"min":[-1.625,-1.625,-0.6949999928474426]},{"componentType":5121,"normalized":true,"type":"VEC4","byteOffset":0,"bufferView":5,"count":384,"max":[154,102,255,255],"min":[154,102,255,255]},{"componentType":5126,"count":384,"type":"VEC3","byteOffset":0,"bufferView":6,"max":[1.0,1.0,0.9998729228973389],"min":[-1.0,-1.0,-0.9998729228973389]},{"componentType":5126,"type":"VEC3","byteOffset":0,"bufferView":7,"count":384,"max":[1.5549999475479126,1.5549999475479126,-1.2549999952316284],"min":[-1.5549999475479126,-1.5549999475479126,-1.3450000286102295]},{"componentType":5126,"count":384,"type":"VEC3","byteOffset":0,"bufferView":8,"max":[1.0,1.0,0.9998729228973389],"min":[-1.0,-1.0,-0.9998729228973389]},{"componentType":5126,"type":"VEC3","byteOffset":0,"bufferView":9,"count":384,"max":[1.4850000143051147,1.4850000143051147,-1.9049999713897705],"min":[-1.4850000143051147,-1.4850000143051147,-1.9950000047683716]},{"componentType":5126,"count":384,"type":"VEC3","byteOffset":0,"bufferView":10,"max":[1.0,1.0,0.9998729228973389],"min":[-1.0,-1.0,-0.9998729228973389]},{"componentType":5126,"type":"VEC3","byteOffset":0,"bufferView":11,"count":384,"max":[1.4149999618530273,1.4149999618530273,-2.555000066757202],"min":[-1.4149999618530273,-1.4149999618530273,-2.6449999809265137]},{"componentType":5126,"count":384,"type":"VEC3","byteOffset":0,"bufferView":12,"max":[1.0,1.0,0.9998729228973389],"min":[-1.0,-1.0,-0.9998729228973389]},{"componentType":5126,"type":"VEC3","byteOffset":0,"bufferView":13,"count":384,"max":[1.3450000286102295,1.3450000286102295,-3.2049999237060547],"min":[-1.3450000286102295,-1.3450000286102295,-3.2950000762939453]},{"componentType":5126,"count":384,"type":"VEC3","byteOffset":0,"bufferView":14,"max":[1.0,1.0,0.9998729228973389],"min":[-1.0,-1.0,-0.9998729228973389]},{"componentType":5126,"type":"VEC3","byteOffset":0,"bufferView":15,"count":384,"max":[1.274999976158142,1.274999976158142,-3.8550000190734863],"min":[-1.274999976158142,-1.274999976158142,-3.944999933242798]},{"componentType":5126,"count":384,"type":"VEC3","byteOffset":0,"bufferView":16,"max":[1.0,1.0,0.9998729228973389],"min":[-1.0,-1.0,-0.9998729228973389]},{"componentType":5126,"type":"VEC3","byteOffset":0,"bufferView":17,"count":384,"max":[1.2050000429153442,1.2050000429153442,-4.505000114440918],"min":[-1.2050000429153442,-1.2050000429153442,-4.59499979019165]},{"componentType":5126,"count":384,"type":"VEC3","byteOffset":0,"bufferView":18,"max":[1.0,1.0,0.9998729228973389],"min":[-1.0,-1.0,-0.9998729228973389]},{"componentType":5126,"type":"VEC3","byteOffset":0,"bufferView":19,"count":384,"max":[1.1349999904632568,1.1349999904632568,-5.15500020980835],"min":[-1.1349999904632568,-1.1349999904632568,-5.244999885559082]},{"componentType":5126,"count":384,"type":"VEC3","byteOffset":0,"bufferView":20,"max":[1.0,1.0,0.9998729228973389],"min":[-1.0,-1.0,-0.9998729228973389]},{"componentType":5126,"type":"VEC3","byteOffset":0,"bufferView":21,"count":384,"max":[1.065000057220459,1.065000057220459,-5.804999828338623],"min":[-1.065000057220459,-1.065000057220459,-5.894999980926514]},{"componentType":5126,"count":384,"type":"VEC3","byteOffset":0,"bufferView":22,"max":[1.0,1.0,0.9998729228973389],"min":[-1.0,-1.0,-0.9998729228973389]},{"componentType":5125,"type":"SCALAR","bufferView":23,"count":960,"max":[161],"min":[0]},{"componentType":5126,"type":"VEC3","byteOffset":0,"bufferView":24,"count":162,"max":[0.3799999952316284,0.3799999952316284,-6.21999979019165],"min":[-0.3799999952316284,-0.3799999952316284,-6.980000019073486]},{"componentType":5121,"normalized":true,"type":"VEC4","byteOffset":0,"bufferView":25,"count":162,"max":[230,247,255,255],"min":[230,247,255,255]},{"componentType":5126,"count":162,"type":"VEC3","byteOffset":0,"bufferView":26,"max":[1.0,1.0,1.0],"min":[-1.0,-1.0,-1.0]},{"componentType":5126,"type":"VEC3","byteOffset":0,"bufferView":27,"count":162,"max":[0.6200000047683716,0.6200000047683716,-5.980000019073486],"min":[-0.6200000047683716,-0.6200000047683716,-7.21999979019165]},{"componentType":5121,"normalized":true,"type":"VEC4","byteOffset":0,"bufferView":28,"count":162,"max":[110,210,255,170],"min":[110,210,255,170]},{"componentType":5126,"count":162,"type":"VEC3","byteOffset":0,"bufferView":29,"max":[1.0,1.0,1.0],"min":[-1.0,-1.0,-1.0]}],"meshes":[{"name":"focus-star-tunnel-v1-mesh-00","extras":{"shape":"torus","major_radius":1.65,"minor_radius":0.045,"processed":true},"primitives":[{"attributes":{"POSITION":1,"COLOR_0":2,"NORMAL":3},"indices":0,"mode":4}]},{"name":"focus-star-tunnel-v1-mesh-01","extras":{"shape":"torus","major_radius":1.5799999999999998,"minor_radius":0.045,"processed":true},"primitives":[{"attributes":{"POSITION":4,"COLOR_0":5,"NORMAL":6},"indices":0,"mode":4}]},{"name":"focus-star-tunnel-v1-mesh-02","extras":{"shape":"torus","major_radius":1.5099999999999998,"minor_radius":0.045,"processed":true},"primitives":[{"attributes":{"POSITION":7,"COLOR_0":2,"NORMAL":8},"indices":0,"mode":4}]},{"name":"focus-star-tunnel-v1-mesh-03","extras":{"shape":"torus","major_radius":1.44,"minor_radius":0.045,"processed":true},"primitives":[{"attributes":{"POSITION":9,"COLOR_0":5,"NORMAL":10},"indices":0,"mode":4}]},{"name":"focus-star-tunnel-v1-mesh-04","extras":{"shape":"torus","major_radius":1.3699999999999999,"minor_radius":0.045,"processed":true},"primitives":[{"attributes":{"POSITION":11,"COLOR_0":2,"NORMAL":12},"indices":0,"mode":4}]},{"name":"focus-star-tunnel-v1-mesh-05","extras":{"shape":"torus","major_radius":1.2999999999999998,"minor_radius":0.045,"processed":true},"primitives":[{"attributes":{"POSITION":13,"COLOR_0":5,"NORMAL":14},"indices":0,"mode":4}]},{"name":"focus-star-tunnel-v1-mesh-06","extras":{"shape":"torus","major_radius":1.23,"minor_radius":0.045,"processed":true},"primitives":[{"attributes":{"POSITION":15,"COLOR_0":2,"NORMAL":16},"indices":0,"mode":4}]},{"name":"focus-star-tunnel-v1-mesh-07","extras":{"shape":"torus","major_radius":1.16,"minor_radius":0.045,"processed":true},"primitives":[{"attributes":{"POSITION":17,"COLOR_0":5,"NORMAL":18},"indices":0,"mode":4}]},{"name":"focus-star-tunnel-v1-mesh-08","extras":{"shape":"torus","major_radius":1.0899999999999999,"minor_radius":0.045,"processed":true},"primitives":[{"attributes":{"POSITION":19,"COLOR_0":2,"NORMAL":20},"indices":0,"mode":4}]},{"name":"focus-star-tunnel-v1-mesh-09","extras":{"shape":"torus","major_radius":1.0199999999999998,"minor_radius":0.045,"processed":true},"primitives":[{"attributes":{"POSITION":21,"COLOR_0":5,"NORMAL":22},"indices":0,"mode":4}]},{"name":"focus-star-tunnel-v1-mesh-10","extras":{"shape":"sphere","radius":0.38},"primitives":[{"attributes":{"POSITION":24,"COLOR_0":25,"NORMAL":26},"indices":23,"mode":4}]},{"name":"focus-star-tunnel-v1-mesh-11","extras":{"shape":"sphere","radius":0.62},"primitives":[{"attributes":{"POSITION":27,"COLOR_0":28,"NORMAL":29},"indices":23,"mode":4}]}],"nodes":[{"name":"world","children":[1,2,3,4,5,6,7,8,9,10,11,12]},{"name":"focus-star-tunnel-v1-00","mesh":0},{"name":"focus-star-tunnel-v1-01","mesh":1},{"name":"focus-star-tunnel-v1-02","mesh":2},{"name":"focus-star-tunnel-v1-03","mesh":3},{"name":"focus-star-tunnel-v1-04","mesh":4},{"name":"focus-star-tunnel-v1-05","mesh":5},{"name":"focus-star-tunnel-v1-06","mesh":6},{"name":"focus-star-tunnel-v1-07","mesh":7},{"name":"focus-star-tunnel-v1-08","mesh":8},{"name":"focus-star-tunnel-v1-09","mesh":9},{"name":"focus-star-tunnel-v1-10","mesh":10},{"name":"focus-star-tunnel-v1-11","mesh":11}],"buffers":[{"uri":"data:application/octet-stream;base64,","byteLength":117360}],"bufferViews":[{"buffer":0,"byteOffset":0,"byteLength":9216},{"buffer":0,"byteOffset":9216,"byteLength":4608},{"buffer":0,"byteOffset":13824,"byteLength":1536},{"buffer":0,"byteOffset":15360,"byteLength":4608},{"buffer":0,"byteOffset":19968,"byteLength":4608},{"buffer":0,"byteOffset":24576,"byteLength":1536},{"buffer":0,"byteOffset":26112,"byteLength":4608},{"buffer":0,"byteOffset":30720,"byteLength":4608},{"buffer":0,"byteOffset":35328,"byteLength":4608},{"buffer":0,"byteOffset":39936,"byteLength":4608},{"buffer":0,"byteOffset":44544,"byteLength":4608},{"buffer":0,"byteOffset":49152,"byteLength":4608},{"buffer":0,"byteOffset":53760,"byteLength":4608},{"buffer":0,"byteOffset":58368,"byteLength":4608},{"buffer":0,"byteOffset":62976,"byteLength":4608},{"buffer":0,"byteOffset":67584,"byteLength":4608},{"buffer":0,"byteOffset":72192,"byteLength":4608},{"buffer":0,"byteOffset":76800,"byteLength":4608},{"buffer":0,"byteOffset":81408,"byteLength":4608},{"buffer":0,"byteOffset":86016,"byteLength":4608},{"buffer":0,"byteOffset":90624,"byteLength":4608},{"buffer":0,"byteOffset":95232,"byteLength":4608},{"buffer":0,"byteOffset":99840,"byteLength":4608},{"buffer":0,"byteOffset":104448,"byteLength":3840},{"buffer":0,"byteOffset":108288,"byteLength":1944},{"buffer":0,"byteOffset":110232,"byteLength":648},{"buffer":0,"byteOffset":110880,"byteLength":1944},{"buffer":0,"byteOffset":112824,"byteLength":1944},{"buffer":0,"byteOffset":114768,"byteLength":648},{"buffer":0,"byteOffset":115416,"byteLength":1944}],"extras":{"uraiModelId":"focus-star-tunnel-v1","productionClass":"modular-first-pass","generatedBy":"scripts/generate-real-spatial-models-v1.py","units":"meters"}}
