{"asset":{"version":"2.0","generator":"URAI compact URAI Focus Memory Chamber production variant"},"scene":0,"scenes":[{"name":"URAI Focus Memory Chamber","nodes":[0,1,2,3,4,5]}],"nodes":[{"name":"focus-ring-0","mesh":0},{"name":"focus-ring-1","mesh":1},{"name":"focus-ring-2","mesh":2},{"name":"focus-ring-3","mesh":3},{"name":"selected-memory-core","mesh":4},{"name":"focus-plinth","mesh":5}],"meshes":[{"name":"focus-ring-0","primitives":[{"attributes":{"POSITION":1},"indices":0,"material":1,"mode":1}]},{"name":"focus-ring-1","primitives":[{"attributes":{"POSITION":3},"indices":2,"material":2,"mode":1}]},{"name":"focus-ring-2","primitives":[{"attributes":{"POSITION":5},"indices":4,"material":1,"mode":1}]},{"name":"focus-ring-3","primitives":[{"attributes":{"POSITION":7},"indices":6,"material":2,"mode":1}]},{"name":"selected-memory-core","primitives":[{"attributes":{"POSITION":9},"indices":8,"material":3,"mode":4}]},{"name":"focus-plinth","primitives":[{"attributes":{"POSITION":11},"indices":10,"material":0,"mode":4}]}],"materials":[{"name":"obsidian","pbrMetallicRoughness":{"baseColorFactor":[0.02,0.025,0.05,1],"metallicFactor":0.6,"roughnessFactor":0.3}},{"name":"cyan","pbrMetallicRoughness":{"baseColorFactor":[0.08,0.75,1,1]},"emissiveFactor":[0,0.9,1]},{"name":"violet","pbrMetallicRoughness":{"baseColorFactor":[0.48,0.24,1,1]},"emissiveFactor":[0.55,0.18,1]},{"name":"gold","pbrMetallicRoughness":{"baseColorFactor":[1,0.62,0.2,1]},"emissiveFactor":[0.5,0.22,0.04]}],"buffers":[{"byteLength":1968,"uri":"data:application/octet-stream;base64,"}],"bufferViews":[{"buffer":0,"byteOffset":0,"byteLength":96,"target":34963},{"buffer":0,"byteOffset":96,"byteLength":288,"target":34962},{"buffer":0,"byteOffset":384,"byteLength":96,"target":34963},{"buffer":0,"byteOffset":480,"byteLength":288,"target":34962},{"buffer":0,"byteOffset":768,"byteLength":96,"target":34963},{"buffer":0,"byteOffset":864,"byteLength":288,"target":34962},{"buffer":0,"byteOffset":1152,"byteLength":96,"target":34963},{"buffer":0,"byteOffset":1248,"byteLength":288,"target":34962},{"buffer":0,"byteOffset":1536,"byteLength":120,"target":34963},{"buffer":0,"byteOffset":1656,"byteLength":144,"target":34962},{"buffer":0,"byteOffset":1800,"byteLength":72,"target":34963},{"buffer":0,"byteOffset":1872,"byteLength":96,"target":34962}],"accessors":[{"bufferView":0,"componentType":5123,"count":48,"type":"SCALAR","min":[0],"max":[23]},{"bufferView":1,"componentType":5126,"count":24,"type":"VEC3","min":[-2.5,-2.5,0.0],"max":[2.5,2.5,0.0]},{"bufferView":2,"componentType":5123,"count":48,"type":"SCALAR","min":[0],"max":[23]},{"bufferView":3,"componentType":5126,"count":24,"type":"VEC3","min":[-2.0,-2.0,-1.7000000476837158],"max":[2.0,2.0,-1.7000000476837158]},{"bufferView":4,"componentType":5123,"count":48,"type":"SCALAR","min":[0],"max":[23]},{"bufferView":5,"componentType":5126,"count":24,"type":"VEC3","min":[-1.4500000476837158,-1.4500000476837158,-3.200000047683716],"max":[1.4500000476837158,1.4500000476837158,-3.200000047683716]},{"bufferView":6,"componentType":5123,"count":48,"type":"SCALAR","min":[0],"max":[23]},{"bufferView":7,"componentType":5126,"count":24,"type":"VEC3","min":[-0.949999988079071,-0.949999988079071,-4.5],"max":[0.949999988079071,0.949999988079071,-4.5]},{"bufferView":8,"componentType":5123,"count":60,"type":"SCALAR","min":[0],"max":[11]},{"bufferView":9,"componentType":5126,"count":12,"type":"VEC3","min":[-0.4678579568862915,-0.4678579568862915,-6.06785774230957],"max":[0.4678579568862915,0.4678579568862915,-5.132142066955566]},{"bufferView":10,"componentType":5123,"count":36,"type":"SCALAR","min":[0],"max":[7]},{"bufferView":11,"componentType":5126,"count":8,"type":"VEC3","min":[-2.4000000953674316,-2.240000009536743,-7.199999809265137],"max":[2.4000000953674316,-1.9600000381469727,-4.0]}]}