{"asset":{"version":"2.0","generator":"URAI compact Ground production variant"},"scene":0,"scenes":[{"name":"URAI Ground World","nodes":[0,1,2,3,4]}],"nodes":[{"name":"platform","mesh":0},{"name":"path-left","mesh":1},{"name":"path-center","mesh":2},{"name":"path-right","mesh":3},{"name":"landing-ring","mesh":4}],"meshes":[{"name":"platform","primitives":[{"attributes":{"POSITION":1},"indices":0,"material":0,"mode":4}]},{"name":"path-left","primitives":[{"attributes":{"POSITION":3},"indices":2,"material":1,"mode":4}]},{"name":"path-center","primitives":[{"attributes":{"POSITION":5},"indices":4,"material":2,"mode":4}]},{"name":"path-right","primitives":[{"attributes":{"POSITION":7},"indices":6,"material":1,"mode":4}]},{"name":"landing-ring","primitives":[{"attributes":{"POSITION":9},"indices":8,"material":2,"mode":1}]}],"materials":[{"name":"obsidian","pbrMetallicRoughness":{"baseColorFactor":[0.02,0.025,0.05,1],"metallicFactor":0.5,"roughnessFactor":0.6}},{"name":"violet-path","pbrMetallicRoughness":{"baseColorFactor":[0.25,0.08,0.7,1]},"emissiveFactor":[0.4,0.1,0.8]},{"name":"cyan-path","pbrMetallicRoughness":{"baseColorFactor":[0.05,0.5,0.8,1]},"emissiveFactor":[0,0.7,1]}],"buffers":[{"byteLength":1056,"uri":"data:application/octet-stream;base64,"}],"bufferViews":[{"buffer":0,"byteOffset":0,"byteLength":72,"target":34963},{"buffer":0,"byteOffset":72,"byteLength":96,"target":34962},{"buffer":0,"byteOffset":168,"byteLength":72,"target":34963},{"buffer":0,"byteOffset":240,"byteLength":96,"target":34962},{"buffer":0,"byteOffset":336,"byteLength":72,"target":34963},{"buffer":0,"byteOffset":408,"byteLength":96,"target":34962},{"buffer":0,"byteOffset":504,"byteLength":72,"target":34963},{"buffer":0,"byteOffset":576,"byteLength":96,"target":34962},{"buffer":0,"byteOffset":672,"byteLength":96,"target":34963},{"buffer":0,"byteOffset":768,"byteLength":288,"target":34962}],"accessors":[{"bufferView":0,"componentType":5123,"count":36,"type":"SCALAR","min":[0],"max":[7]},{"bufferView":1,"componentType":5126,"count":8,"type":"VEC3","min":[-11.0,-0.4000000059604645,-9.0],"max":[11.0,0.0,9.0]},{"bufferView":2,"componentType":5123,"count":36,"type":"SCALAR","min":[0],"max":[7]},{"bufferView":3,"componentType":5126,"count":8,"type":"VEC3","min":[-4.75,0.0,-3.5],"max":[-3.6500000953674316,0.1599999964237213,6.5]},{"bufferView":4,"componentType":5123,"count":36,"type":"SCALAR","min":[0],"max":[7]},{"bufferView":5,"componentType":5126,"count":8,"type":"VEC3","min":[-0.550000011920929,0.0,-3.299999952316284],"max":[0.550000011920929,0.1599999964237213,7.699999809265137]},{"bufferView":6,"componentType":5123,"count":36,"type":"SCALAR","min":[0],"max":[7]},{"bufferView":7,"componentType":5126,"count":8,"type":"VEC3","min":[3.6500000953674316,0.0,-3.5],"max":[4.75,0.1599999964237213,6.5]},{"bufferView":8,"componentType":5123,"count":48,"type":"SCALAR","min":[0],"max":[23]},{"bufferView":9,"componentType":5126,"count":24,"type":"VEC3","min":[-2.5999999046325684,0.14000000059604645,-7.0],"max":[2.5999999046325684,0.14000000059604645,-1.7999999523162842]}]}