{"asset":{"version":"2.0","generator":"URAI compact Home production variant"},"scene":0,"scenes":[{"name":"URAI Home Entry Chamber","nodes":[0,1,2,3,4]}],"nodes":[{"name":"threshold-floor","mesh":0},{"name":"left-fin","mesh":1},{"name":"right-fin","mesh":2},{"name":"threshold-ring","mesh":3},{"name":"sky-portal","mesh":4}],"meshes":[{"name":"threshold-floor","primitives":[{"attributes":{"POSITION":1},"indices":0,"material":0,"mode":4}]},{"name":"left-fin","primitives":[{"attributes":{"POSITION":3},"indices":2,"material":2,"mode":4}]},{"name":"right-fin","primitives":[{"attributes":{"POSITION":5},"indices":4,"material":2,"mode":4}]},{"name":"threshold-ring","primitives":[{"attributes":{"POSITION":7},"indices":6,"material":1,"mode":1}]},{"name":"sky-portal","primitives":[{"attributes":{"POSITION":9},"indices":8,"material":1,"mode":1}]}],"materials":[{"name":"obsidian","pbrMetallicRoughness":{"baseColorFactor":[0.02,0.025,0.05,1],"metallicFactor":0.72,"roughnessFactor":0.24}},{"name":"cyan","pbrMetallicRoughness":{"baseColorFactor":[0.08,0.75,1,1]},"emissiveFactor":[0,0.9,1]},{"name":"violet","pbrMetallicRoughness":{"baseColorFactor":[0.48,0.24,1,1]},"emissiveFactor":[0.55,0.18,1]}],"buffers":[{"byteLength":1528,"uri":"data:application/octet-stream;base64,"}],"bufferViews":[{"buffer":0,"byteOffset":0,"byteLength":72,"target":34963},{"buffer":0,"byteOffset":72,"byteLength":96,"target":34962},{"buffer":0,"byteOffset":168,"byteLength":72,"target":34963},{"buffer":0,"byteOffset":240,"byteLength":96,"target":34962},{"buffer":0,"byteOffset":336,"byteLength":72,"target":34963},{"buffer":0,"byteOffset":408,"byteLength":96,"target":34962},{"buffer":0,"byteOffset":504,"byteLength":128,"target":34963},{"buffer":0,"byteOffset":632,"byteLength":384,"target":34962},{"buffer":0,"byteOffset":1016,"byteLength":128,"target":34963},{"buffer":0,"byteOffset":1144,"byteLength":384,"target":34962}],"accessors":[{"bufferView":0,"componentType":5123,"count":36,"type":"SCALAR","min":[0],"max":[7]},{"bufferView":1,"componentType":5126,"count":8,"type":"VEC3","min":[-6.5,-0.30000001192092896,-6.5],"max":[6.5,0.0,6.5]},{"bufferView":2,"componentType":5123,"count":36,"type":"SCALAR","min":[0],"max":[7]},{"bufferView":3,"componentType":5126,"count":8,"type":"VEC3","min":[-4.824999809265137,-0.10000000149011612,-3.950000047683716],"max":[-4.375,4.300000190734863,1.5499999523162842]},{"bufferView":4,"componentType":5123,"count":36,"type":"SCALAR","min":[0],"max":[7]},{"bufferView":5,"componentType":5126,"count":8,"type":"VEC3","min":[4.375,-0.10000000149011612,-3.950000047683716],"max":[4.824999809265137,4.300000190734863,1.5499999523162842]},{"bufferView":6,"componentType":5123,"count":64,"type":"SCALAR","min":[0],"max":[31]},{"bufferView":7,"componentType":5126,"count":32,"type":"VEC3","min":[-2.700000047683716,0.20000000298023224,-2.700000047683716],"max":[2.700000047683716,0.20000000298023224,2.700000047683716]},{"bufferView":8,"componentType":5123,"count":64,"type":"SCALAR","min":[0],"max":[31]},{"bufferView":9,"componentType":5126,"count":32,"type":"VEC3","min":[-3.200000047683716,-0.10000000149011612,-4.199999809265137],"max":[3.200000047683716,6.300000190734863,-4.199999809265137]}]}