{"asset":{"version":"2.0","generator":"URAI compact URAI Life Map Memory Star production variant"},"scene":0,"scenes":[{"name":"URAI Life Map Memory Star","nodes":[0,1]}],"nodes":[{"name":"memory-star-core","mesh":0},{"name":"memory-star-orbit","mesh":1}],"meshes":[{"name":"memory-star-core","primitives":[{"attributes":{"POSITION":1},"indices":0,"material":1,"mode":4}]},{"name":"memory-star-orbit","primitives":[{"attributes":{"POSITION":3},"indices":2,"material":2,"mode":1}]}],"materials":[{"name":"obsidian","pbrMetallicRoughness":{"baseColorFactor":[0.02,0.025,0.05,1],"metallicFactor":0.6,"roughnessFactor":0.3}},{"name":"cyan","pbrMetallicRoughness":{"baseColorFactor":[0.08,0.75,1,1]},"emissiveFactor":[0,0.9,1]},{"name":"violet","pbrMetallicRoughness":{"baseColorFactor":[0.48,0.24,1,1]},"emissiveFactor":[0.55,0.18,1]},{"name":"gold","pbrMetallicRoughness":{"baseColorFactor":[1,0.62,0.2,1]},"emissiveFactor":[0.5,0.22,0.04]}],"buffers":[{"byteLength":648,"uri":"data:application/octet-stream;base64,"}],"bufferViews":[{"buffer":0,"byteOffset":0,"byteLength":120,"target":34963},{"buffer":0,"byteOffset":120,"byteLength":144,"target":34962},{"buffer":0,"byteOffset":264,"byteLength":96,"target":34963},{"buffer":0,"byteOffset":360,"byteLength":288,"target":34962}],"accessors":[{"bufferView":0,"componentType":5123,"count":60,"type":"SCALAR","min":[0],"max":[11]},{"bufferView":1,"componentType":5126,"count":12,"type":"VEC3","min":[-0.35727331042289734,-0.35727331042289734,-0.35727331042289734],"max":[0.35727331042289734,0.35727331042289734,0.35727331042289734]},{"bufferView":2,"componentType":5123,"count":48,"type":"SCALAR","min":[0],"max":[23]},{"bufferView":3,"componentType":5126,"count":24,"type":"VEC3","min":[-1.0800000429153442,-1.0800000429153442,0.0],"max":[1.0800000429153442,1.0800000429153442,0.0]}]}