{"asset":{"version":"2.0","generator":"URAI compact URAI Replay Memory Environment production variant"},"scene":0,"scenes":[{"name":"URAI Replay Memory Environment","nodes":[0,1,2,3,4,5]}],"nodes":[{"name":"floor","mesh":0},{"name":"screen","mesh":1},{"name":"frame-left","mesh":2},{"name":"frame-right","mesh":3},{"name":"timeline","mesh":4},{"name":"replay-entry-portal","mesh":5}],"meshes":[{"name":"floor","primitives":[{"attributes":{"POSITION":1},"indices":0,"material":0,"mode":4}]},{"name":"screen","primitives":[{"attributes":{"POSITION":3},"indices":2,"material":1,"mode":4}]},{"name":"frame-left","primitives":[{"attributes":{"POSITION":5},"indices":4,"material":2,"mode":4}]},{"name":"frame-right","primitives":[{"attributes":{"POSITION":7},"indices":6,"material":2,"mode":4}]},{"name":"timeline","primitives":[{"attributes":{"POSITION":9},"indices":8,"material":3,"mode":4}]},{"name":"replay-entry-portal","primitives":[{"attributes":{"POSITION":11},"indices":10,"material":1,"mode":1}]}],"materials":[{"name":"obsidian","pbrMetallicRoughness":{"baseColorFactor":[0.02,0.025,0.05,1],"metallicFactor":0.6,"roughnessFactor":0.3}},{"name":"cyan","pbrMetallicRoughness":{"baseColorFactor":[0.08,0.75,1,1]},"emissiveFactor":[0,0.9,1]},{"name":"violet","pbrMetallicRoughness":{"baseColorFactor":[0.48,0.24,1,1]},"emissiveFactor":[0.55,0.18,1]},{"name":"gold","pbrMetallicRoughness":{"baseColorFactor":[1,0.62,0.2,1]},"emissiveFactor":[0.5,0.22,0.04]}],"buffers":[{"byteLength":1224,"uri":"data:application/octet-stream;base64,"}],"bufferViews":[{"buffer":0,"byteOffset":0,"byteLength":72,"target":34963},{"buffer":0,"byteOffset":72,"byteLength":96,"target":34962},{"buffer":0,"byteOffset":168,"byteLength":72,"target":34963},{"buffer":0,"byteOffset":240,"byteLength":96,"target":34962},{"buffer":0,"byteOffset":336,"byteLength":72,"target":34963},{"buffer":0,"byteOffset":408,"byteLength":96,"target":34962},{"buffer":0,"byteOffset":504,"byteLength":72,"target":34963},{"buffer":0,"byteOffset":576,"byteLength":96,"target":34962},{"buffer":0,"byteOffset":672,"byteLength":72,"target":34963},{"buffer":0,"byteOffset":744,"byteLength":96,"target":34962},{"buffer":0,"byteOffset":840,"byteLength":96,"target":34963},{"buffer":0,"byteOffset":936,"byteLength":288,"target":34962}],"accessors":[{"bufferView":0,"componentType":5123,"count":36,"type":"SCALAR","min":[0],"max":[7]},{"bufferView":1,"componentType":5126,"count":8,"type":"VEC3","min":[-7.0,-2.575000047683716,-9.5],"max":[7.0,-2.2249999046325684,6.5]},{"bufferView":2,"componentType":5123,"count":36,"type":"SCALAR","min":[0],"max":[7]},{"bufferView":3,"componentType":5126,"count":8,"type":"VEC3","min":[-3.9000000953674316,-1.600000023841858,-6.289999961853027],"max":[3.9000000953674316,2.799999952316284,-6.110000133514404]},{"bufferView":4,"componentType":5123,"count":36,"type":"SCALAR","min":[0],"max":[7]},{"bufferView":5,"componentType":5126,"count":8,"type":"VEC3","min":[-4.375,-2.0,-6.300000190734863],"max":[-4.025000095367432,3.200000047683716,-5.900000095367432]},{"bufferView":6,"componentType":5123,"count":36,"type":"SCALAR","min":[0],"max":[7]},{"bufferView":7,"componentType":5126,"count":8,"type":"VEC3","min":[4.025000095367432,-2.0,-6.300000190734863],"max":[4.375,3.200000047683716,-5.900000095367432]},{"bufferView":8,"componentType":5123,"count":36,"type":"SCALAR","min":[0],"max":[7]},{"bufferView":9,"componentType":5126,"count":8,"type":"VEC3","min":[-4.300000190734863,-1.7699999809265137,-1.3250000476837158],"max":[4.300000190734863,-1.6299999952316284,-1.0750000476837158]},{"bufferView":10,"componentType":5123,"count":48,"type":"SCALAR","min":[0],"max":[23]},{"bufferView":11,"componentType":5126,"count":24,"type":"VEC3","min":[-2.799999952316284,-2.799999952316284,2.799999952316284],"max":[2.799999952316284,2.799999952316284,2.799999952316284]}]}