{"asset":{"version":"2.0","generator":"URAI compact embedded production orb"},"scene":0,"scenes":[{"name":"URAI Orb Avatar","nodes":[0,1,2]}],"nodes":[{"name":"orb-core","mesh":0},{"name":"orb-equatorial-ring","mesh":1},{"name":"orb-polar-ring","mesh":2}],"meshes":[{"name":"orb-core","primitives":[{"attributes":{"POSITION":1,"NORMAL":2},"indices":0,"material":0}]},{"name":"orb-equatorial-ring","primitives":[{"attributes":{"POSITION":4},"indices":3,"material":1,"mode":1}]},{"name":"orb-polar-ring","primitives":[{"attributes":{"POSITION":5},"indices":3,"material":2,"mode":1}]}],"materials":[{"name":"cyan-core","pbrMetallicRoughness":{"baseColorFactor":[0.08,0.75,1,1],"metallicFactor":0.14,"roughnessFactor":0.16},"emissiveFactor":[0,0.9,1]},{"name":"violet-ring","pbrMetallicRoughness":{"baseColorFactor":[0.48,0.24,1,1],"metallicFactor":0.05,"roughnessFactor":0.12},"emissiveFactor":[0.55,0.18,1]},{"name":"gold-ring","pbrMetallicRoughness":{"baseColorFactor":[1,0.62,0.2,1],"metallicFactor":0.55,"roughnessFactor":0.18},"emissiveFactor":[0.5,0.22,0.04]}],"buffers":[{"byteLength":1304,"uri":"data:application/octet-stream;base64,"}],"bufferViews":[{"buffer":0,"byteOffset":0,"byteLength":120,"target":34963},{"buffer":0,"byteOffset":120,"byteLength":144,"target":34962},{"buffer":0,"byteOffset":264,"byteLength":144,"target":34962},{"buffer":0,"byteOffset":408,"byteLength":128,"target":34963},{"buffer":0,"byteOffset":536,"byteLength":384,"target":34962},{"buffer":0,"byteOffset":920,"byteLength":384,"target":34962}],"accessors":[{"bufferView":0,"componentType":5123,"count":60,"type":"SCALAR","min":[0],"max":[11]},{"bufferView":1,"componentType":5126,"count":12,"type":"VEC3","min":[-0.28922125697135925,-0.28922125697135925,-0.28922125697135925],"max":[0.28922125697135925,0.28922125697135925,0.28922125697135925]},{"bufferView":2,"componentType":5126,"count":12,"type":"VEC3"},{"bufferView":3,"componentType":5123,"count":64,"type":"SCALAR","min":[0],"max":[31]},{"bufferView":4,"componentType":5126,"count":32,"type":"VEC3","min":[-0.6200000047683716,-0.6200000047683716,0.0],"max":[0.6200000047683716,0.6200000047683716,0.0]},{"bufferView":5,"componentType":5126,"count":32,"type":"VEC3","min":[-0.6200000047683716,0.0,-0.6200000047683716],"max":[0.6200000047683716,0.0,0.6200000047683716]}]}