{"scene":0,"scenes":[{"nodes":[0]}],"asset":{"version":"2.0","generator":"URAI deterministic spatial model forge v1","copyright":"URAI Labs"},"accessors":[{"componentType":5125,"type":"SCALAR","bufferView":0,"count":3840,"max":[641],"min":[0]},{"componentType":5126,"type":"VEC3","byteOffset":0,"bufferView":1,"count":642,"max":[6.0,6.0,6.0],"min":[-6.0,-6.0,-6.0]},{"componentType":5121,"normalized":true,"type":"VEC4","byteOffset":0,"bufferView":2,"count":642,"max":[9,15,28,255],"min":[9,15,28,255]},{"componentType":5126,"count":642,"type":"VEC3","byteOffset":0,"bufferView":3,"max":[1.0,1.0,1.0],"min":[-1.0,-1.0,-1.0]},{"componentType":5125,"type":"SCALAR","bufferView":4,"count":2592,"max":[431],"min":[0]},{"componentType":5126,"type":"VEC3","byteOffset":0,"bufferView":5,"count":432,"max":[4.824999809265137,0.021650634706020355,4.824999809265137],"min":[-4.824999809265137,-0.021650634706020355,-4.824999809265137]},{"componentType":5121,"normalized":true,"type":"VEC4","byteOffset":0,"bufferView":6,"count":432,"max":[69,178,255,255],"min":[69,178,255,255]},{"componentType":5126,"count":432,"type":"VEC3","byteOffset":0,"bufferView":7,"max":[1.0,0.8720362186431885,1.0],"min":[-1.0,-0.8720362186431885,-1.0]},{"componentType":5126,"type":"VEC3","byteOffset":0,"bufferView":8,"count":432,"max":[3.825000047683716,0.021650634706020355,3.825000047683716],"min":[-3.825000047683716,-0.021650634706020355,-3.825000047683716]},{"componentType":5121,"normalized":true,"type":"VEC4","byteOffset":0,"bufferView":9,"count":432,"max":[154,102,255,255],"min":[154,102,255,255]},{"componentType":5126,"count":432,"type":"VEC3","byteOffset":0,"bufferView":10,"max":[1.0,0.8720362186431885,1.0],"min":[-1.0,-0.8720362186431885,-1.0]},{"componentType":5126,"type":"VEC3","byteOffset":0,"bufferView":11,"count":432,"max":[2.825000047683716,0.021650634706020355,2.825000047683716],"min":[-2.825000047683716,-0.021650634706020355,-2.825000047683716]},{"componentType":5121,"normalized":true,"type":"VEC4","byteOffset":0,"bufferView":12,"count":432,"max":[90,244,255,255],"min":[90,244,255,255]},{"componentType":5126,"count":432,"type":"VEC3","byteOffset":0,"bufferView":13,"max":[1.0,0.8720362186431885,1.0],"min":[-1.0,-0.8720362186431885,-1.0]},{"componentType":5125,"type":"SCALAR","bufferView":14,"count":240,"max":[41],"min":[0]},{"componentType":5126,"type":"VEC3","byteOffset":0,"bufferView":15,"count":42,"max":[4.545000076293945,0.04500000178813934,0.04500000178813934],"min":[4.454999923706055,-0.04500000178813934,-0.04500000178813934]},{"componentType":5121,"normalized":true,"type":"VEC4","byteOffset":0,"bufferView":16,"count":42,"max":[230,247,255,255],"min":[230,247,255,255]},{"componentType":5126,"count":42,"type":"VEC3","byteOffset":0,"bufferView":17,"max":[1.0,1.0,1.0],"min":[-1.0,-1.0,-1.0]},{"componentType":5126,"type":"VEC3","byteOffset":0,"bufferView":18,"count":42,"max":[4.4966349601745605,1.254997730255127,0.8464167714118958],"min":[4.366634845733643,1.1249977350234985,0.7164167761802673]},{"componentType":5126,"count":42,"type":"VEC3","byteOffset":0,"bufferView":19,"max":[1.0,1.0,1.0],"min":[-1.0,-1.0,-1.0]},{"componentType":5126,"type":"VEC3","byteOffset":0,"bufferView":20,"count":42,"max":[4.313616752624512,-0.22164931893348694,1.6240906715393066],"min":[4.143616676330566,-0.3916493356227875,1.4540905952453613]},{"componentType":5126,"count":42,"type":"VEC3","byteOffset":0,"bufferView":21,"max":[1.0,1.0,1.0],"min":[-1.0,-1.0,-1.0]},{"componentType":5126,"type":"VEC3","byteOffset":0,"bufferView":22,"count":42,"max":[3.9421143531799316,-1.0659775733947754,2.2950000762939453],"min":[3.852114200592041,-1.1559776067733765,2.2049999237060547]},{"componentType":5126,"count":42,"type":"VEC3","byteOffset":0,"bufferView":23,"max":[1.0,1.0,1.0],"min":[-1.0,-1.0,-1.0]},{"componentType":5126,"type":"VEC3","byteOffset":0,"bufferView":24,"count":42,"max":[3.512199878692627,0.6579360365867615,2.9575443267822266],"min":[3.382200002670288,0.5279360413551331,2.8275442123413086]},{"componentType":5126,"count":42,"type":"VEC3","byteOffset":0,"bufferView":25,"max":[1.0,1.0,1.0],"min":[-1.0,-1.0,-1.0]},{"componentType":5126,"type":"VEC3","byteOffset":0,"bufferView":26,"count":42,"max":[2.9775443077087402,1.043184518814087,3.5322000980377197],"min":[2.807544231414795,0.8731845617294312,3.3622000217437744]},{"componentType":5126,"count":42,"type":"VEC3","byteOffset":0,"bufferView":27,"max":[1.0,1.0,1.0],"min":[-1.0,-1.0,-1.0]},{"componentType":5126,"type":"VEC3","byteOffset":0,"bufferView":28,"count":42,"max":[2.2950000762939453,-0.7948496341705322,3.9421143531799316],"min":[2.2049999237060547,-0.8848496079444885,3.852114200592041]},{"componentType":5126,"count":42,"type":"VEC3","byteOffset":0,"bufferView":29,"max":[1.0,1.0,1.0],"min":[-1.0,-1.0,-1.0]},{"componentType":5126,"type":"VEC3","byteOffset":0,"bufferView":30,"count":42,"max":[1.604090690612793,-0.6767645478248596,4.293616771697998],"min":[1.4740906953811646,-0.806764543056488,4.16361665725708]},{"componentType":5126,"count":42,"type":"VEC3","byteOffset":0,"bufferView":31,"max":[1.0,1.0,1.0],"min":[-1.0,-1.0,-1.0]},{"componentType":5126,"type":"VEC3","byteOffset":0,"bufferView":32,"count":42,"max":[0.8664168119430542,1.1159942150115967,4.516634941101074],"min":[0.6964167952537537,0.9459941983222961,4.346634864807129]},{"componentType":5126,"count":42,"type":"VEC3","byteOffset":0,"bufferView":33,"max":[1.0,1.0,1.0],"min":[-1.0,-1.0,-1.0]},{"componentType":5126,"type":"VEC3","byteOffset":0,"bufferView":34,"count":42,"max":[0.04500000178813934,0.5210886597633362,4.545000076293945],"min":[-0.04500000178813934,0.4310886859893799,4.454999923706055]},{"componentType":5126,"count":42,"type":"VEC3","byteOffset":0,"bufferView":35,"max":[1.0,1.0,1.0],"min":[-1.0,-1.0,-1.0]},{"componentType":5126,"type":"VEC3","byteOffset":0,"bufferView":36,"count":42,"max":[-0.7164167761802673,-1.0886770486831665,4.4966349601745605],"min":[-0.8464167714118958,-1.218677043914795,4.366634845733643]},{"componentType":5126,"count":42,"type":"VEC3","byteOffset":0,"bufferView":37,"max":[1.0,1.0,1.0],"min":[-1.0,-1.0,-1.0]},{"componentType":5126,"type":"VEC3","byteOffset":0,"bufferView":38,"count":42,"max":[-1.4540905952453613,-0.09379883110523224,4.313616752624512],"min":[-1.6240906715393066,-0.2637988328933716,4.143616676330566]},{"componentType":5126,"count":42,"type":"VEC3","byteOffset":0,"bufferView":39,"max":[1.0,1.0,1.0],"min":[-1.0,-1.0,-1.0]},{"componentType":5126,"type":"VEC3","byteOffset":0,"bufferView":40,"count":42,"max":[-2.2049999237060547,1.2447514533996582,3.9421143531799316],"min":[-2.2950000762939453,1.1547515392303467,3.852114200592041]},{"componentType":5126,"count":42,"type":"VEC3","byteOffset":0,"bufferView":41,"max":[1.0,1.0,1.0],"min":[-1.0,-1.0,-1.0]},{"componentType":5126,"type":"VEC3","byteOffset":0,"bufferView":42,"count":42,"max":[-2.8275442123413086,-0.06536391377449036,3.512199878692627],"min":[-2.9575443267822266,-0.19536390900611877,3.382200002670288]},{"componentType":5126,"count":42,"type":"VEC3","byteOffset":0,"bufferView":43,"max":[1.0,1.0,1.0],"min":[-1.0,-1.0,-1.0]},{"componentType":5126,"type":"VEC3","byteOffset":0,"bufferView":44,"count":42,"max":[-3.3622000217437744,-1.08115816116333,2.9775443077087402],"min":[-3.5322000980377197,-1.2511581182479858,2.807544231414795]},{"componentType":5126,"count":42,"type":"VEC3","byteOffset":0,"bufferView":45,"max":[1.0,1.0,1.0],"min":[-1.0,-1.0,-1.0]},{"componentType":5126,"type":"VEC3","byteOffset":0,"bufferView":46,"count":42,"max":[-3.852114200592041,0.4758700132369995,2.2950000762939453],"min":[-3.9421143531799316,0.3858700394630432,2.2049999237060547]},{"componentType":5126,"count":42,"type":"VEC3","byteOffset":0,"bufferView":47,"max":[1.0,1.0,1.0],"min":[-1.0,-1.0,-1.0]},{"componentType":5126,"type":"VEC3","byteOffset":0,"bufferView":48,"count":42,"max":[-4.16361665725708,1.1201276779174805,1.604090690612793],"min":[-4.293616771697998,0.990127682685852,1.4740906953811646]},{"componentType":5126,"count":42,"type":"VEC3","byteOffset":0,"bufferView":49,"max":[1.0,1.0,1.0],"min":[-1.0,-1.0,-1.0]},{"componentType":5126,"type":"VEC3","byteOffset":0,"bufferView":50,"count":42,"max":[-4.346634864807129,-0.6177648305892944,0.8664168119430542],"min":[-4.516634941101074,-0.7877647876739502,0.6964167952537537]},{"componentType":5126,"count":42,"type":"VEC3","byteOffset":0,"bufferView":51,"max":[1.0,1.0,1.0],"min":[-1.0,-1.0,-1.0]},{"componentType":5126,"type":"VEC3","byteOffset":0,"bufferView":52,"count":42,"max":[-4.454999923706055,-0.8290328979492188,0.04500000178813934],"min":[-4.545000076293945,-0.9190329313278198,-0.04500000178813934]},{"componentType":5126,"count":42,"type":"VEC3","byteOffset":0,"bufferView":53,"max":[1.0,1.0,1.0],"min":[-1.0,-1.0,-1.0]},{"componentType":5126,"type":"VEC3","byteOffset":0,"bufferView":54,"count":42,"max":[-4.366634845733643,0.9929934740066528,-0.7164167761802673],"min":[-4.4966349601745605,0.8629934787750244,-0.8464167714118958]},{"componentType":5126,"count":42,"type":"VEC3","byteOffset":0,"bufferView":55,"max":[1.0,1.0,1.0],"min":[-1.0,-1.0,-1.0]},{"componentType":5126,"type":"VEC3","byteOffset":0,"bufferView":56,"count":42,"max":[-4.143616676330566,0.7198992371559143,-1.4540905952453613],"min":[-4.313616752624512,0.5498992204666138,-1.6240906715393066]},{"componentType":5126,"count":42,"type":"VEC3","byteOffset":0,"bufferView":57,"max":[1.0,1.0,1.0],"min":[-1.0,-1.0,-1.0]},{"componentType":5126,"type":"VEC3","byteOffset":0,"bufferView":58,"count":42,"max":[-3.852114200592041,-1.0465999841690063,-2.2049999237060547],"min":[-3.9421143531799316,-1.1366000175476074,-2.2950000762939453]},{"componentType":5126,"type":"VEC3","byteOffset":0,"bufferView":59,"count":42,"max":[-3.382200002670288,-0.2886059284210205,-2.8275442123413086],"min":[-3.512199878692627,-0.4186059236526489,-2.9575443267822266]},{"componentType":5126,"type":"VEC3","byteOffset":0,"bufferView":60,"count":42,"max":[-2.807544231414795,1.267720341682434,-3.3622000217437744],"min":[-2.9775443077087402,1.0977203845977783,-3.5322000980377197]},{"componentType":5126,"count":42,"type":"VEC3","byteOffset":0,"bufferView":61,"max":[1.0,1.0,1.0],"min":[-1.0,-1.0,-1.0]},{"componentType":5126,"type":"VEC3","byteOffset":0,"bufferView":62,"count":42,"max":[-2.2049999237060547,0.09383191168308258,-3.852114200592041],"min":[-2.2950000762939453,0.003831908805295825,-3.9421143531799316]},{"componentType":5126,"count":42,"type":"VEC3","byteOffset":0,"bufferView":63,"max":[1.0,1.0,1.0],"min":[-1.0,-1.0,-1.0]},{"componentType":5126,"type":"VEC3","byteOffset":0,"bufferView":64,"count":42,"max":[-1.4740906953811646,-1.1303038597106934,-4.16361665725708],"min":[-1.604090690612793,-1.2603038549423218,-4.293616771697998]},{"componentType":5126,"count":42,"type":"VEC3","byteOffset":0,"bufferView":65,"max":[1.0,1.0,1.0],"min":[-1.0,-1.0,-1.0]},{"componentType":5126,"type":"VEC3","byteOffset":0,"bufferView":66,"count":42,"max":[-0.6964167952537537,0.3441847264766693,-4.346634864807129],"min":[-0.8664168119430542,0.17418472468852997,-4.516634941101074]},{"componentType":5126,"count":42,"type":"VEC3","byteOffset":0,"bufferView":67,"max":[1.0,1.0,1.0],"min":[-1.0,-1.0,-1.0]},{"componentType":5126,"type":"VEC3","byteOffset":0,"bufferView":68,"count":42,"max":[0.04500000178813934,1.173514723777771,-4.454999923706055],"min":[-0.04500000178813934,1.0835148096084595,-4.545000076293945]},{"componentType":5126,"count":42,"type":"VEC3","byteOffset":0,"bufferView":69,"max":[1.0,1.0,1.0],"min":[-1.0,-1.0,-1.0]},{"componentType":5126,"type":"VEC3","byteOffset":0,"bufferView":70,"count":42,"max":[0.8464167714118958,-0.48499053716659546,-4.366634845733643],"min":[0.7164167761802673,-0.6149905323982239,-4.4966349601745605]},{"componentType":5126,"count":42,"type":"VEC3","byteOffset":0,"bufferView":71,"max":[1.0,1.0,1.0],"min":[-1.0,-1.0,-1.0]},{"componentType":5126,"type":"VEC3","byteOffset":0,"bufferView":72,"count":42,"max":[1.6240906715393066,-0.9017882347106934,-4.143616676330566],"min":[1.4540905952453613,-1.0717881917953491,-4.313616752624512]},{"componentType":5126,"count":42,"type":"VEC3","byteOffset":0,"bufferView":73,"max":[1.0,1.0,1.0],"min":[-1.0,-1.0,-1.0]},{"componentType":5126,"type":"VEC3","byteOffset":0,"bufferView":74,"count":42,"max":[2.2950000762939453,0.8492749929428101,-3.852114200592041],"min":[2.2049999237060547,0.7592750191688538,-3.9421143531799316]},{"componentType":5126,"type":"VEC3","byteOffset":0,"bufferView":75,"count":42,"max":[2.9575443267822266,0.8445354104042053,-3.382200002670288],"min":[2.8275442123413086,0.7145354151725769,-3.512199878692627]},{"componentType":5126,"count":42,"type":"VEC3","byteOffset":0,"bufferView":76,"max":[1.0,1.0,1.0],"min":[-1.0,-1.0,-1.0]},{"componentType":5126,"type":"VEC3","byteOffset":0,"bufferView":77,"count":42,"max":[3.5322000980377197,-0.9201527237892151,-2.807544231414795],"min":[3.3622000217437744,-1.0901527404785156,-2.9775443077087402]},{"componentType":5126,"count":42,"type":"VEC3","byteOffset":0,"bufferView":78,"max":[1.0,1.0,1.0],"min":[-1.0,-1.0,-1.0]},{"componentType":5126,"type":"VEC3","byteOffset":0,"bufferView":79,"count":42,"max":[3.9421143531799316,-0.4755186438560486,-2.2049999237060547],"min":[3.852114200592041,-0.5655186772346497,-2.2950000762939453]},{"componentType":5126,"type":"VEC3","byteOffset":0,"bufferView":80,"count":42,"max":[4.293616771697998,1.20428466796875,-1.4740906953811646],"min":[4.16361665725708,1.0742846727371216,-1.604090690612793]},{"componentType":5126,"count":42,"type":"VEC3","byteOffset":0,"bufferView":81,"max":[1.0,1.0,1.0],"min":[-1.0,-1.0,-1.0]},{"componentType":5126,"type":"VEC3","byteOffset":0,"bufferView":82,"count":42,"max":[4.516634941101074,0.311937540769577,-0.6964167952537537],"min":[4.346634864807129,0.14193753898143768,-0.8664168119430542]},{"componentType":5126,"count":42,"type":"VEC3","byteOffset":0,"bufferView":83,"max":[1.0,1.0,1.0],"min":[-1.0,-1.0,-1.0]}],"meshes":[{"name":"life-map-sky-dome-v1-mesh-00","extras":{"shape":"sphere","radius":6.0},"primitives":[{"attributes":{"POSITION":1,"COLOR_0":2,"NORMAL":3},"indices":0,"mode":4}]},{"name":"life-map-sky-dome-v1-mesh-01","extras":{"shape":"torus","major_radius":4.8,"minor_radius":0.025,"processed":true},"primitives":[{"attributes":{"POSITION":5,"COLOR_0":6,"NORMAL":7},"indices":4,"mode":4}]},{"name":"life-map-sky-dome-v1-mesh-02","extras":{"shape":"torus","major_radius":3.8,"minor_radius":0.025,"processed":true},"primitives":[{"attributes":{"POSITION":8,"COLOR_0":9,"NORMAL":10},"indices":4,"mode":4}]},{"name":"life-map-sky-dome-v1-mesh-03","extras":{"shape":"torus","major_radius":2.8,"minor_radius":0.025,"processed":true},"primitives":[{"attributes":{"POSITION":11,"COLOR_0":12,"NORMAL":13},"indices":4,"mode":4}]},{"name":"life-map-sky-dome-v1-mesh-04","extras":{"shape":"sphere","radius":0.045},"primitives":[{"attributes":{"POSITION":15,"COLOR_0":16,"NORMAL":17},"indices":14,"mode":4}]},{"name":"life-map-sky-dome-v1-mesh-05","extras":{"shape":"sphere","radius":0.065},"primitives":[{"attributes":{"POSITION":18,"COLOR_0":16,"NORMAL":19},"indices":14,"mode":4}]},{"name":"life-map-sky-dome-v1-mesh-06","extras":{"shape":"sphere","radius":0.08499999999999999},"primitives":[{"attributes":{"POSITION":20,"COLOR_0":16,"NORMAL":21},"indices":14,"mode":4}]},{"name":"life-map-sky-dome-v1-mesh-07","extras":{"shape":"sphere","radius":0.045},"primitives":[{"attributes":{"POSITION":22,"COLOR_0":16,"NORMAL":23},"indices":14,"mode":4}]},{"name":"life-map-sky-dome-v1-mesh-08","extras":{"shape":"sphere","radius":0.065},"primitives":[{"attributes":{"POSITION":24,"COLOR_0":16,"NORMAL":25},"indices":14,"mode":4}]},{"name":"life-map-sky-dome-v1-mesh-09","extras":{"shape":"sphere","radius":0.08499999999999999},"primitives":[{"attributes":{"POSITION":26,"COLOR_0":16,"NORMAL":27},"indices":14,"mode":4}]},{"name":"life-map-sky-dome-v1-mesh-10","extras":{"shape":"sphere","radius":0.045},"primitives":[{"attributes":{"POSITION":28,"COLOR_0":16,"NORMAL":29},"indices":14,"mode":4}]},{"name":"life-map-sky-dome-v1-mesh-11","extras":{"shape":"sphere","radius":0.065},"primitives":[{"attributes":{"POSITION":30,"COLOR_0":16,"NORMAL":31},"indices":14,"mode":4}]},{"name":"life-map-sky-dome-v1-mesh-12","extras":{"shape":"sphere","radius":0.08499999999999999},"primitives":[{"attributes":{"POSITION":32,"COLOR_0":16,"NORMAL":33},"indices":14,"mode":4}]},{"name":"life-map-sky-dome-v1-mesh-13","extras":{"shape":"sphere","radius":0.045},"primitives":[{"attributes":{"POSITION":34,"COLOR_0":16,"NORMAL":35},"indices":14,"mode":4}]},{"name":"life-map-sky-dome-v1-mesh-14","extras":{"shape":"sphere","radius":0.065},"primitives":[{"attributes":{"POSITION":36,"COLOR_0":16,"NORMAL":37},"indices":14,"mode":4}]},{"name":"life-map-sky-dome-v1-mesh-15","extras":{"shape":"sphere","radius":0.08499999999999999},"primitives":[{"attributes":{"POSITION":38,"COLOR_0":16,"NORMAL":39},"indices":14,"mode":4}]},{"name":"life-map-sky-dome-v1-mesh-16","extras":{"shape":"sphere","radius":0.045},"primitives":[{"attributes":{"POSITION":40,"COLOR_0":16,"NORMAL":41},"indices":14,"mode":4}]},{"name":"life-map-sky-dome-v1-mesh-17","extras":{"shape":"sphere","radius":0.065},"primitives":[{"attributes":{"POSITION":42,"COLOR_0":16,"NORMAL":43},"indices":14,"mode":4}]},{"name":"life-map-sky-dome-v1-mesh-18","extras":{"shape":"sphere","radius":0.08499999999999999},"primitives":[{"attributes":{"POSITION":44,"COLOR_0":16,"NORMAL":45},"indices":14,"mode":4}]},{"name":"life-map-sky-dome-v1-mesh-19","extras":{"shape":"sphere","radius":0.045},"primitives":[{"attributes":{"POSITION":46,"COLOR_0":16,"NORMAL":47},"indices":14,"mode":4}]},{"name":"life-map-sky-dome-v1-mesh-20","extras":{"shape":"sphere","radius":0.065},"primitives":[{"attributes":{"POSITION":48,"COLOR_0":16,"NORMAL":49},"indices":14,"mode":4}]},{"name":"life-map-sky-dome-v1-mesh-21","extras":{"shape":"sphere","radius":0.08499999999999999},"primitives":[{"attributes":{"POSITION":50,"COLOR_0":16,"NORMAL":51},"indices":14,"mode":4}]},{"name":"life-map-sky-dome-v1-mesh-22","extras":{"shape":"sphere","radius":0.045},"primitives":[{"attributes":{"POSITION":52,"COLOR_0":16,"NORMAL":53},"indices":14,"mode":4}]},{"name":"life-map-sky-dome-v1-mesh-23","extras":{"shape":"sphere","radius":0.065},"primitives":[{"attributes":{"POSITION":54,"COLOR_0":16,"NORMAL":55},"indices":14,"mode":4}]},{"name":"life-map-sky-dome-v1-mesh-24","extras":{"shape":"sphere","radius":0.08499999999999999},"primitives":[{"attributes":{"POSITION":56,"COLOR_0":16,"NORMAL":57},"indices":14,"mode":4}]},{"name":"life-map-sky-dome-v1-mesh-25","extras":{"shape":"sphere","radius":0.045},"primitives":[{"attributes":{"POSITION":58,"COLOR_0":16,"NORMAL":23},"indices":14,"mode":4}]},{"name":"life-map-sky-dome-v1-mesh-26","extras":{"shape":"sphere","radius":0.065},"primitives":[{"attributes":{"POSITION":59,"COLOR_0":16,"NORMAL":43},"indices":14,"mode":4}]},{"name":"life-map-sky-dome-v1-mesh-27","extras":{"shape":"sphere","radius":0.08499999999999999},"primitives":[{"attributes":{"POSITION":60,"COLOR_0":16,"NORMAL":61},"indices":14,"mode":4}]},{"name":"life-map-sky-dome-v1-mesh-28","extras":{"shape":"sphere","radius":0.045},"primitives":[{"attributes":{"POSITION":62,"COLOR_0":16,"NORMAL":63},"indices":14,"mode":4}]},{"name":"life-map-sky-dome-v1-mesh-29","extras":{"shape":"sphere","radius":0.065},"primitives":[{"attributes":{"POSITION":64,"COLOR_0":16,"NORMAL":65},"indices":14,"mode":4}]},{"name":"life-map-sky-dome-v1-mesh-30","extras":{"shape":"sphere","radius":0.08499999999999999},"primitives":[{"attributes":{"POSITION":66,"COLOR_0":16,"NORMAL":67},"indices":14,"mode":4}]},{"name":"life-map-sky-dome-v1-mesh-31","extras":{"shape":"sphere","radius":0.045},"primitives":[{"attributes":{"POSITION":68,"COLOR_0":16,"NORMAL":69},"indices":14,"mode":4}]},{"name":"life-map-sky-dome-v1-mesh-32","extras":{"shape":"sphere","radius":0.065},"primitives":[{"attributes":{"POSITION":70,"COLOR_0":16,"NORMAL":71},"indices":14,"mode":4}]},{"name":"life-map-sky-dome-v1-mesh-33","extras":{"shape":"sphere","radius":0.08499999999999999},"primitives":[{"attributes":{"POSITION":72,"COLOR_0":16,"NORMAL":73},"indices":14,"mode":4}]},{"name":"life-map-sky-dome-v1-mesh-34","extras":{"shape":"sphere","radius":0.045},"primitives":[{"attributes":{"POSITION":74,"COLOR_0":16,"NORMAL":29},"indices":14,"mode":4}]},{"name":"life-map-sky-dome-v1-mesh-35","extras":{"shape":"sphere","radius":0.065},"primitives":[{"attributes":{"POSITION":75,"COLOR_0":16,"NORMAL":76},"indices":14,"mode":4}]},{"name":"life-map-sky-dome-v1-mesh-36","extras":{"shape":"sphere","radius":0.08499999999999999},"primitives":[{"attributes":{"POSITION":77,"COLOR_0":16,"NORMAL":78},"indices":14,"mode":4}]},{"name":"life-map-sky-dome-v1-mesh-37","extras":{"shape":"sphere","radius":0.045},"primitives":[{"attributes":{"POSITION":79,"COLOR_0":16,"NORMAL":29},"indices":14,"mode":4}]},{"name":"life-map-sky-dome-v1-mesh-38","extras":{"shape":"sphere","radius":0.065},"primitives":[{"attributes":{"POSITION":80,"COLOR_0":16,"NORMAL":81},"indices":14,"mode":4}]},{"name":"life-map-sky-dome-v1-mesh-39","extras":{"shape":"sphere","radius":0.08499999999999999},"primitives":[{"attributes":{"POSITION":82,"COLOR_0":16,"NORMAL":83},"indices":14,"mode":4}]}],"nodes":[{"name":"world","children":[1,2,3,4,5,6,7,8,9,10,11,12,13,14,15,16,17,18,19,20,21,22,23,24,25,26,27,28,29,30,31,32,33,34,35,36,37,38,39,40]},{"name":"life-map-sky-dome-v1-00","mesh":0},{"name":"life-map-sky-dome-v1-01","mesh":1},{"name":"life-map-sky-dome-v1-02","mesh":2},{"name":"life-map-sky-dome-v1-03","mesh":3},{"name":"life-map-sky-dome-v1-04","mesh":4},{"name":"life-map-sky-dome-v1-05","mesh":5},{"name":"life-map-sky-dome-v1-06","mesh":6},{"name":"life-map-sky-dome-v1-07","mesh":7},{"name":"life-map-sky-dome-v1-08","mesh":8},{"name":"life-map-sky-dome-v1-09","mesh":9},{"name":"life-map-sky-dome-v1-10","mesh":10},{"name":"life-map-sky-dome-v1-11","mesh":11},{"name":"life-map-sky-dome-v1-12","mesh":12},{"name":"life-map-sky-dome-v1-13","mesh":13},{"name":"life-map-sky-dome-v1-14","mesh":14},{"name":"life-map-sky-dome-v1-15","mesh":15},{"name":"life-map-sky-dome-v1-16","mesh":16},{"name":"life-map-sky-dome-v1-17","mesh":17},{"name":"life-map-sky-dome-v1-18","mesh":18},{"name":"life-map-sky-dome-v1-19","mesh":19},{"name":"life-map-sky-dome-v1-20","mesh":20},{"name":"life-map-sky-dome-v1-21","mesh":21},{"name":"life-map-sky-dome-v1-22","mesh":22},{"name":"life-map-sky-dome-v1-23","mesh":23},{"name":"life-map-sky-dome-v1-24","mesh":24},{"name":"life-map-sky-dome-v1-25","mesh":25},{"name":"life-map-sky-dome-v1-26","mesh":26},{"name":"life-map-sky-dome-v1-27","mesh":27},{"name":"life-map-sky-dome-v1-28","mesh":28},{"name":"life-map-sky-dome-v1-29","mesh":29},{"name":"life-map-sky-dome-v1-30","mesh":30},{"name":"life-map-sky-dome-v1-31","mesh":31},{"name":"life-map-sky-dome-v1-32","mesh":32},{"name":"life-map-sky-dome-v1-33","mesh":33},{"name":"life-map-sky-dome-v1-34","mesh":34},{"name":"life-map-sky-dome-v1-35","mesh":35},{"name":"life-map-sky-dome-v1-36","mesh":36},{"name":"life-map-sky-dome-v1-37","mesh":37},{"name":"life-map-sky-dome-v1-38","mesh":38},{"name":"life-map-sky-dome-v1-39","mesh":39}],"buffers":[{"uri":"data:application/octet-stream;base64,","byteLength":115392}],"bufferViews":[{"buffer":0,"byteOffset":0,"byteLength":15360},{"buffer":0,"byteOffset":15360,"byteLength":7704},{"buffer":0,"byteOffset":23064,"byteLength":2568},{"buffer":0,"byteOffset":25632,"byteLength":7704},{"buffer":0,"byteOffset":33336,"byteLength":10368},{"buffer":0,"byteOffset":43704,"byteLength":5184},{"buffer":0,"byteOffset":48888,"byteLength":1728},{"buffer":0,"byteOffset":50616,"byteLength":5184},{"buffer":0,"byteOffset":55800,"byteLength":5184},{"buffer":0,"byteOffset":60984,"byteLength":1728},{"buffer":0,"byteOffset":62712,"byteLength":5184},{"buffer":0,"byteOffset":67896,"byteLength":5184},{"buffer":0,"byteOffset":73080,"byteLength":1728},{"buffer":0,"byteOffset":74808,"byteLength":5184},{"buffer":0,"byteOffset":79992,"byteLength":960},{"buffer":0,"byteOffset":80952,"byteLength":504},{"buffer":0,"byteOffset":81456,"byteLength":168},{"buffer":0,"byteOffset":81624,"byteLength":504},{"buffer":0,"byteOffset":82128,"byteLength":504},{"buffer":0,"byteOffset":82632,"byteLength":504},{"buffer":0,"byteOffset":83136,"byteLength":504},{"buffer":0,"byteOffset":83640,"byteLength":504},{"buffer":0,"byteOffset":84144,"byteLength":504},{"buffer":0,"byteOffset":84648,"byteLength":504},{"buffer":0,"byteOffset":85152,"byteLength":504},{"buffer":0,"byteOffset":85656,"byteLength":504},{"buffer":0,"byteOffset":86160,"byteLength":504},{"buffer":0,"byteOffset":86664,"byteLength":504},{"buffer":0,"byteOffset":87168,"byteLength":504},{"buffer":0,"byteOffset":87672,"byteLength":504},{"buffer":0,"byteOffset":88176,"byteLength":504},{"buffer":0,"byteOffset":88680,"byteLength":504},{"buffer":0,"byteOffset":89184,"byteLength":504},{"buffer":0,"byteOffset":89688,"byteLength":504},{"buffer":0,"byteOffset":90192,"byteLength":504},{"buffer":0,"byteOffset":90696,"byteLength":504},{"buffer":0,"byteOffset":91200,"byteLength":504},{"buffer":0,"byteOffset":91704,"byteLength":504},{"buffer":0,"byteOffset":92208,"byteLength":504},{"buffer":0,"byteOffset":92712,"byteLength":504},{"buffer":0,"byteOffset":93216,"byteLength":504},{"buffer":0,"byteOffset":93720,"byteLength":504},{"buffer":0,"byteOffset":94224,"byteLength":504},{"buffer":0,"byteOffset":94728,"byteLength":504},{"buffer":0,"byteOffset":95232,"byteLength":504},{"buffer":0,"byteOffset":95736,"byteLength":504},{"buffer":0,"byteOffset":96240,"byteLength":504},{"buffer":0,"byteOffset":96744,"byteLength":504},{"buffer":0,"byteOffset":97248,"byteLength":504},{"buffer":0,"byteOffset":97752,"byteLength":504},{"buffer":0,"byteOffset":98256,"byteLength":504},{"buffer":0,"byteOffset":98760,"byteLength":504},{"buffer":0,"byteOffset":99264,"byteLength":504},{"buffer":0,"byteOffset":99768,"byteLength":504},{"buffer":0,"byteOffset":100272,"byteLength":504},{"buffer":0,"byteOffset":100776,"byteLength":504},{"buffer":0,"byteOffset":101280,"byteLength":504},{"buffer":0,"byteOffset":101784,"byteLength":504},{"buffer":0,"byteOffset":102288,"byteLength":504},{"buffer":0,"byteOffset":102792,"byteLength":504},{"buffer":0,"byteOffset":103296,"byteLength":504},{"buffer":0,"byteOffset":103800,"byteLength":504},{"buffer":0,"byteOffset":104304,"byteLength":504},{"buffer":0,"byteOffset":104808,"byteLength":504},{"buffer":0,"byteOffset":105312,"byteLength":504},{"buffer":0,"byteOffset":105816,"byteLength":504},{"buffer":0,"byteOffset":106320,"byteLength":504},{"buffer":0,"byteOffset":106824,"byteLength":504},{"buffer":0,"byteOffset":107328,"byteLength":504},{"buffer":0,"byteOffset":107832,"byteLength":504},{"buffer":0,"byteOffset":108336,"byteLength":504},{"buffer":0,"byteOffset":108840,"byteLength":504},{"buffer":0,"byteOffset":109344,"byteLength":504},{"buffer":0,"byteOffset":109848,"byteLength":504},{"buffer":0,"byteOffset":110352,"byteLength":504},{"buffer":0,"byteOffset":110856,"byteLength":504},{"buffer":0,"byteOffset":111360,"byteLength":504},{"buffer":0,"byteOffset":111864,"byteLength":504},{"buffer":0,"byteOffset":112368,"byteLength":504},{"buffer":0,"byteOffset":112872,"byteLength":504},{"buffer":0,"byteOffset":113376,"byteLength":504},{"buffer":0,"byteOffset":113880,"byteLength":504},{"buffer":0,"byteOffset":114384,"byteLength":504},{"buffer":0,"byteOffset":114888,"byteLength":504}],"extras":{"uraiModelId":"life-map-sky-dome-v1","productionClass":"modular-first-pass","generatedBy":"scripts/generate-real-spatial-models-v1.py","units":"meters"}}
