{"scene":0,"scenes":[{"nodes":[0]}],"asset":{"version":"2.0","generator":"URAI deterministic spatial model forge v1","copyright":"URAI Labs"},"accessors":[{"componentType":5125,"type":"SCALAR","bufferView":0,"count":960,"max":[161],"min":[0]},{"componentType":5126,"type":"VEC3","byteOffset":0,"bufferView":1,"count":162,"max":[0.3199999928474426,0.3199999928474426,0.3199999928474426],"min":[-0.3199999928474426,-0.3199999928474426,-0.3199999928474426]},{"componentType":5121,"normalized":true,"type":"VEC4","byteOffset":0,"bufferView":2,"count":162,"max":[230,247,255,255],"min":[230,247,255,255]},{"componentType":5126,"count":162,"type":"VEC3","byteOffset":0,"bufferView":3,"max":[1.0,1.0,1.0],"min":[-1.0,-1.0,-1.0]},{"componentType":5126,"type":"VEC3","byteOffset":0,"bufferView":4,"count":162,"max":[0.46000000834465027,0.46000000834465027,0.46000000834465027],"min":[-0.46000000834465027,-0.46000000834465027,-0.46000000834465027]},{"componentType":5121,"normalized":true,"type":"VEC4","byteOffset":0,"bufferView":5,"count":162,"max":[110,210,255,170],"min":[110,210,255,170]},{"componentType":5126,"count":162,"type":"VEC3","byteOffset":0,"bufferView":6,"max":[1.0,1.0,1.0],"min":[-1.0,-1.0,-1.0]},{"componentType":5125,"type":"SCALAR","bufferView":7,"count":2304,"max":[383],"min":[0]},{"componentType":5126,"type":"VEC3","byteOffset":0,"bufferView":8,"count":384,"max":[0.6449999809265137,0.6449999809265137,0.02500000037252903],"min":[-0.6449999809265137,-0.6449999809265137,-0.02500000037252903]},{"componentType":5121,"normalized":true,"type":"VEC4","byteOffset":0,"bufferView":9,"count":384,"max":[90,244,255,255],"min":[90,244,255,255]},{"componentType":5126,"count":384,"type":"VEC3","byteOffset":0,"bufferView":10,"max":[1.0,1.0,0.9998729228973389],"min":[-1.0,-1.0,-0.9998729228973389]},{"componentType":5126,"type":"VEC3","byteOffset":0,"bufferView":11,"count":384,"max":[0.4880000054836273,0.017999999225139618,0.4880000054836273],"min":[-0.4880000054836273,-0.017999999225139618,-0.4880000054836273]},{"componentType":5121,"normalized":true,"type":"VEC4","byteOffset":0,"bufferView":12,"count":384,"max":[154,102,255,255],"min":[154,102,255,255]},{"componentType":5126,"count":384,"type":"VEC3","byteOffset":0,"bufferView":13,"max":[1.0,0.9998729228973389,1.0],"min":[-1.0,-0.9998729228973389,-1.0]},{"componentType":5125,"type":"SCALAR","bufferView":14,"count":72,"max":[13],"min":[0]},{"componentType":5126,"type":"VEC3","byteOffset":0,"bufferView":15,"count":14,"max":[0.05999999865889549,3.306546303456606e-17,0.5400000214576721],"min":[-0.05999999865889549,-0.41999998688697815,0.41999998688697815]},{"componentType":5121,"normalized":true,"type":"VEC4","byteOffset":0,"bufferView":16,"count":14,"max":[69,178,255,255],"min":[69,178,255,255]},{"componentType":5126,"count":14,"type":"VEC3","byteOffset":0,"bufferView":17,"max":[0.8004490733146667,1.0,0.8004490733146667],"min":[-0.8004490733146667,-1.0,-0.8004490733146667]},{"componentType":5126,"type":"VEC3","byteOffset":0,"bufferView":18,"count":14,"max":[-0.2814556956291199,2.433169969798207e-17,0.39736679196357727],"min":[-0.39736679196357727,-0.41999998688697815,0.2814556956291199]},{"componentType":5126,"count":14,"type":"VEC3","byteOffset":0,"bufferView":19,"max":[0.7731744647026062,1.0,0.7731744647026062],"min":[-0.7731744647026062,-1.0,-0.7731744647026062]},{"componentType":5126,"type":"VEC3","byteOffset":0,"bufferView":20,"count":14,"max":[-0.41999998688697815,3.673940475037442e-18,0.05999999865889549],"min":[-0.5400000214576721,-0.41999998688697815,-0.05999999865889549]},{"componentType":5126,"count":14,"type":"VEC3","byteOffset":0,"bufferView":21,"max":[0.8004490733146667,1.0,0.8004490733146667],"min":[-0.8004490733146667,-1.0,-0.8004490733146667]},{"componentType":5126,"type":"VEC3","byteOffset":0,"bufferView":22,"count":14,"max":[-0.2814556956291199,-1.7234192257256574e-17,-0.2814556956291199],"min":[-0.39736679196357727,-0.41999998688697815,-0.39736679196357727]},{"componentType":5126,"count":14,"type":"VEC3","byteOffset":0,"bufferView":23,"max":[0.7731744647026062,1.0,0.7731744647026062],"min":[-0.7731744647026062,-1.0,-0.7731744647026062]},{"componentType":5126,"type":"VEC3","byteOffset":0,"bufferView":24,"count":14,"max":[0.05999999865889549,-2.571758291167179e-17,-0.41999998688697815],"min":[-0.05999999865889549,-0.41999998688697815,-0.5400000214576721]},{"componentType":5126,"count":14,"type":"VEC3","byteOffset":0,"bufferView":25,"max":[0.8004490733146667,1.0,0.8004490733146667],"min":[-0.8004490733146667,-1.0,-0.8004490733146667]},{"componentType":5126,"type":"VEC3","byteOffset":0,"bufferView":26,"count":14,"max":[0.39736679196357727,-1.7234192257256574e-17,-0.2814556956291199],"min":[0.2814556956291199,-0.41999998688697815,-0.39736679196357727]},{"componentType":5126,"count":14,"type":"VEC3","byteOffset":0,"bufferView":27,"max":[0.7731744647026062,1.0,0.7731744647026062],"min":[-0.7731744647026062,-1.0,-0.7731744647026062]},{"componentType":5126,"type":"VEC3","byteOffset":0,"bufferView":28,"count":14,"max":[0.5400000214576721,3.673940475037442e-18,0.05999999865889549],"min":[0.41999998688697815,-0.41999998688697815,-0.05999999865889549]},{"componentType":5126,"count":14,"type":"VEC3","byteOffset":0,"bufferView":29,"max":[0.8004490733146667,1.0,0.8004490733146667],"min":[-0.8004490733146667,-1.0,-0.8004490733146667]},{"componentType":5126,"type":"VEC3","byteOffset":0,"bufferView":30,"count":14,"max":[0.39736679196357727,2.433169969798207e-17,0.39736679196357727],"min":[0.2814556956291199,-0.41999998688697815,0.2814556956291199]},{"componentType":5126,"count":14,"type":"VEC3","byteOffset":0,"bufferView":31,"max":[0.7731744647026062,1.0,0.7731744647026062],"min":[-0.7731744647026062,-1.0,-0.7731744647026062]}],"meshes":[{"name":"star-memory-node-v1-mesh-00","extras":{"shape":"sphere","radius":0.32},"primitives":[{"attributes":{"POSITION":1,"COLOR_0":2,"NORMAL":3},"indices":0,"mode":4}]},{"name":"star-memory-node-v1-mesh-01","extras":{"shape":"sphere","radius":0.46},"primitives":[{"attributes":{"POSITION":4,"COLOR_0":5,"NORMAL":6},"indices":0,"mode":4}]},{"name":"star-memory-node-v1-mesh-02","extras":{"shape":"torus","major_radius":0.62,"minor_radius":0.025,"processed":true},"primitives":[{"attributes":{"POSITION":8,"COLOR_0":9,"NORMAL":10},"indices":7,"mode":4}]},{"name":"star-memory-node-v1-mesh-03","extras":{"shape":"torus","major_radius":0.47,"minor_radius":0.018,"processed":true},"primitives":[{"attributes":{"POSITION":11,"COLOR_0":12,"NORMAL":13},"indices":7,"mode":4}]},{"name":"star-memory-node-v1-mesh-04","extras":{"shape":"cone","radius":0.06,"height":0.42,"processed":true},"primitives":[{"attributes":{"POSITION":15,"COLOR_0":16,"NORMAL":17},"indices":14,"mode":4}]},{"name":"star-memory-node-v1-mesh-05","extras":{"shape":"cone","radius":0.06,"height":0.42,"processed":true},"primitives":[{"attributes":{"POSITION":18,"COLOR_0":16,"NORMAL":19},"indices":14,"mode":4}]},{"name":"star-memory-node-v1-mesh-06","extras":{"shape":"cone","radius":0.06,"height":0.42,"processed":true},"primitives":[{"attributes":{"POSITION":20,"COLOR_0":16,"NORMAL":21},"indices":14,"mode":4}]},{"name":"star-memory-node-v1-mesh-07","extras":{"shape":"cone","radius":0.06,"height":0.42,"processed":true},"primitives":[{"attributes":{"POSITION":22,"COLOR_0":16,"NORMAL":23},"indices":14,"mode":4}]},{"name":"star-memory-node-v1-mesh-08","extras":{"shape":"cone","radius":0.06,"height":0.42,"processed":true},"primitives":[{"attributes":{"POSITION":24,"COLOR_0":16,"NORMAL":25},"indices":14,"mode":4}]},{"name":"star-memory-node-v1-mesh-09","extras":{"shape":"cone","radius":0.06,"height":0.42,"processed":true},"primitives":[{"attributes":{"POSITION":26,"COLOR_0":16,"NORMAL":27},"indices":14,"mode":4}]},{"name":"star-memory-node-v1-mesh-10","extras":{"shape":"cone","radius":0.06,"height":0.42,"processed":true},"primitives":[{"attributes":{"POSITION":28,"COLOR_0":16,"NORMAL":29},"indices":14,"mode":4}]},{"name":"star-memory-node-v1-mesh-11","extras":{"shape":"cone","radius":0.06,"height":0.42,"processed":true},"primitives":[{"attributes":{"POSITION":30,"COLOR_0":16,"NORMAL":31},"indices":14,"mode":4}]}],"nodes":[{"name":"world","children":[1,2,3,4,5,6,7,8,9,10,11,12]},{"name":"star-memory-node-v1-00","mesh":0},{"name":"star-memory-node-v1-01","mesh":1},{"name":"star-memory-node-v1-02","mesh":2},{"name":"star-memory-node-v1-03","mesh":3},{"name":"star-memory-node-v1-04","mesh":4},{"name":"star-memory-node-v1-05","mesh":5},{"name":"star-memory-node-v1-06","mesh":6},{"name":"star-memory-node-v1-07","mesh":7},{"name":"star-memory-node-v1-08","mesh":8},{"name":"star-memory-node-v1-09","mesh":9},{"name":"star-memory-node-v1-10","mesh":10},{"name":"star-memory-node-v1-11","mesh":11}],"buffers":[{"uri":"data:application/octet-stream;base64,","byteLength":46664}],"bufferViews":[{"buffer":0,"byteOffset":0,"byteLength":3840},{"buffer":0,"byteOffset":3840,"byteLength":1944},{"buffer":0,"byteOffset":5784,"byteLength":648},{"buffer":0,"byteOffset":6432,"byteLength":1944},{"buffer":0,"byteOffset":8376,"byteLength":1944},{"buffer":0,"byteOffset":10320,"byteLength":648},{"buffer":0,"byteOffset":10968,"byteLength":1944},{"buffer":0,"byteOffset":12912,"byteLength":9216},{"buffer":0,"byteOffset":22128,"byteLength":4608},{"buffer":0,"byteOffset":26736,"byteLength":1536},{"buffer":0,"byteOffset":28272,"byteLength":4608},{"buffer":0,"byteOffset":32880,"byteLength":4608},{"buffer":0,"byteOffset":37488,"byteLength":1536},{"buffer":0,"byteOffset":39024,"byteLength":4608},{"buffer":0,"byteOffset":43632,"byteLength":288},{"buffer":0,"byteOffset":43920,"byteLength":168},{"buffer":0,"byteOffset":44088,"byteLength":56},{"buffer":0,"byteOffset":44144,"byteLength":168},{"buffer":0,"byteOffset":44312,"byteLength":168},{"buffer":0,"byteOffset":44480,"byteLength":168},{"buffer":0,"byteOffset":44648,"byteLength":168},{"buffer":0,"byteOffset":44816,"byteLength":168},{"buffer":0,"byteOffset":44984,"byteLength":168},{"buffer":0,"byteOffset":45152,"byteLength":168},{"buffer":0,"byteOffset":45320,"byteLength":168},{"buffer":0,"byteOffset":45488,"byteLength":168},{"buffer":0,"byteOffset":45656,"byteLength":168},{"buffer":0,"byteOffset":45824,"byteLength":168},{"buffer":0,"byteOffset":45992,"byteLength":168},{"buffer":0,"byteOffset":46160,"byteLength":168},{"buffer":0,"byteOffset":46328,"byteLength":168},{"buffer":0,"byteOffset":46496,"byteLength":168}],"extras":{"uraiModelId":"star-memory-node-v1","productionClass":"modular-first-pass","generatedBy":"scripts/generate-real-spatial-models-v1.py","units":"meters"}}
