{"scene":0,"scenes":[{"nodes":[0]}],"asset":{"version":"2.0","generator":"URAI deterministic spatial model forge v1","copyright":"URAI Labs"},"accessors":[{"componentType":5125,"type":"SCALAR","bufferView":0,"count":576,"max":[97],"min":[0]},{"componentType":5126,"type":"VEC3","byteOffset":0,"bufferView":1,"count":98,"max":[0.9200000166893005,1.059999942779541,0.14000000059604645],"min":[-0.9200000166893005,-0.7799999713897705,-0.14000000059604645]},{"componentType":5121,"normalized":true,"type":"VEC4","byteOffset":0,"bufferView":2,"count":98,"max":[9,15,28,255],"min":[9,15,28,255]},{"componentType":5126,"count":98,"type":"VEC3","byteOffset":0,"bufferView":3,"max":[0.7212468981742859,0.7212468981742859,1.0],"min":[-0.7212468981742859,-0.7212468981742859,-1.0]},{"componentType":5125,"type":"SCALAR","bufferView":4,"count":480,"max":[81],"min":[0]},{"componentType":5126,"type":"VEC3","byteOffset":0,"bufferView":5,"count":82,"max":[0.5799999833106995,1.159999966621399,0.3100000023841858],"min":[-0.5799999833106995,0.0,-0.3100000023841858]},{"componentType":5121,"normalized":true,"type":"VEC4","byteOffset":0,"bufferView":6,"count":82,"max":[53,72,96,255],"min":[53,72,96,255]},{"componentType":5126,"count":82,"type":"VEC3","byteOffset":0,"bufferView":7,"max":[0.7239366769790649,0.7239366769790649,1.0],"min":[-0.7239366769790649,-0.7239366769790649,-1.0]},{"componentType":5125,"type":"SCALAR","bufferView":8,"count":2880,"max":[479],"min":[0]},{"componentType":5126,"type":"VEC3","byteOffset":0,"bufferView":9,"count":480,"max":[0.6700000166893005,1.590000033378601,0.04755282402038574],"min":[-0.6700000166893005,0.25,-0.04755282402038574]},{"componentType":5121,"normalized":true,"type":"VEC4","byteOffset":0,"bufferView":10,"count":480,"max":[255,199,84,255],"min":[255,199,84,255]},{"componentType":5126,"count":480,"type":"VEC3","byteOffset":0,"bufferView":11,"max":[1.0,1.0,0.954789936542511],"min":[-1.0,-1.0,-0.954789936542511]},{"componentType":5125,"type":"SCALAR","bufferView":12,"count":240,"max":[41],"min":[0]},{"componentType":5126,"type":"VEC3","byteOffset":0,"bufferView":13,"count":42,"max":[0.335999995470047,1.9600000381469727,0.335999995470047],"min":[-0.335999995470047,0.7599999904632568,-0.335999995470047]},{"componentType":5121,"normalized":true,"type":"VEC4","byteOffset":0,"bufferView":14,"count":42,"max":[110,210,255,170],"min":[110,210,255,170]},{"componentType":5126,"count":42,"type":"VEC3","byteOffset":0,"bufferView":15,"max":[1.0,1.0,1.0],"min":[-1.0,-1.0,-1.0]}],"meshes":[{"name":"passport-identity-plinth-v1-mesh-00","extras":{"shape":"cylinder","height":0.28,"radius":0.92,"processed":true},"primitives":[{"attributes":{"POSITION":1,"COLOR_0":2,"NORMAL":3},"indices":0,"mode":4}]},{"name":"passport-identity-plinth-v1-mesh-01","extras":{"shape":"cylinder","height":0.62,"radius":0.58,"processed":true},"primitives":[{"attributes":{"POSITION":5,"COLOR_0":6,"NORMAL":7},"indices":4,"mode":4}]},{"name":"passport-identity-plinth-v1-mesh-02","extras":{"shape":"torus","major_radius":0.62,"minor_radius":0.05,"processed":true},"primitives":[{"attributes":{"POSITION":9,"COLOR_0":10,"NORMAL":11},"indices":8,"mode":4}]},{"name":"passport-identity-plinth-v1-mesh-03","extras":{"shape":"sphere","radius":0.48},"primitives":[{"attributes":{"POSITION":13,"COLOR_0":14,"NORMAL":15},"indices":12,"mode":4}]}],"nodes":[{"name":"world","children":[1,2,3,4]},{"name":"passport-identity-plinth-v1-00","mesh":0},{"name":"passport-identity-plinth-v1-01","mesh":1},{"name":"passport-identity-plinth-v1-02","mesh":2},{"name":"passport-identity-plinth-v1-03","mesh":3}],"buffers":[{"uri":"data:application/octet-stream;base64,","byteLength":36360}],"bufferViews":[{"buffer":0,"byteOffset":0,"byteLength":2304},{"buffer":0,"byteOffset":2304,"byteLength":1176},{"buffer":0,"byteOffset":3480,"byteLength":392},{"buffer":0,"byteOffset":3872,"byteLength":1176},{"buffer":0,"byteOffset":5048,"byteLength":1920},{"buffer":0,"byteOffset":6968,"byteLength":984},{"buffer":0,"byteOffset":7952,"byteLength":328},{"buffer":0,"byteOffset":8280,"byteLength":984},{"buffer":0,"byteOffset":9264,"byteLength":11520},{"buffer":0,"byteOffset":20784,"byteLength":5760},{"buffer":0,"byteOffset":26544,"byteLength":1920},{"buffer":0,"byteOffset":28464,"byteLength":5760},{"buffer":0,"byteOffset":34224,"byteLength":960},{"buffer":0,"byteOffset":35184,"byteLength":504},{"buffer":0,"byteOffset":35688,"byteLength":168},{"buffer":0,"byteOffset":35856,"byteLength":504}],"extras":{"uraiModelId":"passport-identity-plinth-v1","productionClass":"modular-first-pass","generatedBy":"scripts/generate-real-spatial-models-v1.py","units":"meters"}}
