<svg width="1920" height="1080" viewBox="0 0 1920 1080" xmlns="http://www.w3.org/2000/svg" role="img" aria-labelledby="title desc"><title id="title">URAI XR bespoke final entry chamber</title><desc id="desc">A Quest-ready AR VR XR entry chamber with headset portal, controller rays, safe floor boundary, Home anchor, Ground portal, Life Map portal, and manual proof reminder.</desc><defs><radialGradient id="bg" cx="50%" cy="42%" r="75%"><stop offset="0%" stop-color="#17485f"/><stop offset="48%" stop-color="#071326"/><stop offset="100%" stop-color="#010205"/></radialGradient><linearGradient id="glass" x1="0" y1="0" x2="1" y2="1"><stop offset="0%" stop-color="#fff" stop-opacity=".78"/><stop offset="50%" stop-color="#8ff6ff" stop-opacity=".30"/><stop offset="100%" stop-color="#c4b5fd" stop-opacity=".46"/></linearGradient><radialGradient id="orb" cx="35%" cy="25%" r="70%"><stop offset="0%" stop-color="#fff"/><stop offset="45%" stop-color="#8ff6ff"/><stop offset="100%" stop-color="#2563eb" stop-opacity=".30"/></radialGradient></defs><rect width="1920" height="1080" fill="url(#bg)"/><g fill="none" opacity=".40"><ellipse cx="960" cy="660" rx="710" ry="190" stroke="#8ff6ff" stroke-width="3"/><ellipse cx="960" cy="660" rx="510" ry="125" stroke="#ffe8b5" stroke-width="2" opacity=".7"/><path d="M320 850 H1600" stroke="#8ff6ff" stroke-width="2" opacity=".32"/><path d="M610 845 L835 475 H1085 L1310 845" stroke="#8ff6ff" stroke-width="3" opacity=".34"/></g><g font-family="Inter,Arial,sans-serif" font-weight="900"><text x="110" y="116" font-size="26" letter-spacing="6" fill="#8ff6ff">URAI XR ENTRY FINAL</text><text x="110" y="176" font-size="58" fill="#fff">Quest chamber online.</text><text x="110" y="220" font-size="23" fill="#ffe8b5">AR · VR · XR preview · safe boundary · manual device proof required</text><g transform="translate(960 520)"><rect x="-255" y="-155" width="510" height="250" rx="92" fill="url(#glass)" stroke="#8ff6ff" stroke-width="4" opacity=".90"/><rect x="-145" y="-70" width="120" height="82" rx="32" fill="#061126" opacity=".45"/><rect x="25" y="-70" width="120" height="82" rx="32" fill="#061126" opacity=".45"/><circle cy="118" r="78" fill="url(#orb)" opacity=".84"/><text y="235" text-anchor="middle" font-size="24" letter-spacing="5" fill="#8ff6ff">HEADSET PORTAL · FIRST PERSON</text></g><path d="M720 620 C560 660 460 730 380 845" stroke="#8ff6ff" stroke-width="4" fill="none" opacity=".46"/><path d="M1200 620 C1360 660 1460 730 1540 845" stroke="#ffe8b5" stroke-width="4" fill="none" opacity=".46"/><rect x="225" y="750" width="410" height="150" rx="42" fill="#07121e" stroke="#8ff6ff" stroke-width="2" opacity=".88"/><text x="260" y="807" font-size="18" letter-spacing="4" fill="#8ff6ff">GROUND PORTAL</text><text x="260" y="853" font-size="34" fill="#fff">Walkable floor</text><rect x="1285" y="750" width="410" height="150" rx="42" fill="#07121e" stroke="#ffe8b5" stroke-width="2" opacity=".88"/><text x="1320" y="807" font-size="18" letter-spacing="4" fill="#ffe8b5">LIFE MAP PORTAL</text><text x="1320" y="853" font-size="34" fill="#fff">Sky memory field</text></g><g fill="#fff" opacity=".70"><circle cx="240" cy="315" r="2"/><circle cx="1540" cy="205" r="2.5"/><circle cx="1680" cy="380" r="2"/><circle cx="420" cy="620" r="2"/></g></svg>